<svg width="800" height="600" xmlns="http://www.w3.org/2000/svg" xmlns:svg="http://www.w3.org/2000/svg"><g><title>Layer 1</title><g id="s_766">Layer 1   <g id="s_385"><path d="m250,130m-170,0m8,70a2,1.5 0 0 1 4,0l6,0a2,1.5 0 0 1 4,0l6,0a2,1.5 0 0 1 4,0l6,0a2,1.5 0 0 1 4,0l6,0a2,1.5 0 0 1 4,0l6,0a2,1.5 0 0 1 4,0l6,0a2,1.5 0 0 1 4,0l6,0a2,1.5 0 0 1 4,0l6,0a2,1.5 0 0 1 4,0l6,0a2,1.5 0 0 1 4,0l6,0a2,1.5 0 0 1 4,0l6,0a2,1.5 0 0 1 4,0l6,0a2,1.5 0 0 1 4,0l6,0a2,1.5 0 0 1 4,0l6,0a2,1.5 0 0 1 4,0l8,0l0,-70l-8,0a2,1.5 0 0 1 -4,0l-6,0a2,1.5 0 0 1 -4,0l-6,0a2,1.5 0 0 1 -4,0l-6,0a2,1.5 0 0 1 -4,0l-6,0a2,1.5 0 0 1 -4,0l-6,0a2,1.5 0 0 1 -4,0l-6,0a2,1.5 0 0 1 -4,0l-6,0a2,1.5 0 0 1 -4,0l-6,0a2,1.5 0 0 1 -4,0l-6,0a2,1.5 0 0 1 -4,0l-6,0a2,1.5 0 0 1 -4,0l-6,0a2,1.5 0 0 1 -4,0l-6,0a2,1.5 0 0 1 -4,0l-6,0a2,1.5 0 0 1 -4,0l-6,0a2,1.5 0 0 1 -4,0l-8,0l0,70l8,0zm148,-1.5a3,3 0 1 1 3,-3a3,3 0 0 1 -3,3zm0,-60a3,3 0 1 1 3,-3a3,3 0 0 1 -3,3zm-152,0a3,3 0 1 1 3,-3a3,3 0 0 1 -3,3zm0,60a3,3 0 1 1 3,-3a3,3 0 0 1 -3,3z" fill="#007481" id="s_765" stroke="#004a5e" stroke-width="0.43"/><g id="s_746"><polygon points="98.52698516845703,173.28199768066406 80.04198455810547,173.28199768066406 80.04198455810547,153.3310089111328 98.52698516845703,153.3310089111328 98.52698516845703,173.28199768066406 " id="s_764" class="cls-26" fill="#b3b3b3"/><rect y="173.4943" x="88.0997" width="3.2845" id="s_763" height="1.9346" class="cls-29" fill="#666"/><rect y="151.1511" x="88.0997" width="3.2845" id="s_762" height="1.9346" class="cls-29" fill="#666"/><rect y="153.3301" x="98.3785" width="0.1382" id="s_761" height="19.9517" class="cls-30" fill="#ccc"/><rect y="157.837" x="80.3295" width="18.1871" id="s_760" height="10.8953" class="cls-31" fill="#333"/><rect x="80" y="152.0227" width="0.6165" id="s_759" height="1.063" class="cls-26" fill="#b3b3b3"/><rect x="80" y="152.4054" width="0.6165" id="s_758" height="0.6803" class="cls-30" fill="#ccc"/><rect x="80" y="173.4836" width="0.6165" id="s_757" height="1.063" class="cls-26" fill="#b3b3b3"/><rect x="80" y="173.4836" width="0.6165" id="s_756" height="0.6803" class="cls-30" fill="#ccc"/><path id="s_755" d="m97.9107,153.0432l0.6166,0.2444l0,2.6894a12.8041,12.8041 0 0 0 -0.2977,-2.498c-0.1807,-0.085 -0.3082,0.1169 -0.3082,0.1169l-0.0107,-0.5527z" class="cls-30" fill="#ccc"/><path id="s_754" d="m97.9107,173.4833l0.6059,-0.2339l0,-2.6894a12.8657,12.8657 0 0 1 -0.287,2.53a0.2551,0.2551 0 0 1 -0.3082,-0.117l-0.0107,0.5103z" class="cls-30" fill="#ccc"/><path id="s_753" d="m97.9107,169.9016l-1.148,0l0,-1.7007l1.7646,0l0,-0.489l-0.6166,0l0,-8.8546l0.6166,0l0,-0.5l-1.7646,0l0,-1.7l1.148,0l0,-3.6145l-17.7507,0l0,20.4087l17.7507,0l0,-3.5499zm-14.3397,-11.544l-0.8823,0l0,-1.7433l0.9461,0a1.69,1.69 0 0 1 1.4138,-0.7543a1.5733,1.5733 0 0 1 1.4775,0.7547l4.8366,0l0,1.6794l-4.826,0a1.6795,1.6795 0 0 1 -2.9551,0l-0.0106,0.0635zm0,11.5228l-0.8823,0l0,-1.7434l0.9461,0a1.7117,1.7117 0 0 1 1.4138,-0.744a1.5947,1.5947 0 0 1 1.4775,0.744l4.8366,0l0,1.69l-4.826,0a1.6794,1.6794 0 0 1 -1.4775,0.8715a1.6582,1.6582 0 0 1 -1.4882,-0.8715l0,0.0534z" class="cls-32" fill="#e6e6e6"/><polygon points="97.9109878540039,154.70199584960938 80.15898895263672,153.51199340820312 80.15898895263672,153.08700561523438 97.9109878540039,153.08700561523438 97.9109878540039,154.70199584960938 " id="s_752" class="cls-33" fill="#f2f2f2"/><polygon points="97.9109878540039,173.4949951171875 80.15898895263672,173.4949951171875 92.0110092163086,172.88900756835938 97.9109878540039,172.28298950195312 97.9109878540039,173.4949951171875 " id="s_751" class="cls-34" fill="#999"/><rect y="156.6147" x="91.2249" width="0.1382" id="s_750" height="1.69" class="cls-30" fill="#ccc"/><rect y="168.1478" x="91.2249" width="0.1382" id="s_749" height="1.69" class="cls-30" fill="#ccc"/><rect y="154.0847" x="80.3828" width="0.7122" id="s_748" height="18.4104" class="cls-26" fill="#b3b3b3"/><rect y="154.0847" x="80.1595" width="0.3402" id="s_747" height="18.4104" class="cls-30" fill="#ccc"/></g><g id="s_738"><path fill="#c3b9af" id="s_745" d="m208.87389,129.93531l-1.2217,0l0,4.0329a2.3534,2.3534 0 0 0 4.702,0.2125q0.0048,-0.1062 0,-0.2125l0,-4.0329l-0.8619,0a1.4133,1.4133 0 0 1 -1.4857,1.5434c-0.8576,-0.1134 -1.0084,-0.4944 -1.1327,-1.5434zm-0.4024,4.0492a1.5353,1.5353 0 1 1 1.5339,1.6079a1.5722,1.5722 0 0 1 -1.5339,-1.6081l0,0.0002z"/><path fill="#666" id="s_744" d="m207.39399,134.73901a2.6111,2.6111 0 1 1 2.6112,2.611l0,0a2.6109,2.6109 0 0 1 -2.6109,-2.6109l0,0"/><path fill="#8c8663" id="s_743" d="m209.42399,134.12691l1.1651,0l0,1.23l-1.1651,0l0,-1.23z"/><path fill="#b8af82" id="s_742" d="m209.42399,134.12691l1.1629,0l0.548,-0.576l-2.261,0l0.5501,0.576z"/><path fill="#80795b" id="s_741" d="m210.58599,134.12691l0.549,-0.576l0,2.378l-0.549,-0.573l0,-1.229z"/><path fill="#5e5b43" id="s_740" d="m210.58599,135.35691l0.549,0.574l-2.2608,0l0.55,-0.574l1.1618,0z"/><path fill="#9a916c" id="s_739" d="m209.42399,134.12691l0,1.23l-0.55,0.573l0,-2.379l0.55,0.576z"/></g><g id="s_730"><path fill="#c3b9af" d="m91.1363,199.95l1.2217,0l0,-4.0329a2.3534,2.3534 0 0 0 -4.702,-0.2125q-0.0048,0.1062 0,0.2125l0,4.0329l0.8619,0a1.4133,1.4133 0 0 1 1.4857,-1.5434c0.8576,0.1134 1.0084,0.4944 1.1327,1.5434zm0.4024,-4.0492a1.5353,1.5353 0 1 1 -1.5339,-1.6079a1.5722,1.5722 0 0 1 1.5339,1.6081l0,-0.0002z" id="s_737"/><path fill="#666" d="m92.6162,195.1463a2.6111,2.6111 0 1 1 -2.6112,-2.611l0,0a2.6109,2.6109 0 0 1 2.6109,2.6109l0,0" id="s_736"/><path fill="#8c8663" d="m90.5862,195.7584l-1.1651,0l0,-1.23l1.1651,0l0,1.23z" id="s_735"/><path fill="#b8af82" d="m90.5862,195.7584l-1.1629,0l-0.548,0.576l2.261,0l-0.5501,-0.576z" id="s_734"/><path fill="#80795b" d="m89.4242,195.7584l-0.549,0.576l0,-2.378l0.549,0.573l0,1.229z" id="s_733"/><path fill="#5e5b43" d="m89.4242,194.5284l-0.549,-0.574l2.2608,0l-0.55,0.574l-1.1618,0z" id="s_732"/><path fill="#9a916c" d="m90.5862,195.7584l0,-1.23l0.55,-0.573l0,2.379l-0.55,-0.576z" id="s_731"/></g><g id="s_722"><path fill="#c3b9af" d="m101.1363,199.95l1.2217,0l0,-4.0329a2.3534,2.3534 0 0 0 -4.702,-0.2125q-0.0048,0.1062 0,0.2125l0,4.0329l0.8619,0a1.4133,1.4133 0 0 1 1.4857,-1.5434c0.8576,0.1134 1.0084,0.4944 1.1327,1.5434zm0.4024,-4.0492a1.5353,1.5353 0 1 1 -1.5339,-1.6079a1.5722,1.5722 0 0 1 1.5339,1.6081l0,-0.0002z" id="s_729"/><path fill="#666" d="m102.6162,195.1463a2.6111,2.6111 0 1 1 -2.6112,-2.611l0,0a2.6109,2.6109 0 0 1 2.6109,2.6109l0,0" id="s_728"/><path fill="#8c8663" d="m100.5862,195.7584l-1.1651,0l0,-1.23l1.1651,0l0,1.23z" id="s_727"/><path fill="#b8af82" d="m100.5862,195.7584l-1.1629,0l-0.548,0.576l2.261,0l-0.5501,-0.576z" id="s_726"/><path fill="#80795b" d="m99.4242,195.7584l-0.549,0.576l0,-2.378l0.549,0.573l0,1.229z" id="s_725"/><path fill="#5e5b43" d="m99.4242,194.5284l-0.549,-0.574l2.2608,0l-0.55,0.574l-1.1618,0z" id="s_724"/><path fill="#9a916c" d="m100.5862,195.7584l0,-1.23l0.55,-0.573l0,2.379l-0.55,-0.576z" id="s_723"/></g><g id="s_714"><path fill="#c3b9af" d="m111.1363,199.95l1.2217,0l0,-4.0329a2.3534,2.3534 0 0 0 -4.702,-0.2125q-0.0048,0.1062 0,0.2125l0,4.0329l0.8619,0a1.4133,1.4133 0 0 1 1.4857,-1.5434c0.8576,0.1134 1.0084,0.4944 1.1327,1.5434zm0.4024,-4.0492a1.5353,1.5353 0 1 1 -1.5339,-1.6079a1.5722,1.5722 0 0 1 1.5339,1.6081l0,-0.0002z" id="s_721"/><path fill="#666" d="m112.6162,195.1463a2.6111,2.6111 0 1 1 -2.6112,-2.611l0,0a2.6109,2.6109 0 0 1 2.6109,2.6109l0,0" id="s_720"/><path fill="#8c8663" d="m110.5862,195.7584l-1.1651,0l0,-1.23l1.1651,0l0,1.23z" id="s_719"/><path fill="#b8af82" d="m110.5862,195.7584l-1.1629,0l-0.548,0.576l2.261,0l-0.5501,-0.576z" id="s_718"/><path fill="#80795b" d="m109.4242,195.7584l-0.549,0.576l0,-2.378l0.549,0.573l0,1.229z" id="s_717"/><path fill="#5e5b43" d="m109.4242,194.5284l-0.549,-0.574l2.2608,0l-0.55,0.574l-1.1618,0z" id="s_716"/><path fill="#9a916c" d="m110.5862,195.7584l0,-1.23l0.55,-0.573l0,2.379l-0.55,-0.576z" id="s_715"/></g><g id="s_706"><path fill="#c3b9af" d="m121.1363,199.95l1.2217,0l0,-4.0329a2.3534,2.3534 0 0 0 -4.702,-0.2125q-0.0048,0.1062 0,0.2125l0,4.0329l0.8619,0a1.4133,1.4133 0 0 1 1.4857,-1.5434c0.8576,0.1134 1.0084,0.4944 1.1327,1.5434zm0.4024,-4.0492a1.5353,1.5353 0 1 1 -1.5339,-1.6079a1.5722,1.5722 0 0 1 1.5339,1.6081l0,-0.0002z" id="s_713"/><path fill="#666" d="m122.6162,195.1463a2.6111,2.6111 0 1 1 -2.6112,-2.611l0,0a2.6109,2.6109 0 0 1 2.6109,2.6109l0,0" id="s_712"/><path fill="#8c8663" d="m120.5862,195.7584l-1.1651,0l0,-1.23l1.1651,0l0,1.23z" id="s_711"/><path fill="#b8af82" d="m120.5862,195.7584l-1.1629,0l-0.548,0.576l2.261,0l-0.5501,-0.576z" id="s_710"/><path fill="#80795b" d="m119.4242,195.7584l-0.549,0.576l0,-2.378l0.549,0.573l0,1.229z" id="s_709"/><path fill="#5e5b43" d="m119.4242,194.5284l-0.549,-0.574l2.2608,0l-0.55,0.574l-1.1618,0z" id="s_708"/><path fill="#9a916c" d="m120.5862,195.7584l0,-1.23l0.55,-0.573l0,2.379l-0.55,-0.576z" id="s_707"/></g><g id="s_698"><path fill="#c3b9af" d="m131.1363,199.95l1.2217,0l0,-4.0329a2.3534,2.3534 0 0 0 -4.702,-0.2125q-0.0048,0.1062 0,0.2125l0,4.0329l0.8619,0a1.4133,1.4133 0 0 1 1.4857,-1.5434c0.8576,0.1134 1.0084,0.4944 1.1327,1.5434zm0.4024,-4.0492a1.5353,1.5353 0 1 1 -1.5339,-1.6079a1.5722,1.5722 0 0 1 1.5339,1.6081l0,-0.0002z" id="s_705"/><path fill="#666" d="m132.6162,195.1463a2.6111,2.6111 0 1 1 -2.6112,-2.611l0,0a2.6109,2.6109 0 0 1 2.6109,2.6109l0,0" id="s_704"/><path fill="#8c8663" d="m130.5862,195.7584l-1.1651,0l0,-1.23l1.1651,0l0,1.23z" id="s_703"/><path fill="#b8af82" d="m130.5862,195.7584l-1.1629,0l-0.548,0.576l2.261,0l-0.5501,-0.576z" id="s_702"/><path fill="#80795b" d="m129.4242,195.7584l-0.549,0.576l0,-2.378l0.549,0.573l0,1.229z" id="s_701"/><path fill="#5e5b43" d="m129.4242,194.5284l-0.549,-0.574l2.2608,0l-0.55,0.574l-1.1618,0z" id="s_700"/><path fill="#9a916c" d="m130.5862,195.7584l0,-1.23l0.55,-0.573l0,2.379l-0.55,-0.576z" id="s_699"/></g><g id="s_690"><path fill="#c3b9af" d="m141.1363,199.95l1.2217,0l0,-4.0329a2.3534,2.3534 0 0 0 -4.702,-0.2125q-0.0048,0.1062 0,0.2125l0,4.0329l0.8619,0a1.4133,1.4133 0 0 1 1.4857,-1.5434c0.8576,0.1134 1.0084,0.4944 1.1327,1.5434zm0.4024,-4.0492a1.5353,1.5353 0 1 1 -1.5339,-1.6079a1.5722,1.5722 0 0 1 1.5339,1.6081l0,-0.0002z" id="s_697"/><path fill="#666" d="m142.6162,195.1463a2.6111,2.6111 0 1 1 -2.6112,-2.611l0,0a2.6109,2.6109 0 0 1 2.6109,2.6109l0,0" id="s_696"/><path fill="#8c8663" d="m140.5862,195.7584l-1.1651,0l0,-1.23l1.1651,0l0,1.23z" id="s_695"/><path fill="#b8af82" d="m140.5862,195.7584l-1.1629,0l-0.548,0.576l2.261,0l-0.5501,-0.576z" id="s_694"/><path fill="#80795b" d="m139.4242,195.7584l-0.549,0.576l0,-2.378l0.549,0.573l0,1.229z" id="s_693"/><path fill="#5e5b43" d="m139.4242,194.5284l-0.549,-0.574l2.2608,0l-0.55,0.574l-1.1618,0z" id="s_692"/><path fill="#9a916c" d="m140.5862,195.7584l0,-1.23l0.55,-0.573l0,2.379l-0.55,-0.576z" id="s_691"/></g><g id="s_682"><path fill="#c3b9af" d="m151.1363,199.95l1.2217,0l0,-4.0329a2.3534,2.3534 0 0 0 -4.702,-0.2125q-0.0048,0.1062 0,0.2125l0,4.0329l0.8619,0a1.4133,1.4133 0 0 1 1.4857,-1.5434c0.8576,0.1134 1.0084,0.4944 1.1327,1.5434zm0.4024,-4.0492a1.5353,1.5353 0 1 1 -1.5339,-1.6079a1.5722,1.5722 0 0 1 1.5339,1.6081l0,-0.0002z" id="s_689"/><path fill="#666" d="m152.6162,195.1463a2.6111,2.6111 0 1 1 -2.6112,-2.611l0,0a2.6109,2.6109 0 0 1 2.6109,2.6109l0,0" id="s_688"/><path fill="#8c8663" d="m150.5862,195.7584l-1.1651,0l0,-1.23l1.1651,0l0,1.23z" id="s_687"/><path fill="#b8af82" d="m150.5862,195.7584l-1.1629,0l-0.548,0.576l2.261,0l-0.5501,-0.576z" id="s_686"/><path fill="#80795b" d="m149.4242,195.7584l-0.549,0.576l0,-2.378l0.549,0.573l0,1.229z" id="s_685"/><path fill="#5e5b43" d="m149.4242,194.5284l-0.549,-0.574l2.2608,0l-0.55,0.574l-1.1618,0z" id="s_684"/><path fill="#9a916c" d="m150.5862,195.7584l0,-1.23l0.55,-0.573l0,2.379l-0.55,-0.576z" id="s_683"/></g><g id="s_674"><path fill="#c3b9af" d="m161.1363,199.95l1.2217,0l0,-4.0329a2.3534,2.3534 0 0 0 -4.702,-0.2125q-0.0048,0.1062 0,0.2125l0,4.0329l0.8619,0a1.4133,1.4133 0 0 1 1.4857,-1.5434c0.8576,0.1134 1.0084,0.4944 1.1327,1.5434zm0.4024,-4.0492a1.5353,1.5353 0 1 1 -1.5339,-1.6079a1.5722,1.5722 0 0 1 1.5339,1.6081l0,-0.0002z" id="s_681"/><path fill="#666" d="m162.6162,195.1463a2.6111,2.6111 0 1 1 -2.6112,-2.611l0,0a2.6109,2.6109 0 0 1 2.6109,2.6109l0,0" id="s_680"/><path fill="#8c8663" d="m160.5862,195.7584l-1.1651,0l0,-1.23l1.1651,0l0,1.23z" id="s_679"/><path fill="#b8af82" d="m160.5862,195.7584l-1.1629,0l-0.548,0.576l2.261,0l-0.5501,-0.576z" id="s_678"/><path fill="#80795b" d="m159.4242,195.7584l-0.549,0.576l0,-2.378l0.549,0.573l0,1.229z" id="s_677"/><path fill="#5e5b43" d="m159.4242,194.5284l-0.549,-0.574l2.2608,0l-0.55,0.574l-1.1618,0z" id="s_676"/><path fill="#9a916c" d="m160.5862,195.7584l0,-1.23l0.55,-0.573l0,2.379l-0.55,-0.576z" id="s_675"/></g><g id="s_666"><path fill="#c3b9af" d="m171.1363,199.95l1.2217,0l0,-4.0329a2.3534,2.3534 0 0 0 -4.702,-0.2125q-0.0048,0.1062 0,0.2125l0,4.0329l0.8619,0a1.4133,1.4133 0 0 1 1.4857,-1.5434c0.8576,0.1134 1.0084,0.4944 1.1327,1.5434zm0.4024,-4.0492a1.5353,1.5353 0 1 1 -1.5339,-1.6079a1.5722,1.5722 0 0 1 1.5339,1.6081l0,-0.0002z" id="s_673"/><path fill="#666" d="m172.6162,195.1463a2.6111,2.6111 0 1 1 -2.6112,-2.611l0,0a2.6109,2.6109 0 0 1 2.6109,2.6109l0,0" id="s_672"/><path fill="#8c8663" d="m170.5862,195.7584l-1.1651,0l0,-1.23l1.1651,0l0,1.23z" id="s_671"/><path fill="#b8af82" d="m170.5862,195.7584l-1.1629,0l-0.548,0.576l2.261,0l-0.5501,-0.576z" id="s_670"/><path fill="#80795b" d="m169.4242,195.7584l-0.549,0.576l0,-2.378l0.549,0.573l0,1.229z" id="s_669"/><path fill="#5e5b43" d="m169.4242,194.5284l-0.549,-0.574l2.2608,0l-0.55,0.574l-1.1618,0z" id="s_668"/><path fill="#9a916c" d="m170.5862,195.7584l0,-1.23l0.55,-0.573l0,2.379l-0.55,-0.576z" id="s_667"/></g><g id="s_658"><path fill="#c3b9af" d="m181.1363,199.95l1.2217,0l0,-4.0329a2.3534,2.3534 0 0 0 -4.702,-0.2125q-0.0048,0.1062 0,0.2125l0,4.0329l0.8619,0a1.4133,1.4133 0 0 1 1.4857,-1.5434c0.8576,0.1134 1.0084,0.4944 1.1327,1.5434zm0.4024,-4.0492a1.5353,1.5353 0 1 1 -1.5339,-1.6079a1.5722,1.5722 0 0 1 1.5339,1.6081l0,-0.0002z" id="s_665"/><path fill="#666" d="m182.6162,195.1463a2.6111,2.6111 0 1 1 -2.6112,-2.611l0,0a2.6109,2.6109 0 0 1 2.6109,2.6109l0,0" id="s_664"/><path fill="#8c8663" d="m180.5862,195.7584l-1.1651,0l0,-1.23l1.1651,0l0,1.23z" id="s_663"/><path fill="#b8af82" d="m180.5862,195.7584l-1.1629,0l-0.548,0.576l2.261,0l-0.5501,-0.576z" id="s_662"/><path fill="#80795b" d="m179.4242,195.7584l-0.549,0.576l0,-2.378l0.549,0.573l0,1.229z" id="s_661"/><path fill="#5e5b43" d="m179.4242,194.5284l-0.549,-0.574l2.2608,0l-0.55,0.574l-1.1618,0z" id="s_660"/><path fill="#9a916c" d="m180.5862,195.7584l0,-1.23l0.55,-0.573l0,2.379l-0.55,-0.576z" id="s_659"/></g><g id="s_650"><path fill="#c3b9af" d="m191.1363,199.95l1.2217,0l0,-4.0329a2.3534,2.3534 0 0 0 -4.702,-0.2125q-0.0048,0.1062 0,0.2125l0,4.0329l0.8619,0a1.4133,1.4133 0 0 1 1.4857,-1.5434c0.8576,0.1134 1.0084,0.4944 1.1327,1.5434zm0.4024,-4.0492a1.5353,1.5353 0 1 1 -1.5339,-1.6079a1.5722,1.5722 0 0 1 1.5339,1.6081l0,-0.0002z" id="s_657"/><path fill="#666" d="m192.6162,195.1463a2.6111,2.6111 0 1 1 -2.6112,-2.611l0,0a2.6109,2.6109 0 0 1 2.6109,2.6109l0,0" id="s_656"/><path fill="#8c8663" d="m190.5862,195.7584l-1.1651,0l0,-1.23l1.1651,0l0,1.23z" id="s_655"/><path fill="#b8af82" d="m190.5862,195.7584l-1.1629,0l-0.548,0.576l2.261,0l-0.5501,-0.576z" id="s_654"/><path fill="#80795b" d="m189.4242,195.7584l-0.549,0.576l0,-2.378l0.549,0.573l0,1.229z" id="s_653"/><path fill="#5e5b43" d="m189.4242,194.5284l-0.549,-0.574l2.2608,0l-0.55,0.574l-1.1618,0z" id="s_652"/><path fill="#9a916c" d="m190.5862,195.7584l0,-1.23l0.55,-0.573l0,2.379l-0.55,-0.576z" id="s_651"/></g><g id="s_642"><path fill="#c3b9af" d="m201.1363,199.95l1.2217,0l0,-4.0329a2.3534,2.3534 0 0 0 -4.702,-0.2125q-0.0048,0.1062 0,0.2125l0,4.0329l0.8619,0a1.4133,1.4133 0 0 1 1.4857,-1.5434c0.8576,0.1134 1.0084,0.4944 1.1327,1.5434zm0.4024,-4.0492a1.5353,1.5353 0 1 1 -1.5339,-1.6079a1.5722,1.5722 0 0 1 1.5339,1.6081l0,-0.0002z" id="s_649"/><path fill="#666" d="m202.6162,195.1463a2.6111,2.6111 0 1 1 -2.6112,-2.611l0,0a2.6109,2.6109 0 0 1 2.6109,2.6109l0,0" id="s_648"/><path fill="#8c8663" d="m200.5862,195.7584l-1.1651,0l0,-1.23l1.1651,0l0,1.23z" id="s_647"/><path fill="#b8af82" d="m200.5862,195.7584l-1.1629,0l-0.548,0.576l2.261,0l-0.5501,-0.576z" id="s_646"/><path fill="#80795b" d="m199.4242,195.7584l-0.549,0.576l0,-2.378l0.549,0.573l0,1.229z" id="s_645"/><path fill="#5e5b43" d="m199.4242,194.5284l-0.549,-0.574l2.2608,0l-0.55,0.574l-1.1618,0z" id="s_644"/><path fill="#9a916c" d="m200.5862,195.7584l0,-1.23l0.55,-0.573l0,2.379l-0.55,-0.576z" id="s_643"/></g><g id="s_634"><path fill="#c3b9af" d="m211.1363,199.95l1.2217,0l0,-4.0329a2.3534,2.3534 0 0 0 -4.702,-0.2125q-0.0048,0.1062 0,0.2125l0,4.0329l0.8619,0a1.4133,1.4133 0 0 1 1.4857,-1.5434c0.8576,0.1134 1.0084,0.4944 1.1327,1.5434zm0.4024,-4.0492a1.5353,1.5353 0 1 1 -1.5339,-1.6079a1.5722,1.5722 0 0 1 1.5339,1.6081l0,-0.0002z" id="s_641"/><path fill="#666" d="m212.6162,195.1463a2.6111,2.6111 0 1 1 -2.6112,-2.611l0,0a2.6109,2.6109 0 0 1 2.6109,2.6109l0,0" id="s_640"/><path fill="#8c8663" d="m210.5862,195.7584l-1.1651,0l0,-1.23l1.1651,0l0,1.23z" id="s_639"/><path fill="#b8af82" d="m210.5862,195.7584l-1.1629,0l-0.548,0.576l2.261,0l-0.5501,-0.576z" id="s_638"/><path fill="#80795b" d="m209.4242,195.7584l-0.549,0.576l0,-2.378l0.549,0.573l0,1.229z" id="s_637"/><path fill="#5e5b43" d="m209.4242,194.5284l-0.549,-0.574l2.2608,0l-0.55,0.574l-1.1618,0z" id="s_636"/><path fill="#9a916c" d="m210.5862,195.7584l0,-1.23l0.55,-0.573l0,2.379l-0.55,-0.576z" id="s_635"/></g><g id="s_626"><path fill="#c3b9af" d="m221.1363,199.95l1.2217,0l0,-4.0329a2.3534,2.3534 0 0 0 -4.702,-0.2125q-0.0048,0.1062 0,0.2125l0,4.0329l0.8619,0a1.4133,1.4133 0 0 1 1.4857,-1.5434c0.8576,0.1134 1.0084,0.4944 1.1327,1.5434zm0.4024,-4.0492a1.5353,1.5353 0 1 1 -1.5339,-1.6079a1.5722,1.5722 0 0 1 1.5339,1.6081l0,-0.0002z" id="s_633"/><path fill="#666" d="m222.6162,195.1463a2.6111,2.6111 0 1 1 -2.6112,-2.611l0,0a2.6109,2.6109 0 0 1 2.6109,2.6109l0,0" id="s_632"/><path fill="#8c8663" d="m220.5862,195.7584l-1.1651,0l0,-1.23l1.1651,0l0,1.23z" id="s_631"/><path fill="#b8af82" d="m220.5862,195.7584l-1.1629,0l-0.548,0.576l2.261,0l-0.5501,-0.576z" id="s_630"/><path fill="#80795b" d="m219.4242,195.7584l-0.549,0.576l0,-2.378l0.549,0.573l0,1.229z" id="s_629"/><path fill="#5e5b43" d="m219.4242,194.5284l-0.549,-0.574l2.2608,0l-0.55,0.574l-1.1618,0z" id="s_628"/><path fill="#9a916c" d="m220.5862,195.7584l0,-1.23l0.55,-0.573l0,2.379l-0.55,-0.576z" id="s_627"/></g><g id="s_618"><path fill="#c3b9af" d="m231.1363,199.95l1.2217,0l0,-4.0329a2.3534,2.3534 0 0 0 -4.702,-0.2125q-0.0048,0.1062 0,0.2125l0,4.0329l0.8619,0a1.4133,1.4133 0 0 1 1.4857,-1.5434c0.8576,0.1134 1.0084,0.4944 1.1327,1.5434zm0.4024,-4.0492a1.5353,1.5353 0 1 1 -1.5339,-1.6079a1.5722,1.5722 0 0 1 1.5339,1.6081l0,-0.0002z" id="s_625"/><path fill="#666" d="m232.6162,195.1463a2.6111,2.6111 0 1 1 -2.6112,-2.611l0,0a2.6109,2.6109 0 0 1 2.6109,2.6109l0,0" id="s_624"/><path fill="#8c8663" d="m230.5862,195.7584l-1.1651,0l0,-1.23l1.1651,0l0,1.23z" id="s_623"/><path fill="#b8af82" d="m230.5862,195.7584l-1.1629,0l-0.548,0.576l2.261,0l-0.5501,-0.576z" id="s_622"/><path fill="#80795b" d="m229.4242,195.7584l-0.549,0.576l0,-2.378l0.549,0.573l0,1.229z" id="s_621"/><path fill="#5e5b43" d="m229.4242,194.5284l-0.549,-0.574l2.2608,0l-0.55,0.574l-1.1618,0z" id="s_620"/><path fill="#9a916c" d="m230.5862,195.7584l0,-1.23l0.55,-0.573l0,2.379l-0.55,-0.576z" id="s_619"/></g><g id="s_610"><path fill="#c3b9af" d="m228.87389,129.93531l-1.2217,0l0,4.0329a2.3534,2.3534 0 0 0 4.702,0.2125q0.0048,-0.1062 0,-0.2125l0,-4.0329l-0.8619,0a1.4133,1.4133 0 0 1 -1.4857,1.5434c-0.8576,-0.1134 -1.0084,-0.4944 -1.1327,-1.5434zm-0.4024,4.0492a1.5353,1.5353 0 1 1 1.5339,1.6079a1.5722,1.5722 0 0 1 -1.5339,-1.6081l0,0.0002z" id="s_617"/><path fill="#666" d="m227.39399,134.73901a2.6111,2.6111 0 1 1 2.6112,2.611l0,0a2.6109,2.6109 0 0 1 -2.6109,-2.6109l0,0" id="s_616"/><path fill="#8c8663" d="m229.42399,134.12691l1.1651,0l0,1.23l-1.1651,0l0,-1.23z" id="s_615"/><path fill="#b8af82" d="m229.42399,134.12691l1.1629,0l0.548,-0.576l-2.261,0l0.5501,0.576z" id="s_614"/><path fill="#80795b" d="m230.58599,134.12691l0.549,-0.576l0,2.378l-0.549,-0.573l0,-1.229z" id="s_613"/><path fill="#5e5b43" d="m230.58599,135.35691l0.549,0.574l-2.2608,0l0.55,-0.574l1.1618,0z" id="s_612"/><path fill="#9a916c" d="m229.42399,134.12691l0,1.23l-0.55,0.573l0,-2.379l0.55,0.576z" id="s_611"/></g><g id="s_602"><path fill="#c3b9af" d="m218.87389,129.93531l-1.2217,0l0,4.0329a2.3534,2.3534 0 0 0 4.702,0.2125q0.0048,-0.1062 0,-0.2125l0,-4.0329l-0.8619,0a1.4133,1.4133 0 0 1 -1.4857,1.5434c-0.8576,-0.1134 -1.0084,-0.4944 -1.1327,-1.5434zm-0.4024,4.0492a1.5353,1.5353 0 1 1 1.5339,1.6079a1.5722,1.5722 0 0 1 -1.5339,-1.6081l0,0.0002z" id="s_609"/><path fill="#666" d="m217.39399,134.73901a2.6111,2.6111 0 1 1 2.6112,2.611l0,0a2.6109,2.6109 0 0 1 -2.6109,-2.6109l0,0" id="s_608"/><path fill="#8c8663" d="m219.42399,134.12691l1.1651,0l0,1.23l-1.1651,0l0,-1.23z" id="s_607"/><path fill="#b8af82" d="m219.42399,134.12691l1.1629,0l0.548,-0.576l-2.261,0l0.5501,0.576z" id="s_606"/><path fill="#80795b" d="m220.58599,134.12691l0.549,-0.576l0,2.378l-0.549,-0.573l0,-1.229z" id="s_605"/><path fill="#5e5b43" d="m220.58599,135.35691l0.549,0.574l-2.2608,0l0.55,-0.574l1.1618,0z" id="s_604"/><path fill="#9a916c" d="m219.42399,134.12691l0,1.23l-0.55,0.573l0,-2.379l0.55,0.576z" id="s_603"/></g><g id="s_594"><path fill="#c3b9af" d="m88.87389,129.93531l-1.2217,0l0,4.0329a2.3534,2.3534 0 0 0 4.702,0.2125q0.0048,-0.1062 0,-0.2125l0,-4.0329l-0.8619,0a1.4133,1.4133 0 0 1 -1.4857,1.5434c-0.8576,-0.1134 -1.0084,-0.4944 -1.1327,-1.5434zm-0.4024,4.0492a1.5353,1.5353 0 1 1 1.5339,1.6079a1.5722,1.5722 0 0 1 -1.5339,-1.6081l0,0.0002z" id="s_601"/><path fill="#666" d="m87.39399,134.73901a2.6111,2.6111 0 1 1 2.6112,2.611l0,0a2.6109,2.6109 0 0 1 -2.6109,-2.6109l0,0" id="s_600"/><path fill="#8c8663" d="m89.42399,134.12691l1.1651,0l0,1.23l-1.1651,0l0,-1.23z" id="s_599"/><path fill="#b8af82" d="m89.42399,134.12691l1.1629,0l0.548,-0.576l-2.261,0l0.5501,0.576z" id="s_598"/><path fill="#80795b" d="m90.58599,134.12691l0.549,-0.576l0,2.378l-0.549,-0.573l0,-1.229z" id="s_597"/><path fill="#5e5b43" d="m90.58599,135.35691l0.549,0.574l-2.2608,0l0.55,-0.574l1.1618,0z" id="s_596"/><path fill="#9a916c" d="m89.42399,134.12691l0,1.23l-0.55,0.573l0,-2.379l0.55,0.576z" id="s_595"/></g><g id="s_586"><path id="s_593" fill="#c3b9af" d="m208.87389,129.93531l-1.2217,0l0,4.0329a2.3534,2.3534 0 0 0 4.702,0.2125q0.0048,-0.1062 0,-0.2125l0,-4.0329l-0.8619,0a1.4133,1.4133 0 0 1 -1.4857,1.5434c-0.8576,-0.1134 -1.0084,-0.4944 -1.1327,-1.5434zm-0.4024,4.0492a1.5353,1.5353 0 1 1 1.5339,1.6079a1.5722,1.5722 0 0 1 -1.5339,-1.6081l0,0.0002z"/><path id="s_592" fill="#666" d="m207.39399,134.73901a2.6111,2.6111 0 1 1 2.6112,2.611l0,0a2.6109,2.6109 0 0 1 -2.6109,-2.6109l0,0"/><path id="s_591" fill="#8c8663" d="m209.42399,134.12691l1.1651,0l0,1.23l-1.1651,0l0,-1.23z"/><path id="s_590" fill="#b8af82" d="m209.42399,134.12691l1.1629,0l0.548,-0.576l-2.261,0l0.5501,0.576z"/><path id="s_589" fill="#80795b" d="m210.58599,134.12691l0.549,-0.576l0,2.378l-0.549,-0.573l0,-1.229z"/><path id="s_588" fill="#5e5b43" d="m210.58599,135.35691l0.549,0.574l-2.2608,0l0.55,-0.574l1.1618,0z"/><path id="s_587" fill="#9a916c" d="m209.42399,134.12691l0,1.23l-0.55,0.573l0,-2.379l0.55,0.576z"/></g><g id="s_578"><path id="s_585" fill="#c3b9af" d="m198.87389,129.93531l-1.2217,0l0,4.0329a2.3534,2.3534 0 0 0 4.702,0.2125q0.0048,-0.1062 0,-0.2125l0,-4.0329l-0.8619,0a1.4133,1.4133 0 0 1 -1.4857,1.5434c-0.8576,-0.1134 -1.0084,-0.4944 -1.1327,-1.5434zm-0.4024,4.0492a1.5353,1.5353 0 1 1 1.5339,1.6079a1.5722,1.5722 0 0 1 -1.5339,-1.6081l0,0.0002z"/><path id="s_584" fill="#666" d="m197.39399,134.73901a2.6111,2.6111 0 1 1 2.6112,2.611l0,0a2.6109,2.6109 0 0 1 -2.6109,-2.6109l0,0"/><path id="s_583" fill="#8c8663" d="m199.42399,134.12691l1.1651,0l0,1.23l-1.1651,0l0,-1.23z"/><path id="s_582" fill="#b8af82" d="m199.42399,134.12691l1.1629,0l0.548,-0.576l-2.261,0l0.5501,0.576z"/><path id="s_581" fill="#80795b" d="m200.58599,134.12691l0.549,-0.576l0,2.378l-0.549,-0.573l0,-1.229z"/><path id="s_580" fill="#5e5b43" d="m200.58599,135.35691l0.549,0.574l-2.2608,0l0.55,-0.574l1.1618,0z"/><path id="s_579" fill="#9a916c" d="m199.42399,134.12691l0,1.23l-0.55,0.573l0,-2.379l0.55,0.576z"/></g><g id="s_570"><path id="s_577" fill="#c3b9af" d="m188.87389,129.93531l-1.2217,0l0,4.0329a2.3534,2.3534 0 0 0 4.702,0.2125q0.0048,-0.1062 0,-0.2125l0,-4.0329l-0.8619,0a1.4133,1.4133 0 0 1 -1.4857,1.5434c-0.8576,-0.1134 -1.0084,-0.4944 -1.1327,-1.5434zm-0.4024,4.0492a1.5353,1.5353 0 1 1 1.5339,1.6079a1.5722,1.5722 0 0 1 -1.5339,-1.6081l0,0.0002z"/><path id="s_576" fill="#666" d="m187.39399,134.73901a2.6111,2.6111 0 1 1 2.6112,2.611l0,0a2.6109,2.6109 0 0 1 -2.6109,-2.6109l0,0"/><path id="s_575" fill="#8c8663" d="m189.42399,134.12691l1.1651,0l0,1.23l-1.1651,0l0,-1.23z"/><path id="s_574" fill="#b8af82" d="m189.42399,134.12691l1.1629,0l0.548,-0.576l-2.261,0l0.5501,0.576z"/><path id="s_573" fill="#80795b" d="m190.58599,134.12691l0.549,-0.576l0,2.378l-0.549,-0.573l0,-1.229z"/><path id="s_572" fill="#5e5b43" d="m190.58599,135.35691l0.549,0.574l-2.2608,0l0.55,-0.574l1.1618,0z"/><path id="s_571" fill="#9a916c" d="m189.42399,134.12691l0,1.23l-0.55,0.573l0,-2.379l0.55,0.576z"/></g><g id="s_562"><path id="s_569" fill="#c3b9af" d="m178.87389,129.93531l-1.2217,0l0,4.0329a2.3534,2.3534 0 0 0 4.702,0.2125q0.0048,-0.1062 0,-0.2125l0,-4.0329l-0.8619,0a1.4133,1.4133 0 0 1 -1.4857,1.5434c-0.8576,-0.1134 -1.0084,-0.4944 -1.1327,-1.5434zm-0.4024,4.0492a1.5353,1.5353 0 1 1 1.5339,1.6079a1.5722,1.5722 0 0 1 -1.5339,-1.6081l0,0.0002z"/><path id="s_568" fill="#666" d="m177.39399,134.73901a2.6111,2.6111 0 1 1 2.6112,2.611l0,0a2.6109,2.6109 0 0 1 -2.6109,-2.6109l0,0"/><path id="s_567" fill="#8c8663" d="m179.42399,134.12691l1.1651,0l0,1.23l-1.1651,0l0,-1.23z"/><path id="s_566" fill="#b8af82" d="m179.42399,134.12691l1.1629,0l0.548,-0.576l-2.261,0l0.5501,0.576z"/><path id="s_565" fill="#80795b" d="m180.58599,134.12691l0.549,-0.576l0,2.378l-0.549,-0.573l0,-1.229z"/><path id="s_564" fill="#5e5b43" d="m180.58599,135.35691l0.549,0.574l-2.2608,0l0.55,-0.574l1.1618,0z"/><path id="s_563" fill="#9a916c" d="m179.42399,134.12691l0,1.23l-0.55,0.573l0,-2.379l0.55,0.576z"/></g><g id="s_554"><path id="s_561" fill="#c3b9af" d="m168.87389,129.93531l-1.2217,0l0,4.0329a2.3534,2.3534 0 0 0 4.702,0.2125q0.0048,-0.1062 0,-0.2125l0,-4.0329l-0.8619,0a1.4133,1.4133 0 0 1 -1.4857,1.5434c-0.8576,-0.1134 -1.0084,-0.4944 -1.1327,-1.5434zm-0.4024,4.0492a1.5353,1.5353 0 1 1 1.5339,1.6079a1.5722,1.5722 0 0 1 -1.5339,-1.6081l0,0.0002z"/><path id="s_560" fill="#666" d="m167.39399,134.73901a2.6111,2.6111 0 1 1 2.6112,2.611l0,0a2.6109,2.6109 0 0 1 -2.6109,-2.6109l0,0"/><path id="s_559" fill="#8c8663" d="m169.42399,134.12691l1.1651,0l0,1.23l-1.1651,0l0,-1.23z"/><path id="s_558" fill="#b8af82" d="m169.42399,134.12691l1.1629,0l0.548,-0.576l-2.261,0l0.5501,0.576z"/><path id="s_557" fill="#80795b" d="m170.58599,134.12691l0.549,-0.576l0,2.378l-0.549,-0.573l0,-1.229z"/><path id="s_556" fill="#5e5b43" d="m170.58599,135.35691l0.549,0.574l-2.2608,0l0.55,-0.574l1.1618,0z"/><path id="s_555" fill="#9a916c" d="m169.42399,134.12691l0,1.23l-0.55,0.573l0,-2.379l0.55,0.576z"/></g><g id="s_546"><path id="s_553" fill="#c3b9af" d="m158.87389,129.93531l-1.2217,0l0,4.0329a2.3534,2.3534 0 0 0 4.702,0.2125q0.0048,-0.1062 0,-0.2125l0,-4.0329l-0.8619,0a1.4133,1.4133 0 0 1 -1.4857,1.5434c-0.8576,-0.1134 -1.0084,-0.4944 -1.1327,-1.5434zm-0.4024,4.0492a1.5353,1.5353 0 1 1 1.5339,1.6079a1.5722,1.5722 0 0 1 -1.5339,-1.6081l0,0.0002z"/><path id="s_552" fill="#666" d="m157.39399,134.73901a2.6111,2.6111 0 1 1 2.6112,2.611l0,0a2.6109,2.6109 0 0 1 -2.6109,-2.6109l0,0"/><path id="s_551" fill="#8c8663" d="m159.42399,134.12691l1.1651,0l0,1.23l-1.1651,0l0,-1.23z"/><path id="s_550" fill="#b8af82" d="m159.42399,134.12691l1.1629,0l0.548,-0.576l-2.261,0l0.5501,0.576z"/><path id="s_549" fill="#80795b" d="m160.58599,134.12691l0.549,-0.576l0,2.378l-0.549,-0.573l0,-1.229z"/><path id="s_548" fill="#5e5b43" d="m160.58599,135.35691l0.549,0.574l-2.2608,0l0.55,-0.574l1.1618,0z"/><path id="s_547" fill="#9a916c" d="m159.42399,134.12691l0,1.23l-0.55,0.573l0,-2.379l0.55,0.576z"/></g><g id="s_538"><path id="s_545" fill="#c3b9af" d="m148.87389,129.93531l-1.2217,0l0,4.0329a2.3534,2.3534 0 0 0 4.702,0.2125q0.0048,-0.1062 0,-0.2125l0,-4.0329l-0.8619,0a1.4133,1.4133 0 0 1 -1.4857,1.5434c-0.8576,-0.1134 -1.0084,-0.4944 -1.1327,-1.5434zm-0.4024,4.0492a1.5353,1.5353 0 1 1 1.5339,1.6079a1.5722,1.5722 0 0 1 -1.5339,-1.6081l0,0.0002z"/><path id="s_544" fill="#666" d="m147.39399,134.73901a2.6111,2.6111 0 1 1 2.6112,2.611l0,0a2.6109,2.6109 0 0 1 -2.6109,-2.6109l0,0"/><path id="s_543" fill="#8c8663" d="m149.42399,134.12691l1.1651,0l0,1.23l-1.1651,0l0,-1.23z"/><path id="s_542" fill="#b8af82" d="m149.42399,134.12691l1.1629,0l0.548,-0.576l-2.261,0l0.5501,0.576z"/><path id="s_541" fill="#80795b" d="m150.58599,134.12691l0.549,-0.576l0,2.378l-0.549,-0.573l0,-1.229z"/><path id="s_540" fill="#5e5b43" d="m150.58599,135.35691l0.549,0.574l-2.2608,0l0.55,-0.574l1.1618,0z"/><path id="s_539" fill="#9a916c" d="m149.42399,134.12691l0,1.23l-0.55,0.573l0,-2.379l0.55,0.576z"/></g><g id="s_530"><path id="s_537" fill="#c3b9af" d="m138.87389,129.93531l-1.2217,0l0,4.0329a2.3534,2.3534 0 0 0 4.702,0.2125q0.0048,-0.1062 0,-0.2125l0,-4.0329l-0.8619,0a1.4133,1.4133 0 0 1 -1.4857,1.5434c-0.8576,-0.1134 -1.0084,-0.4944 -1.1327,-1.5434zm-0.4024,4.0492a1.5353,1.5353 0 1 1 1.5339,1.6079a1.5722,1.5722 0 0 1 -1.5339,-1.6081l0,0.0002z"/><path id="s_536" fill="#666" d="m137.39399,134.73901a2.6111,2.6111 0 1 1 2.6112,2.611l0,0a2.6109,2.6109 0 0 1 -2.6109,-2.6109l0,0"/><path id="s_535" fill="#8c8663" d="m139.42399,134.12691l1.1651,0l0,1.23l-1.1651,0l0,-1.23z"/><path id="s_534" fill="#b8af82" d="m139.42399,134.12691l1.1629,0l0.548,-0.576l-2.261,0l0.5501,0.576z"/><path id="s_533" fill="#80795b" d="m140.58599,134.12691l0.549,-0.576l0,2.378l-0.549,-0.573l0,-1.229z"/><path id="s_532" fill="#5e5b43" d="m140.58599,135.35691l0.549,0.574l-2.2608,0l0.55,-0.574l1.1618,0z"/><path id="s_531" fill="#9a916c" d="m139.42399,134.12691l0,1.23l-0.55,0.573l0,-2.379l0.55,0.576z"/></g><g id="s_522"><path id="s_529" fill="#c3b9af" d="m128.87389,129.93531l-1.2217,0l0,4.0329a2.3534,2.3534 0 0 0 4.702,0.2125q0.0048,-0.1062 0,-0.2125l0,-4.0329l-0.8619,0a1.4133,1.4133 0 0 1 -1.4857,1.5434c-0.8576,-0.1134 -1.0084,-0.4944 -1.1327,-1.5434zm-0.4024,4.0492a1.5353,1.5353 0 1 1 1.5339,1.6079a1.5722,1.5722 0 0 1 -1.5339,-1.6081l0,0.0002z"/><path id="s_528" fill="#666" d="m127.39399,134.73901a2.6111,2.6111 0 1 1 2.6112,2.611l0,0a2.6109,2.6109 0 0 1 -2.6109,-2.6109l0,0"/><path id="s_527" fill="#8c8663" d="m129.42399,134.12691l1.1651,0l0,1.23l-1.1651,0l0,-1.23z"/><path id="s_526" fill="#b8af82" d="m129.42399,134.12691l1.1629,0l0.548,-0.576l-2.261,0l0.5501,0.576z"/><path id="s_525" fill="#80795b" d="m130.58599,134.12691l0.549,-0.576l0,2.378l-0.549,-0.573l0,-1.229z"/><path id="s_524" fill="#5e5b43" d="m130.58599,135.35691l0.549,0.574l-2.2608,0l0.55,-0.574l1.1618,0z"/><path id="s_523" fill="#9a916c" d="m129.42399,134.12691l0,1.23l-0.55,0.573l0,-2.379l0.55,0.576z"/></g><g id="s_514"><path id="s_521" fill="#c3b9af" d="m118.87389,129.93531l-1.2217,0l0,4.0329a2.3534,2.3534 0 0 0 4.702,0.2125q0.0048,-0.1062 0,-0.2125l0,-4.0329l-0.8619,0a1.4133,1.4133 0 0 1 -1.4857,1.5434c-0.8576,-0.1134 -1.0084,-0.4944 -1.1327,-1.5434zm-0.4024,4.0492a1.5353,1.5353 0 1 1 1.5339,1.6079a1.5722,1.5722 0 0 1 -1.5339,-1.6081l0,0.0002z"/><path id="s_520" fill="#666" d="m117.39399,134.73901a2.6111,2.6111 0 1 1 2.6112,2.611l0,0a2.6109,2.6109 0 0 1 -2.6109,-2.6109l0,0"/><path id="s_519" fill="#8c8663" d="m119.42399,134.12691l1.1651,0l0,1.23l-1.1651,0l0,-1.23z"/><path id="s_518" fill="#b8af82" d="m119.42399,134.12691l1.1629,0l0.548,-0.576l-2.261,0l0.5501,0.576z"/><path id="s_517" fill="#80795b" d="m120.58599,134.12691l0.549,-0.576l0,2.378l-0.549,-0.573l0,-1.229z"/><path id="s_516" fill="#5e5b43" d="m120.58599,135.35691l0.549,0.574l-2.2608,0l0.55,-0.574l1.1618,0z"/><path id="s_515" fill="#9a916c" d="m119.42399,134.12691l0,1.23l-0.55,0.573l0,-2.379l0.55,0.576z"/></g><g id="s_506"><path id="s_513" fill="#c3b9af" d="m108.87389,129.93531l-1.2217,0l0,4.0329a2.3534,2.3534 0 0 0 4.702,0.2125q0.0048,-0.1062 0,-0.2125l0,-4.0329l-0.8619,0a1.4133,1.4133 0 0 1 -1.4857,1.5434c-0.8576,-0.1134 -1.0084,-0.4944 -1.1327,-1.5434zm-0.4024,4.0492a1.5353,1.5353 0 1 1 1.5339,1.6079a1.5722,1.5722 0 0 1 -1.5339,-1.6081l0,0.0002z"/><path id="s_512" fill="#666" d="m107.39399,134.73901a2.6111,2.6111 0 1 1 2.6112,2.611l0,0a2.6109,2.6109 0 0 1 -2.6109,-2.6109l0,0"/><path id="s_511" fill="#8c8663" d="m109.42399,134.12691l1.1651,0l0,1.23l-1.1651,0l0,-1.23z"/><path id="s_510" fill="#b8af82" d="m109.42399,134.12691l1.1629,0l0.548,-0.576l-2.261,0l0.5501,0.576z"/><path id="s_509" fill="#80795b" d="m110.58599,134.12691l0.549,-0.576l0,2.378l-0.549,-0.573l0,-1.229z"/><path id="s_508" fill="#5e5b43" d="m110.58599,135.35691l0.549,0.574l-2.2608,0l0.55,-0.574l1.1618,0z"/><path id="s_507" fill="#9a916c" d="m109.42399,134.12691l0,1.23l-0.55,0.573l0,-2.379l0.55,0.576z"/></g><g id="s_499"><path id="s_505" fill="#c3b9af" d="m98.87389,129.93531l-1.2217,0l0,4.0329a2.3534,2.3534 0 0 0 4.702,0.2125q0.0048,-0.1062 0,-0.2125l0,-4.0329l-0.8619,0a1.4133,1.4133 0 0 1 -1.4857,1.5434c-0.8576,-0.1134 -1.0084,-0.4944 -1.1327,-1.5434zm-0.4024,4.0492a1.5353,1.5353 0 1 1 1.5339,1.6079a1.5722,1.5722 0 0 1 -1.5339,-1.6081l0,0.0002z"/><path id="s_504" fill="#666" d="m97.39399,134.73901a2.6111,2.6111 0 1 1 2.6112,2.611l0,0a2.6109,2.6109 0 0 1 -2.6109,-2.6109l0,0"/><path id="s_503" fill="#8c8663" d="m99.42399,134.12691l1.1651,0l0,1.23l-1.1651,0l0,-1.23z"/><path id="s_502" fill="#b8af82" d="m99.42399,134.12691l1.1629,0l0.548,-0.576l-2.261,0l0.5501,0.576z"/><path id="s_501" fill="#80795b" d="m100.58599,134.12691l0.549,-0.576l0,2.378l-0.549,-0.573l0,-1.229z"/><path id="s_500" fill="#5e5b43" d="m100.58599,135.35691l0.549,0.574l-2.2608,0l0.55,-0.574l1.1618,0z"/><path id="s_451" fill="#9a916c" d="m99.42399,134.12691l0,1.23l-0.55,0.573l0,-2.379l0.55,0.576z"/></g><text fill="#ffffff" font-size="7" text-anchor="middle" font-family="serif" stroke="null" id="s_469" y="191.16406" x="89.89844" writing-mode="tb">13</text><text fill="#ffffff" font-size="7" text-anchor="middle" font-family="serif" stroke="null" id="s_468" y="143.25781" x="90.00781" writing-mode="tb">12</text><text fill="#ffffff" font-size="8" text-anchor="middle" font-family="serif" stroke="null" id="s_498" y="187.24782" x="210.11499" writing-mode="tb">RST</text><text fill="#ffffff" font-size="8" text-anchor="middle" font-family="serif" stroke="null" id="s_497" y="185.49782" x="219.89624" writing-mode="tb">GND</text><text fill="#ffffff" font-size="8" text-anchor="middle" font-family="serif" stroke="null" id="s_496" y="187.02126" x="229.67749" writing-mode="tb">VIN</text><text fill="#ffffff" font-size="8" text-anchor="middle" font-family="serif" stroke="null" id="s_495" y="189.24001" x="199.67749" writing-mode="tb">5V</text><text fill="#ffffff" font-size="8" text-anchor="middle" font-family="serif" stroke="null" id="s_494" y="189.91188" x="160.33374" writing-mode="tb">A4</text><text fill="#ffffff" font-size="8" text-anchor="middle" font-family="serif" stroke="null" id="s_493" y="190.13063" x="170.33374" writing-mode="tb">A5</text><text fill="#ffffff" font-size="8" text-anchor="middle" font-family="serif" stroke="null" id="s_492" y="189.91188" x="180.55249" writing-mode="tb">A6</text><text fill="#ffffff" font-size="8" text-anchor="middle" font-family="serif" stroke="null" id="s_491" y="189.24001" x="190.55249" writing-mode="tb">A7</text><text fill="#ffffff" font-size="8" text-anchor="middle" font-family="serif" stroke="null" id="s_490" y="189.91188" x="120.11499" writing-mode="tb">A0</text><text fill="#ffffff" font-size="8" text-anchor="middle" font-family="serif" stroke="null" id="s_489" y="190.80251" x="130.33374" writing-mode="tb">A1</text><text fill="#ffffff" font-size="8" text-anchor="middle" font-family="serif" stroke="null" id="s_488" y="190.13063" x="140.33374" writing-mode="tb">A2</text><text fill="#ffffff" font-size="8" text-anchor="middle" font-family="serif" stroke="null" id="s_487" y="189.91188" x="150.55249" writing-mode="tb">A3</text><text fill="#ffffff" font-size="8" text-anchor="middle" font-family="serif" stroke="null" id="s_486" y="187.59157" x="110.22437" writing-mode="tb">REF</text><text fill="#ffffff" font-size="8" text-anchor="middle" font-family="serif" stroke="null" id="s_485" y="188.11188" x="99.93374" writing-mode="tb">3V3</text><text fill="#ffffff" font-size="8" text-anchor="middle" font-family="serif" stroke="null" id="s_484" y="146.77907" x="210.33374" writing-mode="tb">RST</text><text fill="#ffffff" font-size="8" text-anchor="middle" font-family="serif" stroke="null" id="s_483" y="147.88844" x="200.11499" writing-mode="tb">GND</text><text fill="#ffffff" font-size="8" text-anchor="middle" font-family="serif" stroke="null" id="s_482" y="143.94531" x="190.00781" writing-mode="tb">2</text><text fill="#ffffff" font-size="8" text-anchor="middle" font-family="serif" stroke="null" id="s_481" y="143.94531" x="180.00781" writing-mode="tb">3</text><text fill="#ffffff" font-size="8" text-anchor="middle" font-family="serif" stroke="null" id="s_480" y="143.94531" x="170.00781" writing-mode="tb">4</text><text fill="#ffffff" font-size="8" text-anchor="middle" font-family="serif" stroke="null" id="s_479" y="143.94531" x="160.00781" writing-mode="tb">5</text><text fill="#ffffff" font-size="8" text-anchor="middle" font-family="serif" stroke="null" id="s_478" y="143.94531" x="150.00781" writing-mode="tb">6</text><text fill="#ffffff" font-size="8" text-anchor="middle" font-family="serif" stroke="null" id="s_477" y="143.94531" x="140.00781" writing-mode="tb">7</text><text fill="#ffffff" font-size="8" text-anchor="middle" font-family="serif" stroke="null" id="s_476" y="143.94531" x="130.00781" writing-mode="tb">8</text><text fill="#ffffff" font-size="8" text-anchor="middle" font-family="serif" stroke="null" id="s_475" y="143.94531" x="120.00781" writing-mode="tb">9</text><text fill="#ffffff" font-size="8" text-anchor="middle" font-family="serif" stroke="null" id="s_474" y="143.94531" x="110.00781" writing-mode="tb">10</text><text fill="#ffffff" font-size="8" text-anchor="middle" font-family="serif" stroke="null" id="s_473" y="143.9375" x="100.00781" writing-mode="tb">11</text><text x="230" y="150.25" id="s_467" stroke="null" font-family="serif" text-anchor="middle" font-size="8" fill="#ffffff" writing-mode="tb">1(TX)</text><text x="220.75" y="151" id="s_466" stroke="null" font-family="serif" text-anchor="middle" font-size="8" fill="#ffffff" writing-mode="tb">0(RX)</text><g id="s_471"><path fill="#231f20" id="s_452" d="m168.263,166.5881l0,-7.0649a0.2947,0.2947 0 0 1 0.5893,-0.0109l0,7.0758a0.2947,0.2947 0 1 1 -0.5893,0.011l0,-0.011"/><path fill="#231f20" id="s_453" d="m159.4312,166.5881l0,-7.0649a0.2946,0.2946 0 1 1 0.5892,0l0,7.0649a0.2946,0.2946 0 1 1 -0.5892,0.0011l0,-0.0011"/><path fill="#d0d1d0" id="s_454" d="m160.64,169.8028l0,1.2463c0,0.3523 1.5467,0.6407 3.4371,0.6407s3.4377,-0.2884 3.4377,-0.6407l0,-1.2463l-6.8748,0z"/><path fill="#393536" id="s_455" d="m167.466,169.8061l-6.777,0l0,1.2439c0,0.3512 1.52,0.6371 3.3888,0.6371s3.3882,-0.2859 3.3882,-0.6371l0,-1.2439zm-6.8748,-0.0061l6.9726,0l0,1.25c0,0.3547 -1.5642,0.6436 -3.486,0.6436s-3.4866,-0.2889 -3.4866,-0.6436l0,-1.25z"/><path fill="#b8b9ba" id="s_456" d="m167.5148,169.8026l0,0.7549l-6.8748,0l0,-0.7549l6.8748,0z"/><path fill="#d0d1d0" id="s_457" d="m167.5151,156.2566l0,-1.4424c0,-0.4081 -1.5466,-0.7414 -3.4371,-0.7414s-3.4376,0.3333 -3.4376,0.7414l0,1.4424l6.8747,0z"/><path fill="#393536" id="s_458" d="m160.6891,156.2528l6.777,0l0,-1.4389c0,-0.4067 -1.52,-0.7374 -3.3887,-0.7374s-3.3883,0.3307 -3.3883,0.7374l0,1.4389zm6.8748,0.0075l-6.9726,0l0,-1.4464c0,-0.4106 1.5642,-0.7449 3.4861,-0.7449s3.4865,0.3343 3.4865,0.7449l0,1.4464z"/><path fill="#b8b9ba" id="s_459" d="m160.6406,156.2566l0,-0.8736l6.8747,0l0,0.8736l-6.8747,0z"/><path fill="#e9e8e8" id="s_460" d="m159.971,169.8475l0,-13.59l8.199,0l0,13.59l-8.199,0z"/><path fill="#4f4c4d" id="s_461" d="m168.0482,169.7258l0,-13.3469l-7.9555,0l0,13.3469l7.9555,0zm-8.199,0.2434l0,-13.8338l8.4425,0l0,13.8338l-8.4425,0z"/><path fill="#e9e8e8" id="s_462" d="m162.053,156.8518l0,-0.5912l4.0349,0l0,0.5912l-4.0349,0z"/><path fill="#918f90" id="s_463" d="m166.0275,156.791l0,-0.4705l-3.9141,0l0,0.4705l3.9141,0zm-4.0353,0.1214l0,-0.7124l4.1561,0l0,0.7125l-4.1561,-0.0001z"/><path fill="#e9e8e8" id="s_464" d="m162.053,169.8475l0,-0.5912l4.0349,0l0,0.5912l-4.0349,0z"/><path fill="#918f90" id="s_465" d="m166.0275,169.7871l0,-0.47l-3.9141,0l0,0.47l3.9141,0zm-4.0353,0.1207l0,-0.7125l4.1561,0l0,0.7125l-4.1561,0z"/><path fill="#f7d4a7" id="s_470" d="m164.07,166.077a3.0251,3.0251 0 1 1 3.0835,-3.0245a3.025,3.025 0 0 1 -3.0835,3.0245"/></g><g id="s_267"><rect y="174.54897" x="179.56915" width="9.79324" height="4.93764" fill="#f2f2f2" id="s_268"/><path fill-opacity="0.7" fill="#22b573" d="m183.14233,175.14025c0,0 -0.85964,0.60159 -1.15552,0.54877c-0.29188,-0.05282 -0.72103,0.19065 -0.90096,0l0.02399,-0.54619l2.03248,-0.00258l0.00001,0z" id="s_269"/><rect y="175.83716" x="184.08327" width="1.2808" height="1.10012" fill="#ffffff" id="s_270"/><rect y="175.83716" x="185.29876" width="0.06531" height="1.10012" fill="#b3b3b3" id="s_271"/><polygon points="182.3693389892578,175.68902587890625 181.0858917236328,175.5550537109375 181.0858917236328,176.4967041015625 182.3693389892578,176.36273193359375 " fill="#d1c690" id="s_272"/><path fill="#d1c690" d="m182.28802,175.94279c0.00267,0 0.00533,0 0.01066,0c0.35452,0.04509 0.59575,0.13397 0.797,0.20869c0.27855,0.10306 0.74502,1.00737 1.10354,0.89658c0.03598,-0.01546 0.07997,0.01417 0.08796,0.05539c0.01066,0.04509 -0.01333,0.0876 -0.05198,0.10048c-0.4065,0.12238 -0.89829,-0.79481 -1.19017,-0.90302c-0.19725,-0.07729 -0.42382,-0.15845 -0.76235,-0.19967c-0.03865,-0.00515 -0.0733,-0.04251 -0.06531,-0.0876c0.004,-0.03736 0.03465,-0.07085 0.07064,-0.07085l0.00001,0z" id="s_273"/><polygon points="186.92742919921875,179.40673828125 188.21487426757812,179.5394287109375 188.21487426757812,178.5990447998047 186.92742919921875,178.73171997070312 " fill="#d1c690" id="s_274"/><path fill="#d1c690" d="m184.72433,177.4474c0.03332,0 0.06531,0.02576 0.0733,0.06054c0.08396,0.37615 1.45006,1.484 2.51228,1.484c0.04398,0 0.07597,0.03349 0.07597,0.08116c-0.00267,0.0438 -0.03332,0.08116 -0.07597,0.08116l-0.00267,0c-0.99825,0 -2.52028,-0.99191 -2.65622,-1.6038c-0.01066,-0.04509 0.01599,-0.0876 0.05464,-0.10048c0.00666,-0.00258 0.01199,-0.00258 0.01866,-0.00258l0.00001,0z" id="s_275"/><path fill="#d1c690" d="m184.09793,177.42937c0,0 0.47447,0.00258 0.51045,-0.40063c-0.09329,0 -0.51045,0 -0.51045,0l0,0.40063z" id="s_276"/><path fill="#d1c690" d="m184.67769,177.8403c0,0 -0.21058,-0.39419 -0.07064,-0.45216c0.14261,-0.06183 0.23723,-0.06699 0.31987,0.03607c0.0813,0.10563 -0.24923,0.41609 -0.24923,0.41609z" id="s_277"/><path fill="#9d956c" d="m184.19922,176.97979c-0.35985,0.10821 -0.82499,-0.7961 -1.10354,-0.89916c-0.19325,-0.07729 -0.43982,-0.1636 -0.797,-0.20869l0,0.076c0.35452,0.04509 0.59575,0.13397 0.797,0.20869c0.27855,0.10306 0.74502,1.00737 1.10354,0.89658l0,-0.07343l0,0.00001z" id="s_278"/><polygon points="186.92742919921875,178.6634521484375 188.21487426757812,178.52947998046875 188.21487426757812,178.5990447998047 186.92742919921875,178.73171997070312 " fill="#9d956c" id="s_279"/><path fill="#9d956c" d="m184.8003,177.4371c0.08263,0.37486 1.42607,1.56129 2.51228,1.48013l0,0.07729c-1.16885,0.07729 -2.43365,-1.10784 -2.51495,-1.484l0.00267,-0.07343l0,0.00001z" id="s_280"/><path fill="#9d956c" d="m184.60838,176.9566c-0.09329,0 -0.50779,0 -0.50779,0l0,0.07343c0,0 0.41449,0 0.50779,0l0,-0.07343z" id="s_281"/><path fill="#9d956c" d="m184.92825,177.35723c-0.08396,-0.10306 -0.17459,-0.0979 -0.3172,-0.03993l-0.00267,0.07729c0.14261,-0.06312 0.23857,-0.06699 0.31987,0.03607l0,-0.07343z" id="s_282"/><rect y="177.12535" x="182.4013" width="5.62832" opacity="0.5" height="0.0657" fill="#ffffff" id="s_283"/><path opacity="0.55" fill="#ffffff" d="m188.12425,177.95108l0,0.3491c-0.02399,0.19452 0.01599,0.3491 -0.13061,0.3491c-0.81433,0 -6.26805,0 -6.4693,0c-0.22391,0 -0.23457,-0.08373 0.01599,-0.08373c0.17459,0 5.1885,0 5.79225,0c0.60908,0 0.69038,-0.13526 0.69038,-0.25377l-0.00267,-0.35039c0.00133,-0.23316 0.10396,-0.23316 0.10396,-0.01031z" id="s_284"/><path opacity="0.03" d="m181.2911,175.42881c0,-0.0876 -0.01599,-0.17777 0.13061,-0.17777c0.81433,0 6.22007,0 6.41999,0c0.22391,0 0.23457,0.08373 -0.01066,0.08373c-0.17992,0 -4.18225,0.00258 -4.78334,0.00258c-0.793,0.00129 -1.7566,0.09146 -1.7566,0.09146z" id="s_285"/><path fill="#d1c690" d="m189.46902,174.62497l-1.02757,0l0,0.67115c0,0.16102 -0.10662,0.27438 -0.25056,0.34524l0,3.92512l1.3461,0l0,-4.87452l0,-0.06441" id="s_286"/><path fill="#d1c690" d="m179.67711,174.62497l0,0.06312l0,4.87452l1.42874,0l0,-4.4623c-0.13994,-0.07214 -0.25456,-0.18808 -0.25456,-0.3491l0,-0.12882l-1.1062,0" id="s_287"/></g><g id="s_430"><rect y="147.73078" x="179.20551" width="9.79324" height="4.93764" fill="#f2f2f2" id="s_450"/><path fill-opacity="0.7" fill="#22b573" d="m182.77869,148.32206c0,0 -0.85964,0.60159 -1.15552,0.54877c-0.29188,-0.05282 -0.72103,0.19065 -0.90096,0l0.02399,-0.54619l2.03248,-0.00258l0.00001,0z" id="s_449"/><rect y="149.01897" x="183.71963" width="1.2808" height="1.10012" fill="#ffffff" id="s_448"/><rect y="149.01897" x="184.93512" width="0.06531" height="1.10012" fill="#b3b3b3" id="s_447"/><polygon points="182.0056915283203,148.870849609375 180.7222442626953,148.73687744140625 180.7222442626953,149.67852783203125 182.0056915283203,149.5445556640625 " fill="#d1c690" id="s_446"/><path fill="#d1c690" d="m181.92438,149.1246c0.00267,0 0.00533,0 0.01066,0c0.35452,0.04509 0.59575,0.13397 0.797,0.20869c0.27855,0.10306 0.74502,1.00737 1.10354,0.89658c0.03598,-0.01546 0.07997,0.01417 0.08796,0.05539c0.01066,0.04509 -0.01333,0.0876 -0.05198,0.10048c-0.4065,0.12238 -0.89829,-0.79481 -1.19017,-0.90302c-0.19725,-0.07729 -0.42382,-0.15845 -0.76235,-0.19967c-0.03865,-0.00515 -0.0733,-0.04251 -0.06531,-0.0876c0.004,-0.03736 0.03465,-0.07085 0.07064,-0.07085l0.00001,0z" id="s_445"/><polygon points="186.5637969970703,152.58856201171875 187.8512420654297,152.7212371826172 187.8512420654297,151.78085327148438 186.5637969970703,151.91354370117188 " fill="#d1c690" id="s_444"/><path fill="#d1c690" d="m184.36069,150.62921c0.03332,0 0.06531,0.02576 0.0733,0.06054c0.08396,0.37615 1.45006,1.484 2.51228,1.484c0.04398,0 0.07597,0.03349 0.07597,0.08116c-0.00267,0.0438 -0.03332,0.08116 -0.07597,0.08116l-0.00267,0c-0.99825,0 -2.52028,-0.99191 -2.65622,-1.6038c-0.01066,-0.04509 0.01599,-0.0876 0.05464,-0.10048c0.00666,-0.00258 0.01199,-0.00258 0.01866,-0.00258l0.00001,0z" id="s_443"/><path fill="#d1c690" d="m183.73429,150.61118c0,0 0.47447,0.00258 0.51045,-0.40063c-0.09329,0 -0.51045,0 -0.51045,0l0,0.40063z" id="s_442"/><path fill="#d1c690" d="m184.31405,151.02211c0,0 -0.21058,-0.39419 -0.07064,-0.45216c0.14261,-0.06183 0.23723,-0.06699 0.31987,0.03607c0.0813,0.10563 -0.24923,0.41609 -0.24923,0.41609z" id="s_441"/><path fill="#9d956c" d="m183.83558,150.1616c-0.35985,0.10821 -0.82499,-0.7961 -1.10354,-0.89916c-0.19325,-0.07729 -0.43982,-0.1636 -0.797,-0.20869l0,0.076c0.35452,0.04509 0.59575,0.13397 0.797,0.20869c0.27855,0.10306 0.74502,1.00737 1.10354,0.89658l0,-0.07343l0,0.00001z" id="s_440"/><polygon points="186.5637969970703,151.84527587890625 187.8512420654297,151.71128845214844 187.8512420654297,151.78085327148438 186.5637969970703,151.91354370117188 " fill="#9d956c" id="s_439"/><path fill="#9d956c" d="m184.43666,150.61891c0.08263,0.37486 1.42607,1.56129 2.51228,1.48013l0,0.07729c-1.16885,0.07729 -2.43365,-1.10784 -2.51495,-1.484l0.00267,-0.07343l0,0.00001z" id="s_438"/><path fill="#9d956c" d="m184.24474,150.13841c-0.09329,0 -0.50779,0 -0.50779,0l0,0.07343c0,0 0.41449,0 0.50779,0l0,-0.07343z" id="s_437"/><path fill="#9d956c" d="m184.56461,150.53904c-0.08396,-0.10306 -0.17459,-0.0979 -0.3172,-0.03993l-0.00267,0.07729c0.14261,-0.06312 0.23857,-0.06699 0.31987,0.03607l0,-0.07343z" id="s_436"/><rect y="150.30716" x="182.03766" width="5.62832" opacity="0.5" height="0.0657" fill="#ffffff" id="s_435"/><path opacity="0.55" fill="#ffffff" d="m187.76061,151.13289l0,0.3491c-0.02399,0.19452 0.01599,0.3491 -0.13061,0.3491c-0.81433,0 -6.26805,0 -6.4693,0c-0.22391,0 -0.23457,-0.08373 0.01599,-0.08373c0.17459,0 5.1885,0 5.79225,0c0.60908,0 0.69038,-0.13526 0.69038,-0.25377l-0.00267,-0.35039c0.00133,-0.23316 0.10396,-0.23316 0.10396,-0.01031z" id="s_434"/><path opacity="0.03" d="m180.92746,148.61062c0,-0.0876 -0.01599,-0.17777 0.13061,-0.17777c0.81433,0 6.22007,0 6.41999,0c0.22391,0 0.23457,0.08373 -0.01066,0.08373c-0.17992,0 -4.18225,0.00258 -4.78334,0.00258c-0.793,0.00129 -1.7566,0.09146 -1.7566,0.09146z" id="s_433"/><path fill="#d1c690" d="m189.10538,147.80678l-1.02757,0l0,0.67115c0,0.16102 -0.10662,0.27438 -0.25056,0.34524l0,3.92512l1.3461,0l0,-4.87452l0,-0.06441" id="s_432"/><path fill="#d1c690" d="m179.31347,147.80678l0,0.06312l0,4.87452l1.42874,0l0,-4.4623c-0.13994,-0.07214 -0.25456,-0.18808 -0.25456,-0.3491l0,-0.12882l-1.1062,0" id="s_431"/></g><g id="s_409"><rect y="156.73078" x="179.38733" width="9.79324" height="4.93764" fill="#f2f2f2" id="s_429"/><path fill-opacity="0.7" fill="#22b573" d="m182.96051,157.32206c0,0 -0.85964,0.60159 -1.15552,0.54877c-0.29188,-0.05282 -0.72103,0.19065 -0.90096,0l0.02399,-0.54619l2.03248,-0.00258l0.00001,0z" id="s_428"/><rect y="158.01897" x="183.90145" width="1.2808" height="1.10012" fill="#ffffff" id="s_427"/><rect y="158.01897" x="185.11694" width="0.06531" height="1.10012" fill="#b3b3b3" id="s_426"/><polygon points="182.1875,157.870849609375 180.90406799316406,157.73687744140625 180.90406799316406,158.67852783203125 182.1875,158.5445556640625 " fill="#d1c690" id="s_425"/><path fill="#d1c690" d="m182.1062,158.1246c0.00267,0 0.00533,0 0.01066,0c0.35452,0.04509 0.59575,0.13397 0.797,0.20869c0.27855,0.10306 0.74502,1.00737 1.10354,0.89658c0.03598,-0.01546 0.07997,0.01417 0.08796,0.05539c0.01066,0.04509 -0.01333,0.0876 -0.05198,0.10048c-0.4065,0.12238 -0.89829,-0.79481 -1.19017,-0.90302c-0.19725,-0.07729 -0.42382,-0.15845 -0.76235,-0.19967c-0.03865,-0.00515 -0.0733,-0.04251 -0.06531,-0.0876c0.004,-0.03736 0.03465,-0.07085 0.07064,-0.07085l0.00001,0z" id="s_424"/><polygon points="186.74560546875,161.58856201171875 188.03305053710938,161.7212371826172 188.03305053710938,160.78085327148438 186.74560546875,160.91354370117188 " fill="#d1c690" id="s_423"/><path fill="#d1c690" d="m184.54251,159.62921c0.03332,0 0.06531,0.02576 0.0733,0.06054c0.08396,0.37615 1.45006,1.484 2.51228,1.484c0.04398,0 0.07597,0.03349 0.07597,0.08116c-0.00267,0.0438 -0.03332,0.08116 -0.07597,0.08116l-0.00267,0c-0.99825,0 -2.52028,-0.99191 -2.65622,-1.6038c-0.01066,-0.04509 0.01599,-0.0876 0.05464,-0.10048c0.00666,-0.00258 0.01199,-0.00258 0.01866,-0.00258l0.00001,0z" id="s_422"/><path fill="#d1c690" d="m183.91611,159.61118c0,0 0.47447,0.00258 0.51045,-0.40063c-0.09329,0 -0.51045,0 -0.51045,0l0,0.40063z" id="s_421"/><path fill="#d1c690" d="m184.49587,160.02211c0,0 -0.21058,-0.39419 -0.07064,-0.45216c0.14261,-0.06183 0.23723,-0.06699 0.31987,0.03607c0.0813,0.10563 -0.24923,0.41609 -0.24923,0.41609z" id="s_420"/><path fill="#9d956c" d="m184.0174,159.1616c-0.35985,0.10821 -0.82499,-0.7961 -1.10354,-0.89916c-0.19325,-0.07729 -0.43982,-0.1636 -0.797,-0.20869l0,0.076c0.35452,0.04509 0.59575,0.13397 0.797,0.20869c0.27855,0.10306 0.74502,1.00737 1.10354,0.89658l0,-0.07343l0,0.00001z" id="s_419"/><polygon points="186.74560546875,160.84527587890625 188.03305053710938,160.71128845214844 188.03305053710938,160.78085327148438 186.74560546875,160.91354370117188 " fill="#9d956c" id="s_418"/><path fill="#9d956c" d="m184.61848,159.61891c0.08263,0.37486 1.42607,1.56129 2.51228,1.48013l0,0.07729c-1.16885,0.07729 -2.43365,-1.10784 -2.51495,-1.484l0.00267,-0.07343l0,0.00001z" id="s_417"/><path fill="#9d956c" d="m184.42656,159.13841c-0.09329,0 -0.50779,0 -0.50779,0l0,0.07343c0,0 0.41449,0 0.50779,0l0,-0.07343z" id="s_416"/><path fill="#9d956c" d="m184.74643,159.53904c-0.08396,-0.10306 -0.17459,-0.0979 -0.3172,-0.03993l-0.00267,0.07729c0.14261,-0.06312 0.23857,-0.06699 0.31987,0.03607l0,-0.07343z" id="s_415"/><rect y="159.30716" x="182.21948" width="5.62832" opacity="0.5" height="0.0657" fill="#ffffff" id="s_414"/><path opacity="0.55" fill="#ffffff" d="m187.94243,160.13289l0,0.3491c-0.02399,0.19452 0.01599,0.3491 -0.13061,0.3491c-0.81433,0 -6.26805,0 -6.4693,0c-0.22391,0 -0.23457,-0.08373 0.01599,-0.08373c0.17459,0 5.1885,0 5.79225,0c0.60908,0 0.69038,-0.13526 0.69038,-0.25377l-0.00267,-0.35039c0.00133,-0.23316 0.10396,-0.23316 0.10396,-0.01031z" id="s_413"/><path opacity="0.03" d="m181.10928,157.61062c0,-0.0876 -0.01599,-0.17777 0.13061,-0.17777c0.81433,0 6.22007,0 6.41999,0c0.22391,0 0.23457,0.08373 -0.01066,0.08373c-0.17992,0 -4.18225,0.00258 -4.78334,0.00258c-0.793,0.00129 -1.7566,0.09146 -1.7566,0.09146z" id="s_412"/><path fill="#d1c690" d="m189.2872,156.80678l-1.02757,0l0,0.67115c0,0.16102 -0.10662,0.27438 -0.25056,0.34524l0,3.92512l1.3461,0l0,-4.87452l0,-0.06441" id="s_411"/><path fill="#d1c690" d="m179.49529,156.80678l0,0.06312l0,4.87452l1.42874,0l0,-4.4623c-0.13994,-0.07214 -0.25456,-0.18808 -0.25456,-0.3491l0,-0.12882l-1.1062,0" id="s_410"/></g><g id="s_388"><rect y="165.82169" x="179.20551" width="9.79324" height="4.93764" fill="#f2f2f2" id="s_408"/><path fill-opacity="0.7" fill="#22b573" d="m182.77869,166.41297c0,0 -0.85964,0.60159 -1.15552,0.54877c-0.29188,-0.05282 -0.72103,0.19065 -0.90096,0l0.02399,-0.54619l2.03248,-0.00258l0.00001,0z" id="s_407"/><rect y="167.10988" x="183.71963" width="1.2808" height="1.10012" fill="#ffffff" id="s_406"/><rect y="167.10988" x="184.93512" width="0.06531" height="1.10012" fill="#b3b3b3" id="s_405"/><polygon points="182.0056915283203,166.96176147460938 180.7222442626953,166.82777404785156 180.7222442626953,167.76943969726562 182.0056915283203,167.63546752929688 " fill="#d1c690" id="s_404"/><path fill="#d1c690" d="m181.92438,167.21551c0.00267,0 0.00533,0 0.01066,0c0.35452,0.04509 0.59575,0.13397 0.797,0.20869c0.27855,0.10306 0.74502,1.00737 1.10354,0.89658c0.03598,-0.01546 0.07997,0.01417 0.08796,0.05539c0.01066,0.04509 -0.01333,0.0876 -0.05198,0.10048c-0.4065,0.12238 -0.89829,-0.79481 -1.19017,-0.90302c-0.19725,-0.07729 -0.42382,-0.15845 -0.76235,-0.19967c-0.03865,-0.00515 -0.0733,-0.04251 -0.06531,-0.0876c0.004,-0.03736 0.03465,-0.07085 0.07064,-0.07085l0.00001,0z" id="s_403"/><polygon points="186.5637969970703,170.67947387695312 187.8512420654297,170.81214904785156 187.8512420654297,169.87176513671875 186.5637969970703,170.00445556640625 " fill="#d1c690" id="s_402"/><path fill="#d1c690" d="m184.36069,168.72012c0.03332,0 0.06531,0.02576 0.0733,0.06054c0.08396,0.37615 1.45006,1.484 2.51228,1.484c0.04398,0 0.07597,0.03349 0.07597,0.08116c-0.00267,0.0438 -0.03332,0.08116 -0.07597,0.08116l-0.00267,0c-0.99825,0 -2.52028,-0.99191 -2.65622,-1.6038c-0.01066,-0.04509 0.01599,-0.0876 0.05464,-0.10048c0.00666,-0.00258 0.01199,-0.00258 0.01866,-0.00258l0.00001,0z" id="s_401"/><path fill="#d1c690" d="m183.73429,168.70209c0,0 0.47447,0.00258 0.51045,-0.40063c-0.09329,0 -0.51045,0 -0.51045,0l0,0.40063z" id="s_400"/><path fill="#d1c690" d="m184.31405,169.11302c0,0 -0.21058,-0.39419 -0.07064,-0.45216c0.14261,-0.06183 0.23723,-0.06699 0.31987,0.03607c0.0813,0.10563 -0.24923,0.41609 -0.24923,0.41609z" id="s_399"/><path fill="#9d956c" d="m183.83558,168.25251c-0.35985,0.10821 -0.82499,-0.7961 -1.10354,-0.89916c-0.19325,-0.07729 -0.43982,-0.1636 -0.797,-0.20869l0,0.076c0.35452,0.04509 0.59575,0.13397 0.797,0.20869c0.27855,0.10306 0.74502,1.00737 1.10354,0.89658l0,-0.07343l0,0.00001z" id="s_398"/><polygon points="186.5637969970703,169.93618774414062 187.8512420654297,169.8022003173828 187.8512420654297,169.87176513671875 186.5637969970703,170.00445556640625 " fill="#9d956c" id="s_397"/><path fill="#9d956c" d="m184.43666,168.70982c0.08263,0.37486 1.42607,1.56129 2.51228,1.48013l0,0.07729c-1.16885,0.07729 -2.43365,-1.10784 -2.51495,-1.484l0.00267,-0.07343l0,0.00001z" id="s_396"/><path fill="#9d956c" d="m184.24474,168.22932c-0.09329,0 -0.50779,0 -0.50779,0l0,0.07343c0,0 0.41449,0 0.50779,0l0,-0.07343z" id="s_395"/><path fill="#9d956c" d="m184.56461,168.62995c-0.08396,-0.10306 -0.17459,-0.0979 -0.3172,-0.03993l-0.00267,0.07729c0.14261,-0.06312 0.23857,-0.06699 0.31987,0.03607l0,-0.07343z" id="s_394"/><rect y="168.39807" x="182.03766" width="5.62832" opacity="0.5" height="0.0657" fill="#ffffff" id="s_393"/><path opacity="0.55" fill="#ffffff" d="m187.76061,169.2238l0,0.3491c-0.02399,0.19452 0.01599,0.3491 -0.13061,0.3491c-0.81433,0 -6.26805,0 -6.4693,0c-0.22391,0 -0.23457,-0.08373 0.01599,-0.08373c0.17459,0 5.1885,0 5.79225,0c0.60908,0 0.69038,-0.13526 0.69038,-0.25377l-0.00267,-0.35039c0.00133,-0.23316 0.10396,-0.23316 0.10396,-0.01031z" id="s_392"/><path opacity="0.03" d="m180.92746,166.70153c0,-0.0876 -0.01599,-0.17777 0.13061,-0.17777c0.81433,0 6.22007,0 6.41999,0c0.22391,0 0.23457,0.08373 -0.01066,0.08373c-0.17992,0 -4.18225,0.00258 -4.78334,0.00258c-0.793,0.00129 -1.7566,0.09146 -1.7566,0.09146z" id="s_391"/><path fill="#d1c690" d="m189.10538,165.89769l-1.02757,0l0,0.67115c0,0.16102 -0.10662,0.27438 -0.25056,0.34524l0,3.92512l1.3461,0l0,-4.87452l0,-0.06441" id="s_390"/><path fill="#d1c690" d="m179.31347,165.89769l0,0.06312l0,4.87452l1.42874,0l0,-4.4623c-0.13994,-0.07214 -0.25456,-0.18808 -0.25456,-0.3491l0,-0.12882l-1.1062,0" id="s_389"/></g><polygon fill="#191919" id="s_387" points="144.74452209472656,163.8348388671875 130.9477996826172,177.84075927734375 117.15106964111328,163.8348388671875 130.9477996826172,149.82891845703125 144.74452209472656,163.8348388671875 " stroke="#000000"/><text x="210" y="169" id="s_386" stroke="null" font-family="serif" text-anchor="middle" font-size="10" fill="#ffffff">Nano</text></g></g><g id="s_818"><path fill="#033d62" d="m80,300l0,110l20,0l7,-10l56,0l7,10l20,0l0,-110l-110,0z" id="s_867"/><g id="s_864"><circle cx="180" cy="400" fill="#a7a7a7" r="6" id="s_866"/><circle cx="180" cy="400" fill="#ffffff" r="4" id="s_865"/></g><g id="s_861"><circle id="s_863" cx="90" cy="400" fill="#a7a7a7" r="6"/><circle id="s_862" cx="90" cy="400" fill="#ffffff" r="4"/></g><g id="s_858"><circle id="s_860" cx="180" cy="400" fill="#a7a7a7" r="6"/><circle id="s_859" cx="180" cy="400" fill="#ffffff" r="4"/></g><g id="s_855"><circle id="s_857" cx="90" cy="310" fill="#a7a7a7" r="6"/><circle id="s_856" cx="90" cy="310" fill="#ffffff" r="4"/></g><g id="s_852"><circle id="s_854" cx="180" cy="310" fill="#a7a7a7" r="6"/><circle id="s_853" cx="180" cy="310" fill="#ffffff" r="4"/></g><g id="s_825"><rect id="s_851" height="20" width="60" y="300" x="110" fill="none"/><rect id="s_850" y="304.96667" x="114.9" width="40" height="10" fill="#404040"/><g id="s_844"><rect y="308.3" x="118.2" width="3.6" height="3.6" fill="black" id="s_849"/><polygon points="116.70001220703125,306.79998779296875 118.20001220703125,308.3000183105469 121.70001220703125,308.3000183105469 123.20001220703125,306.79998779296875 " fill="#2a2a29" id="s_848"/><polygon points="123.20001220703125,313.29998779296875 121.70001220703125,311.79998779296875 118.20001220703125,311.79998779296875 116.70001220703125,313.29998779296875 " fill="#595959" id="s_847"/><polygon points="116.70001220703125,313.29998779296875 118.20001220703125,311.79998779296875 118.20001220703125,308.3000183105469 116.70001220703125,306.79998779296875 " fill="#373737" id="s_846"/><polygon points="123.20001220703125,306.79998779296875 121.70001220703125,308.3000183105469 121.70001220703125,311.79998779296875 123.20001220703125,313.29998779296875 " fill="#474747" id="s_845"/></g><g id="s_838"><rect y="308.3" x="148.2" width="3.6" height="3.6" fill="black" id="s_843"/><polygon points="146.69998168945312,306.79998779296875 148.20001220703125,308.3000183105469 151.70001220703125,308.3000183105469 153.20001220703125,306.79998779296875 " fill="#2a2a29" id="s_842"/><polygon points="153.20001220703125,313.29998779296875 151.70001220703125,311.79998779296875 148.20001220703125,311.79998779296875 146.69998168945312,313.29998779296875 " fill="#595959" id="s_841"/><polygon points="146.69998168945312,313.29998779296875 148.20001220703125,311.79998779296875 148.20001220703125,308.3000183105469 146.69998168945312,306.79998779296875 " fill="#373737" id="s_840"/><polygon points="153.20001220703125,306.79998779296875 151.70001220703125,308.3000183105469 151.70001220703125,311.79998779296875 153.20001220703125,313.29998779296875 " fill="#474747" id="s_839"/></g><g id="s_832"><rect y="308.3" x="138.2" width="3.6" height="3.6" fill="black" id="s_837"/><polygon points="136.69998168945312,306.79998779296875 138.20001220703125,308.3000183105469 141.70001220703125,308.3000183105469 143.20001220703125,306.79998779296875 " fill="#2a2a29" id="s_836"/><polygon points="143.20001220703125,313.29998779296875 141.70001220703125,311.79998779296875 138.20001220703125,311.79998779296875 136.69998168945312,313.29998779296875 " fill="#595959" id="s_835"/><polygon points="136.69998168945312,313.29998779296875 138.20001220703125,311.79998779296875 138.20001220703125,308.3000183105469 136.69998168945312,306.79998779296875 " fill="#373737" id="s_834"/><polygon points="143.20001220703125,306.79998779296875 141.70001220703125,308.3000183105469 141.70001220703125,311.79998779296875 143.20001220703125,313.29998779296875 " fill="#474747" id="s_833"/></g><g id="s_826"><rect y="308.3" x="128.2" width="3.6" height="3.6" fill="black" id="s_831"/><polygon points="126.69998168945312,306.79998779296875 128.20001220703125,308.3000183105469 131.70001220703125,308.3000183105469 133.20001220703125,306.79998779296875 " fill="#2a2a29" id="s_830"/><polygon points="133.20001220703125,313.29998779296875 131.70001220703125,311.79998779296875 128.20001220703125,311.79998779296875 126.69998168945312,313.29998779296875 " fill="#595959" id="s_829"/><polygon points="126.69998168945312,313.29998779296875 128.20001220703125,311.79998779296875 128.20001220703125,308.3000183105469 126.69998168945312,306.79998779296875 " fill="#373737" id="s_828"/><polygon points="133.20001220703125,306.79998779296875 131.70001220703125,308.3000183105469 131.70001220703125,311.79998779296875 133.20001220703125,313.29998779296875 " fill="#474747" id="s_827"/></g></g><rect id="s_823" height="20" width="50" y="382" x="110" fill="#000000"/><rect id="s_822" height="15.2" width="1.2" y="386.9" x="109.1" fill="#ffaa56"/><rect id="Re9" height="15.2" width="1.2" y="386.9" x="159.1" fill="#ffaa56"/><text x="135.625" y="320.75" id="s_821" stroke="null" font-family="serif" text-anchor="middle" font-size="7" fill="#ffffff">VCC GND SCL SDA</text><rect fill="#000000" x="80" y="322" width="110" height="70" id="s_820"/><rect id="s_819" height="65" width="106" y="325" x="82" fill="#010415"/></g><g id="s_869"><rect fill="#033d62" x="210" y="300" width="70" height="90" id="s_908"/><g id="s_905"><circle r="6" fill="#a7a7a7" cy="380" cx="230" id="s_907"/><circle r="4" fill="#ffffff" cy="380" cx="230" id="s_906"/></g><g id="s_902"><circle r="6" fill="#a7a7a7" cy="380" cx="260" id="s_904"/><circle r="4" fill="#ffffff" cy="380" cx="260" id="s_903"/></g><g id="s_875"><rect fill="none" x="220" y="300" width="60" height="20" id="s_901"/><rect fill="#404040" height="10" width="40" x="224" y="306" id="s_900"/><g id="s_894"><rect id="s_899" fill="black" height="3.6" width="3.6" x="228" y="308.4"/><polygon id="s_898" fill="#2a2a29" points="226.70001220703125,313.20001220703125 228.20001220703125,311.6999816894531 231.70001220703125,311.6999816894531 233.20001220703125,313.20001220703125 "/><polygon id="s_897" fill="#595959" points="233.20001220703125,306.70001220703125 231.70001220703125,308.20001220703125 228.20001220703125,308.20001220703125 226.70001220703125,306.70001220703125 "/><polygon id="s_896" fill="#373737" points="226.70001220703125,306.70001220703125 228.20001220703125,308.20001220703125 228.20001220703125,311.6999816894531 226.70001220703125,313.20001220703125 "/><polygon id="s_895" fill="#474747" points="233.20001220703125,313.20001220703125 231.70001220703125,311.6999816894531 231.70001220703125,308.20001220703125 233.20001220703125,306.70001220703125 "/></g><g id="s_888"><rect id="s_893" fill="black" height="3.6" width="3.6" x="258" y="308.4"/><polygon id="s_892" fill="#2a2a29" points="256.699951171875,313.20001220703125 258.20001220703125,311.6999816894531 261.70001220703125,311.6999816894531 263.20001220703125,313.20001220703125 "/><polygon id="s_891" fill="#595959" points="263.20001220703125,306.70001220703125 261.70001220703125,308.20001220703125 258.20001220703125,308.20001220703125 256.699951171875,306.70001220703125 "/><polygon id="s_890" fill="#373737" points="256.699951171875,306.70001220703125 258.20001220703125,308.20001220703125 258.20001220703125,311.6999816894531 256.699951171875,313.20001220703125 "/><polygon id="s_889" fill="#474747" points="263.20001220703125,313.20001220703125 261.70001220703125,311.6999816894531 261.70001220703125,308.20001220703125 263.20001220703125,306.70001220703125 "/></g><g id="s_882"><rect id="s_887" fill="black" height="3.6" width="3.6" x="248" y="308.4"/><polygon id="s_886" fill="#2a2a29" points="246.699951171875,313.20001220703125 248.20001220703125,311.6999816894531 251.70001220703125,311.6999816894531 253.20001220703125,313.20001220703125 "/><polygon id="s_885" fill="#595959" points="253.20001220703125,306.70001220703125 251.70001220703125,308.20001220703125 248.20001220703125,308.20001220703125 246.699951171875,306.70001220703125 "/><polygon id="s_884" fill="#373737" points="246.699951171875,306.70001220703125 248.20001220703125,308.20001220703125 248.20001220703125,311.6999816894531 246.699951171875,313.20001220703125 "/><polygon id="s_883" fill="#474747" points="253.20001220703125,313.20001220703125 251.70001220703125,311.6999816894531 251.70001220703125,308.20001220703125 253.20001220703125,306.70001220703125 "/></g><g id="s_876"><rect id="s_881" fill="black" height="3.6" width="3.6" x="238" y="308.4"/><polygon id="s_880" fill="#2a2a29" points="236.699951171875,313.20001220703125 238.20001220703125,311.6999816894531 241.70001220703125,311.6999816894531 243.20001220703125,313.20001220703125 "/><polygon id="s_879" fill="#595959" points="243.20001220703125,306.70001220703125 241.70001220703125,308.20001220703125 238.20001220703125,308.20001220703125 236.699951171875,306.70001220703125 "/><polygon id="s_878" fill="#373737" points="236.699951171875,306.70001220703125 238.20001220703125,308.20001220703125 238.20001220703125,311.6999816894531 236.699951171875,313.20001220703125 "/><polygon id="s_877" fill="#474747" points="243.20001220703125,313.20001220703125 241.70001220703125,311.6999816894531 241.70001220703125,308.20001220703125 243.20001220703125,306.70001220703125 "/></g></g><text fill="#ffffff" font-size="7" text-anchor="middle" font-family="serif" stroke="null" id="s_873" y="322.75" x="245.625">VCC GND SCL SDA</text><circle cx="245" cy="350" fill="#cccccc" stroke="#000000" r="20" id="s_872"/><circle cx="245" cy="350" fill="none" stroke="#7f7f7f" stroke-width="2" r="15" id="s_871"/><circle cx="245" cy="350" fill="#191919" stroke="#7f7f7f" stroke-width="2" r="10" id="s_870"/></g><g id="s_910"><path id="s_1021" fill="#033d62" d="m479.68615,198.66891l-139.63989,0l0,-67.13773l139.63989,0l0,67.13773z"/><g id="s_1005"><path id="s_1020" fill="#231f20" d="m389.90959,141.1134l7.0649,0a0.2947,0.2947 0 0 1 0.0109,0.5893l-7.0758,0a0.2947,0.2947 0 1 1 -0.011,-0.5893l0.011,0"/><path id="s_1019" fill="#231f20" d="m389.90959,132.2816l7.0649,0a0.2946,0.2946 0 1 1 0,0.5892l-7.0649,0a0.2946,0.2946 0 1 1 -0.0011,-0.5892l0.0011,0"/><path id="s_1018" fill="#d0d1d0" d="m386.69489,133.4904l-1.2463,0c-0.3523,0 -0.6407,1.5467 -0.6407,3.4371s0.2884,3.4377 0.6407,3.4377l1.2463,0l0,-6.8748z"/><path id="s_1017" fill="#393536" d="m386.69159,140.3164l0,-6.777l-1.2439,0c-0.3512,0 -0.6371,1.52 -0.6371,3.3888s0.2859,3.3882 0.6371,3.3882l1.2439,0zm0.0061,-6.8748l0,6.9726l-1.25,0c-0.3547,0 -0.6436,-1.5642 -0.6436,-3.486s0.2889,-3.4866 0.6436,-3.4866l1.25,0z"/><path id="s_1016" fill="#b8b9ba" d="m386.69509,140.3652l-0.7549,0l0,-6.8748l0.7549,0l0,6.8748z"/><path id="s_1015" fill="#d0d1d0" d="m400.24109,140.3655l1.4424,0c0.4081,0 0.7414,-1.5466 0.7414,-3.4371s-0.3333,-3.4376 -0.7414,-3.4376l-1.4424,0l0,6.8747z"/><path id="s_1014" fill="#393536" d="m400.24489,133.5395l0,6.777l1.4389,0c0.4067,0 0.7374,-1.52 0.7374,-3.3887s-0.3307,-3.3883 -0.7374,-3.3883l-1.4389,0zm-0.0075,6.8748l0,-6.9726l1.4464,0c0.4106,0 0.7449,1.5642 0.7449,3.4861s-0.3343,3.4865 -0.7449,3.4865l-1.4464,0z"/><path id="s_1013" fill="#b8b9ba" d="m400.24109,133.491l0.8736,0l0,6.8747l-0.8736,0l0,-6.8747z"/><path id="s_1012" fill="#e9e8e8" d="m386.65019,132.8214l13.59,0l0,8.199l-13.59,0l0,-8.199z"/><path id="s_1011" fill="#4f4c4d" d="m386.77189,140.8986l13.3469,0l0,-7.9555l-13.3469,0l0,7.9555zm-0.2434,-8.199l13.8338,0l0,8.4425l-13.8338,0l0,-8.4425z"/><path id="s_1010" fill="#e9e8e8" d="m399.64589,134.9034l0.5912,0l0,4.0349l-0.5912,0l0,-4.0349z"/><path id="s_1009" fill="#918f90" d="m399.70669,138.8779l0.4705,0l0,-3.9141l-0.4705,0l0,3.9141zm-0.1214,-4.0353l0.7124,0l0,4.1561l-0.7125,0l0.0001,-4.1561z"/><path id="s_1008" fill="#e9e8e8" d="m386.65019,134.9034l0.5912,0l0,4.0349l-0.5912,0l0,-4.0349z"/><path id="s_1007" fill="#918f90" d="m386.71059,138.8779l0.47,0l0,-3.9141l-0.47,0l0,3.9141zm-0.1207,-4.0353l0.7125,0l0,4.1561l-0.7125,0l0,-4.1561z"/><path id="s_1006" fill="#000" d="m390.42069,136.9204a3.0251,3.0251 0 1 1 3.0245,3.0835a3.025,3.025 0 0 1 -3.0245,-3.0835"/></g><g id="s_983"><rect y="187.40686" x="368" width="4.93764" id="s_1003" height="9.79324" fill="#f2f2f2"/><path id="s_1002" fill-opacity="0.7" fill="#22b573" d="m372.37051,190.10562c0,0 -0.60159,-0.85964 -0.54877,-1.15552c0.05282,-0.29188 -0.19065,-0.72103 0,-0.90096l0.54619,0.02399l0.00258,2.03248l0,0.00001z"/><rect y="191.9193" x="370" width="1.10012" id="s_1001" height="1.2808" fill="#ffffff"/><rect y="193.13479" x="370" width="1.10012" id="s_1000" height="0.06531" fill="#b3b3b3"/><polygon points="371.82177734375,189.33261108398438 371.95574951171875,188.04916381835938 371.0140380859375,188.04916381835938 371.14801025390625,189.33261108398438 " id="s_999" fill="#d1c690"/><path id="s_998" fill="#d1c690" d="m371.56797,189.25131c0,0.00267 0,0.00533 0,0.01066c-0.04509,0.35452 -0.13397,0.59575 -0.20869,0.797c-0.10306,0.27855 -1.00737,0.74502 -0.89658,1.10354c0.01546,0.03598 -0.01417,0.07997 -0.05539,0.08796c-0.04509,0.01066 -0.0876,-0.01333 -0.10048,-0.05198c-0.12238,-0.4065 0.79481,-0.89829 0.90302,-1.19017c0.07729,-0.19725 0.15845,-0.42382 0.19967,-0.76235c0.00515,-0.03865 0.04251,-0.0733 0.0876,-0.06531c0.03736,0.004 0.07085,0.03465 0.07085,0.07064l0,0.00001z"/><polygon points="368.10400390625,193.8907470703125 367.97137451171875,195.17819213867188 368.91168212890625,195.17819213867188 368.7790222167969,193.8907470703125 " id="s_997" fill="#d1c690"/><path id="s_996" fill="#d1c690" d="m370.06336,191.68762c0,0.03332 -0.02576,0.06531 -0.06054,0.0733c-0.37615,0.08396 -1.484,1.45006 -1.484,2.51228c0,0.04398 -0.03349,0.07597 -0.08116,0.07597c-0.0438,-0.00267 -0.08116,-0.03332 -0.08116,-0.07597l0,-0.00267c0,-0.99825 0.99191,-2.52028 1.6038,-2.65622c0.04509,-0.01066 0.0876,0.01599 0.10048,0.05464c0.00258,0.00666 0.00258,0.01199 0.00258,0.01866l0,0.00001z"/><path id="s_995" fill="#d1c690" d="m370.08139,191.06122c0,0 -0.00258,0.47447 0.40063,0.51045c0,-0.09329 0,-0.51045 0,-0.51045l-0.40063,0z"/><path id="s_994" fill="#d1c690" d="m369.67046,191.64098c0,0 0.39419,-0.21058 0.45216,-0.07064c0.06183,0.14261 0.06699,0.23723 -0.03607,0.31987c-0.10563,0.0813 -0.41609,-0.24923 -0.41609,-0.24923z"/><path id="s_993" fill="#9d956c" d="m370.53097,191.16251c-0.10821,-0.35985 0.7961,-0.82499 0.89916,-1.10354c0.07729,-0.19325 0.1636,-0.43982 0.20869,-0.797l-0.076,0c-0.04509,0.35452 -0.13397,0.59575 -0.20869,0.797c-0.10306,0.27855 -1.00737,0.74502 -0.89658,1.10354l0.07343,0l-0.00001,0z"/><polygon points="368.84735107421875,193.8907470703125 368.98126220703125,195.17819213867188 368.91168212890625,195.17819213867188 368.7790222167969,193.8907470703125 " id="s_992" fill="#9d956c"/><path id="s_991" fill="#9d956c" d="m370.07366,191.76359c-0.37486,0.08263 -1.56129,1.42607 -1.48013,2.51228l-0.07729,0c-0.07729,-1.16885 1.10784,-2.43365 1.484,-2.51495l0.07343,0.00267l-0.00001,0z"/><path id="s_990" fill="#9d956c" d="m370.55416,191.57167c0,-0.09329 0,-0.50779 0,-0.50779l-0.07343,0c0,0 0,0.41449 0,0.50779l0.07343,0z"/><path id="s_989" fill="#9d956c" d="m370.15353,191.89154c0.10306,-0.08396 0.0979,-0.17459 0.03993,-0.3172l-0.07729,-0.00267c0.06312,0.14261 0.06699,0.23857 -0.03607,0.31987l0.07343,0z"/><rect y="189.57178" x="370" width="0.0657" opacity="0.5" id="s_988" height="5.62832" fill="#ffffff"/><path opacity="0.55" id="s_987" fill="#ffffff" d="m369.55968,195.08754l-0.3491,0c-0.19452,-0.02399 -0.3491,0.01599 -0.3491,-0.13061c0,-0.81433 0,-6.26805 0,-6.4693c0,-0.22391 0.08373,-0.23457 0.08373,0.01599c0,0.17459 0,5.1885 0,5.79225c0,0.60908 0.13526,0.69038 0.25377,0.69038l0.35039,-0.00267c0.23316,0.00133 0.23316,0.10396 0.01031,0.10396z"/><path opacity="0.03" id="s_986" d="m372.08195,188.25439c0.0876,0 0.17777,-0.01599 0.17777,0.13061c0,0.81433 0,6.22007 0,6.41999c0,0.22391 -0.08373,0.23457 -0.08373,-0.01066c0,-0.17992 -0.00258,-4.18225 -0.00258,-4.78334c-0.00129,-0.793 -0.09146,-1.7566 -0.09146,-1.7566z"/><path id="s_985" fill="#d1c690" d="m372.88579,196.43231l0,-1.02757l-0.67115,0c-0.16102,0 -0.27438,-0.10662 -0.34524,-0.25056l-3.92512,0l0,1.3461l4.87452,0l0.06441,0"/><path id="s_984" fill="#d1c690" d="m372.88579,186.6404l-0.06312,0l-4.87452,0l0,1.42874l4.4623,0c0.07214,-0.13994 0.18808,-0.25456 0.3491,-0.25456l0.12882,0l0,-1.1062"/></g><g id="s_980"><path stroke-width="1.802" stroke-opacity="0.0129" id="s_982" fill="#666666" d="m350.58434,142.81245l-1.5,1.5l-5.5,0l-1.5,-1.5l0,-5.5l1.5,-1.5l5.5,0l1.5,1.5l0,5.5z"/><path stroke-width="1.2355" stroke-opacity="0.0129" id="s_981" fill="#ccbb00" d="m346.15743,141.68768l-16,0l0,-3l16,0l0,3z"/></g><g id="s_932"><path stroke-width="0.1" stroke="#014201" id="s_979" fill="#007f00" d="m477.8611,192.82979l-97.76456,0l0,-45.15213l97.76456,0l0,45.15213z"/><path id="s_978" fill="#333333" d="m444.18468,187.58029l-26.75399,0l0,-26.05854l26.75399,0l0,26.05854z"/><path id="s_977" fill="#d4aa00" d="m475.11069,189.66454l-19.25287,0l0,-37.947l19.25287,0l0,37.947z"/><path id="s_976" fill="#007f00" d="m459.50214,187.62308l-3.87558,0l0,-37.46666l3.87558,0l0,37.46666z"/><path id="s_975" fill="#007f00" d="m472.73533,187.62308l-13.62703,0l0,-2.40171l13.62703,0l0,2.40171z"/><path id="s_974" fill="#007f00" d="m475.42323,183.17992l-13.62703,0l0,-2.40171l13.62703,0l0,2.40171z"/><path id="s_973" fill="#007f00" d="m472.79784,178.85685l-13.62703,0l0,-2.40171l13.62703,0l0,2.40171z"/><path id="s_972" fill="#007f00" d="m475.23571,174.53377l-13.62703,0l0,-2.40171l13.62703,0l0,2.40171z"/><path id="s_971" fill="#007f00" d="m472.61031,170.2107l-13.62703,0l0,-2.40171l13.62703,0l0,2.40171z"/><path id="s_970" fill="#007f00" d="m475.36072,165.52736l-13.62703,0l0,-2.40171l13.62703,0l0,2.40171z"/><path id="s_969" fill="#007f00" d="m472.73533,161.24692l-13.62703,0l0,-2.40171l13.62703,0l0,2.40171z"/><path id="s_968" fill="#ccbb00" d="m453.10741,196.50941l-3.5,0l0,-5.6l3.5,0l0,5.6z"/><path id="s_967" fill="#ccbb00" d="m447.73161,196.56945l-3.5,0l0,-5.6l3.5,0l0,5.6z"/><path id="s_966" fill="#ccbb00" d="m442.04326,196.65951l-3.5,0l0,-5.6l3.5,0l0,5.6z"/><path id="s_965" fill="#ccbb00" d="m436.66746,196.71955l-3.5,0l0,-5.6l3.5,0l0,5.6z"/><path id="s_964" fill="#ccbb00" d="m431.1979,196.70454l-3.5,0l0,-5.6l3.5,0l0,5.6z"/><path id="s_963" fill="#ccbb00" d="m425.82209,196.76459l-3.5,0l0,-5.6l3.5,0l0,5.6z"/><path id="s_962" fill="#ccbb00" d="m420.13375,196.85465l-3.5,0l0,-5.6l3.5,0l0,5.6z"/><path id="s_961" fill="#ccbb00" d="m414.75794,196.91469l-3.5,0l0,-5.6l3.5,0l0,5.6z"/><path id="s_960" fill="#ccbb00" d="m409.69469,196.70454l-3.5,0l0,-5.6l3.5,0l0,5.6z"/><path id="s_959" fill="#ccbb00" d="m404.31889,196.76459l-3.5,0l0,-5.6l3.5,0l0,5.6z"/><path id="s_958" fill="#ccbb00" d="m398.63054,196.85465l-3.5,0l0,-5.6l3.5,0l0,5.6z"/><path id="s_957" fill="#ccbb00" d="m393.25474,196.91469l-3.5,0l0,-5.6l3.5,0l0,5.6z"/><path id="s_956" fill="#ccbb00" d="m387.84768,196.80962l-3.5,0l0,-5.6l3.5,0l0,5.6z"/><path id="s_955" fill="#ccbb00" d="m453.10741,149.04771l-3.5,0l0,-5.6l3.5,0l0,5.6z"/><path id="s_954" fill="#ccbb00" d="m447.73161,149.10775l-3.5,0l0,-5.6l3.5,0l0,5.6z"/><path id="s_953" fill="#ccbb00" d="m442.04326,148.96308l-3.5,0l0,-5.6l3.5,0l0,5.6z"/><path id="s_952" fill="#ccbb00" d="m436.66746,149.02312l-3.5,0l0,-5.6l3.5,0l0,5.6z"/><path id="s_951" fill="#ccbb00" d="m431.35688,149.00811l-3.5,0l0,-5.6l3.5,0l0,5.6z"/><path id="s_950" fill="#ccbb00" d="m425.82209,149.06815l-3.5,0l0,-5.6l3.5,0l0,5.6z"/><path id="s_949" fill="#ccbb00" d="m419.97477,149.15822l-3.5,0l0,-5.6l3.5,0l0,5.6z"/><path id="s_948" fill="#ccbb00" d="m414.75794,149.21826l-3.5,0l0,-5.6l3.5,0l0,5.6z"/><path id="s_947" fill="#ccbb00" d="m409.69469,149.00811l-3.5,0l0,-5.6l3.5,0l0,5.6z"/><path id="s_946" fill="#ccbb00" d="m404.31889,149.06815l-3.5,0l0,-5.6l3.5,0l0,5.6z"/><path id="s_945" fill="#ccbb00" d="m398.78952,149.15822l-3.5,0l0,-5.6l3.5,0l0,5.6z"/><path id="s_944" fill="#ccbb00" d="m393.25474,149.21826l-3.5,0l0,-5.6l3.5,0l0,5.6z"/><path id="s_943" fill="#ccbb00" d="m387.84768,149.10905l-3.5,0l0,-5.6l3.5,0l0,5.6z"/><path id="s_942" fill="#ccbb00" d="m381.55511,150.0438l0.00966,3.36238l-5.87586,0.01557l-0.00966,-3.36238l5.87586,-0.01557z"/><path id="s_941" fill="#ccbb00" d="m381.66457,155.50741l0.00966,3.36238l-5.87586,0.01557l-0.00966,-3.36238l5.87586,-0.01557z"/><path id="s_940" fill="#ccbb00" d="m381.74191,160.6709l0.00966,3.36238l-5.87586,0.01557l-0.00966,-3.36238l5.87586,-0.01557z"/><path id="s_939" fill="#ccbb00" d="m381.5371,165.53492l0.00966,3.36238l-5.87586,0.01557l-0.00966,-3.36238l5.87586,-0.01557z"/><path id="s_938" fill="#ccbb00" d="m381.61444,170.69841l0.00966,3.36238l-5.87586,0.01557l-0.00966,-3.36238l5.87586,-0.01557z"/><path id="s_937" fill="#ccbb00" d="m381.72389,176.16203l0.00966,3.36238l-5.87586,0.01557l-0.00966,-3.36238l5.87586,-0.01557z"/><path id="s_936" fill="#ccbb00" d="m381.80123,181.32552l0.00966,3.36238l-5.87586,0.01557l-0.00966,-3.36238l5.87586,-0.01557z"/><path id="s_935" fill="#ccbb00" d="m381.70676,186.51944l0.00966,3.36238l-5.87586,0.01557l-0.00966,-3.36238l5.87586,-0.01557z"/><path id="s_934" fill="#333333" d="m408.47712,187.26283l-20.00298,0l0,-25.93845l20.00298,0l0,25.93845z"/><path id="s_933" fill="#007f00" d="m475.1732,156.26346l-13.62703,0l0,-2.40171l13.62703,0l0,2.40171z"/></g><g id="s_929"><path id="s_931" stroke-width="1.802" stroke-opacity="0.0129" fill="#666666" d="m350.58434,192.81245l-1.5,1.5l-5.5,0l-1.5,-1.5l0,-5.5l1.5,-1.5l5.5,0l1.5,1.5l0,5.5z"/><path id="s_930" stroke-width="1.2355" stroke-opacity="0.0129" fill="#ccbb00" d="m346.15743,191.68768l-16,0l0,-3l16,0l0,3z"/></g><g id="s_926"><path id="s_928" stroke-width="1.802" stroke-opacity="0.0129" fill="#666666" d="m350.58434,182.81245l-1.5,1.5l-5.5,0l-1.5,-1.5l0,-5.5l1.5,-1.5l5.5,0l1.5,1.5l0,5.5z"/><path id="s_927" stroke-width="1.2355" stroke-opacity="0.0129" fill="#ccbb00" d="m346.15743,181.68768l-16,0l0,-3l16,0l0,3z"/></g><g id="s_923"><path id="s_925" stroke-width="1.802" stroke-opacity="0.0129" fill="#666666" d="m350.58434,172.81245l-1.5,1.5l-5.5,0l-1.5,-1.5l0,-5.5l1.5,-1.5l5.5,0l1.5,1.5l0,5.5z"/><path id="s_924" stroke-width="1.2355" stroke-opacity="0.0129" fill="#ccbb00" d="m346.15743,171.68768l-16,0l0,-3l16,0l0,3z"/></g><g id="s_920"><path id="s_922" stroke-width="1.802" stroke-opacity="0.0129" fill="#666666" d="m350.58434,162.81245l-1.5,1.5l-5.5,0l-1.5,-1.5l0,-5.5l1.5,-1.5l5.5,0l1.5,1.5l0,5.5z"/><path id="s_921" stroke-width="1.2355" stroke-opacity="0.0129" fill="#ccbb00" d="m346.15743,161.68768l-16,0l0,-3l16,0l0,3z"/></g><g id="s_917"><path id="s_919" stroke-width="1.802" stroke-opacity="0.0129" fill="#666666" d="m350.58434,152.81245l-1.5,1.5l-5.5,0l-1.5,-1.5l0,-5.5l1.5,-1.5l5.5,0l1.5,1.5l0,5.5z"/><path id="s_918" stroke-width="1.2355" stroke-opacity="0.0129" fill="#ccbb00" d="m346.15743,151.68768l-16,0l0,-3l16,0l0,3z"/></g><text fill="#ffffff" font-size="10" text-anchor="middle" font-family="serif" stroke="null" id="s_916" y="184.31802" x="363.34838">VCC</text><text fill="#ffffff" font-size="10" text-anchor="middle" font-family="serif" stroke="null" id="s_915" y="174.06802" x="362.57494">GND</text><text fill="#ffffff" font-size="10" text-anchor="middle" font-family="serif" stroke="null" id="s_914" y="154.33364" x="362.32494">RXD</text><text fill="#ffffff" font-size="10" text-anchor="middle" font-family="serif" stroke="null" id="s_913" y="163.81802" x="362.82494">TXD</text><text fill="#ffffff" font-size="10" text-anchor="middle" font-family="serif" stroke="null" id="s_912" y="193.81802" x="358.30932">EN</text><text fill="#ffffff" font-size="10" text-anchor="middle" font-family="serif" stroke="null" id="s_911" y="144.08364" x="366.45776">STATE</text></g><g id="s_1023"><path stroke-width="0" opacity="0.6" id="s_1043" fill="#ffffff" d="m252.36049,62.80084c-0.157,0.39069 -0.26964,0.80256 -0.32174,1.23833c-0.12391,1.08532 0.1232,2.12285 0.6301,3.0101l0.29639,0.10997c-0.54562,-0.99039 -0.79977,-2.14471 -0.66037,-3.34547c0.0444,-0.3702 0.12954,-0.72947 0.24218,-1.0703l-0.18656,0.0574l0,-0.00003z"/><path stroke-width="0" opacity="0.5" id="s_1042" fill="#ffffff" d="m264.50983,72.22714c-0.0866,-0.0348 -0.14995,-0.0977 -0.16615,-0.1892l-1.13699,0.17349c0.0162,0.0669 0.003,0.13592 0.0232,0.20149l-0.006,0.002c0.12672,0.40777 0.44142,0.71171 0.84272,0.86881l0.44282,-1.05664l0.0004,0.00005z"/><path stroke-width="0" opacity="0.5" id="s_1041" fill="#ffffff" d="m264.54152,57.8631c-0.088,-0.0348 -0.15278,-0.0963 -0.16756,-0.18783l-1.1356,0.17212c0.0127,0.0669 0.003,0.13592 0.0232,0.20081l-0.01,0.003c0.12954,0.40641 0.44283,0.7124 0.84412,0.86677l0.44566,-1.0546l0.00018,-0.00027z"/><path stroke-width="0" opacity="0.5" id="s_1040" fill="#ffffff" d="m249.73729,57.83373c-0.0866,-0.0342 -0.15207,-0.097 -0.16685,-0.18783l-1.1363,0.17007c0.0127,0.0697 0.002,0.13593 0.0218,0.20355l-0.006,0.003c0.12884,0.40367 0.44213,0.70966 0.84272,0.86607l0.44495,-1.05459l-0.00032,-0.00027z"/><path stroke-width="0" opacity="0.5" id="s_1039" fill="#ffffff" d="m249.70561,72.19572c-0.0838,-0.0355 -0.14996,-0.0977 -0.16474,-0.18852l-1.13771,0.17349c0.0113,0.0663 0.002,0.13592 0.0239,0.20081l-0.006,0.001c0.12883,0.40845 0.44283,0.7124 0.84271,0.87018l0.44143,-1.05733l0.00041,0.00037z"/><polygon stroke-width="0" points="245.0408935546875,53.607696533203125 242.94003295898438,55.646514892578125 242.94003295898438,74.803466796875 245.0408935546875,76.84161376953125 264.78668212890625,76.84161376953125 266.88818359375,74.803466796875 266.88818359375,55.64581298828125 264.78668212890625,53.607696533203125 " id="s_1038" fill="black"/><path id="s_1037" fill="#333333" d="m248.18429,51.50957c0,-0.76073 1.35616,-1.4 2.97,-1.4l-2.58095,0c1.61384,0 2.97,0.63927 2.97,1.4l0,5.08438c0,0.76073 -1.35616,1.4 -2.97,1.4l2.58095,0c-1.61384,0 -2.97,-0.63927 -2.97,-1.4l0,-5.08438z"/><path id="s_1036" fill="#333333" d="m258.52801,51.62581c0,-0.76073 1.35616,-1.4 2.97,-1.4l-2.58095,0c1.61384,0 2.97,0.63927 2.97,1.4l0,5.08438c0,0.76073 -1.35616,1.4 -2.97,1.4l2.58095,0c-1.61384,0 -2.97,-0.63927 -2.97,-1.4l0,-5.08438z"/><path id="s_1035" fill="#333333" d="m248.18429,73.62734c0,-0.76073 1.35616,-1.4 2.97,-1.4l-2.58095,0c1.61384,0 2.97,0.63927 2.97,1.4l0,5.08438c0,0.76073 -1.35616,1.4 -2.97,1.4l2.58095,0c-1.61384,0 -2.97,-0.63927 -2.97,-1.4l0,-5.08438z"/><path id="s_1034" fill="#333333" d="m258.72527,73.62734c0,-0.76073 1.35616,-1.4 2.97,-1.4l-2.58095,0c1.61384,0 2.97,0.63927 2.97,1.4l0,5.08438c0,0.76073 -1.35616,1.4 -2.97,1.4l2.58095,0c-1.61384,0 -2.97,-0.63927 -2.97,-1.4l0,-5.08438z"/><path stroke-width="0" id="s_1033" fill="#999999" d="m263.5749,55.06613c0.93495,0 1.69811,0.73767 1.69811,1.64678l0.00002,16.90355c0,0.9057 -0.76317,1.64542 -1.69811,1.64542l-17.42676,0c-0.93354,0 -1.696,-0.73972 -1.696,-1.64542l0,-16.90631c0,-0.90638 0.76246,-1.64404 1.696,-1.64404l17.42674,0.00002l0,0z"/><g id="s_1028"><circle stroke-width="0" r="6.34165" id="s_1032" fill="#2d2d2d" cy="65.26549" cx="255.10157"/><circle stroke-width="0" r="6.34165" id="s_1031" fill="#3f3f3f" cy="65.29652" cx="254.75503"/><circle stroke-width="0" r="5.43787" id="s_1030" fill="#313131" cy="65.26101" cx="255.34793"/><circle stroke-width="0" r="5.57982" opacity="0.6" id="s_1029" fill="black" cy="65.32039" cx="254.70624"/></g><circle stroke-width="0" r="1.44209" id="s_1027" fill="black" cy="57.54699" cx="246.90473"/><circle stroke-width="0" r="1.44209" id="s_1026" fill="black" cy="72.85726" cx="246.74123"/><circle stroke-width="0" r="1.44209" id="s_1025" fill="black" cy="72.85726" cx="262.74202"/><circle stroke-width="0" r="1.44209" id="s_1024" fill="black" cy="57.57874" cx="262.77377"/></g><polyline id="Li5" points="250,310 250,290" stroke-width="1.5" stroke="#7f00ff" fill="none"/><polyline id="Li6" points="250,290 140,290" stroke-width="1.5" stroke="#7f00ff" fill="none"/><polyline id="Li7" points="140,290 140,310" stroke-width="1.5" stroke="#7f00ff" fill="none"/><polyline id="Li8" points="170,200 170,290" stroke-width="1.5" stroke="#7f00ff" fill="none"/><polyline id="Li9" points="260,310 260,280" stroke-width="1.5" stroke="#0000ff" fill="none"/><polyline id="Li12" points="260,280 150,280" stroke-width="1.5" stroke="#0000ff" fill="none"/><polyline id="Li13" points="150,280 150,310" stroke-width="1.5" stroke="#0000ff" fill="none"/><polyline id="Li14" points="160,200 160,280" stroke-width="1.5" stroke="#0000ff" fill="none"/><polyline id="Li15" points="230,310 230,260" stroke-width="1.5" stroke="#ff0000" fill="none"/><polyline id="Li16" points="230,260 120,260" stroke-width="1.5" stroke="#ff0000" fill="none"/><polyline id="Li17" points="120,260 120,310" stroke-width="1.5" stroke="#ff0000" fill="none"/><polyline id="Li18" points="200,200 200,260" stroke-width="1.5" stroke="#ff0000" fill="none"/><polyline id="Li19" points="240,310 240,270" stroke-width="1.5" stroke="#00ff00" fill="none"/><polyline id="Li20" points="240,270 130,270" stroke-width="1.5" stroke="#00ff00" fill="none"/><polyline id="Li21" points="130,270 130,310" stroke-width="1.5" stroke="#00ff00" fill="none"/><polyline id="Li22" points="220,200 220,270" stroke-width="1.5" stroke="#00ff00" fill="none"/><polyline id="Li23" points="340,180 260,180 260,180 260,260 " stroke-width="1.5" stroke="#ff0000" fill="none"/><polyline id="Li24" points="260,260 230,260" stroke-width="1.5" stroke="#ff0000" fill="none"/><polyline id="Li25" points="240,270 270,270" stroke-width="1.5" stroke="#00ff00" fill="none"/><g id="s_1050"><polyline id="s_1051" stroke-width="3" stroke-linejoin="round" stroke-linecap="round" stroke="#b2b2b2" points="250,40 280,40 " fill="none"/><path id="s_1052" fill="#D9B477" d="m280,60m-30,-30m21.2246,13.99988c0.45907,0.21658 1.24867,0.38607 1.75365,0.38607l2.53407,0c0.50498,0 0.91814,-0.42374 0.91814,-0.94164l0,-7.00487c0,-0.51884 -0.41316,-0.94164 -0.91814,-0.94164l-2.53407,0c-0.50498,0 -1.29458,0.17797 -1.75365,0.38607l-0.09181,0.04614c-0.45907,0.21658 -1.24867,0.38607 -1.75365,0.38607l-9.16306,0c-0.5059,0 -1.29369,-0.17797 -1.75276,-0.38607l-0.09273,-0.04614c-0.45907,-0.21658 -1.24684,-0.38607 -1.75365,-0.38607l-2.53407,0c-0.50681,0 -0.91814,0.4228 -0.91814,0.94164l0,7.00487c0,0.5179 0.41133,0.94164 0.91814,0.94164l2.53407,0c0.50681,0 1.29458,-0.17891 1.75365,-0.38607l0.09273,-0.04708c0.45907,-0.21658 1.24684,-0.38607 1.75276,-0.38607l9.16306,0c0.50498,0 1.29458,0.17891 1.75365,0.38607l0.09181,0.04708z"/><path id="s_1053" opacity="0.3" fill="black" d="m254.3553,40.80914c0,0.49624 0.16618,0.91433 0.37644,0.91433l2.45144,0c0.48478,0 1.24684,-0.07345 1.69946,-0.16008l0.09268,-0.02072c0.43979,-0.08475 1.21011,-0.16008 1.70035,-0.16008l8.85828,0c0.48662,0 1.24867,0.07533 1.69856,0.16008l0.09181,0.01977c0.44071,0.08569 1.20277,0.16008 1.69856,0.16008l0.40398,0l1.27622,0l0.3948,0c0.48662,0 0.8906,0.38419 0.8906,0.84371l0,0.32298l0,0.2081l0,0.22599c0,0.47082 -0.40398,0.84371 -0.8906,0.84371l-2.06582,0c-0.48662,0 -1.24867,-0.16008 -1.69856,-0.34935l-0.09181,-0.03672c-0.44071,-0.18456 -1.21195,-0.34652 -1.69856,-0.34652l-8.85828,0c-0.48386,0 -1.24592,0.16196 -1.70137,0.34746l-0.09457,0.03672c-0.43979,0.18927 -1.2046,0.34935 -1.70035,0.34935l-2.83706,0c-0.4857,0 -0.89152,-0.38607 -0.89152,-0.84371l0.00005,-0.70717l0,-1.27215l0,-2.41151c0.35348,0.14125 0.89519,0.53673 0.89519,1.87569l0.00008,0.00003l0,0.00001z"/></g><path id="Do1" fill="#ff0000" stroke-width="1.5" stroke="#ff0000" d="m227.5,260a2.5,2.5 0 1 1 5,0a2.5,2.5 0 1 1 -5,0"/><path id="Do2" fill="#ff0000" stroke-width="1.5" stroke="#ff0000" d="m197.5,260a2.5,2.5 0 1 1 5,0a2.5,2.5 0 1 1 -5,0"/><path id="Do3" fill="#ff0000" stroke-width="1.5" stroke="#ff0000" d="m257.5,180a2.5,2.5 0 1 1 5,0a2.5,2.5 0 1 1 -5,0"/><path id="Do4" fill="#0000ff" stroke-width="1.5" stroke="#0000ff" d="m157.5,280a2.5,2.5 0 1 1 5,0a2.5,2.5 0 1 1 -5,0"/><path id="Do5" fill="#0000ff" stroke-width="1.5" stroke="#0000ff" d="m167.5,290a2.5,2.5 0 1 1 5,0a2.5,2.5 0 1 1 -5,0"/><path id="Do6" fill="#7f00ff" stroke-width="1.5" stroke="#7f00ff" d="m167.5,290a2.5,2.5 0 1 1 5,0a2.5,2.5 0 1 1 -5,0"/><path id="Do7" fill="#00ff00" stroke-width="1.5" stroke="#00ff00" d="m217.5,270a2.5,2.5 0 1 1 5,0a2.5,2.5 0 1 1 -5,0"/><polyline id="Li28" points="260,180 260,80" stroke-width="1.5" stroke="#ff0000" fill="none"/><polyline id="Li29" points="160,130 160,100" stroke-width="1.5" stroke="#ff00ff" fill="none"/><polyline id="Li30" points="160,100 160,90" stroke-width="1.5" stroke="#ff00ff" fill="none"/><polyline id="Li31" points="160,90 250,90" stroke-width="1.5" stroke="#ff00ff" fill="none"/><polyline id="Li32" points="250,90 250,80" stroke-width="1.5" stroke="#ff00ff" fill="none"/><polyline id="Li33" points="250,40 250,50" stroke-width="1.5" stroke="#00ff00" fill="none"/><polyline id="Li34" points="280,40 280,170" stroke-width="1.5" stroke="#00ff00" fill="none"/><polyline id="Li35" points="270,270 280,270" stroke-width="1.5" stroke="#00ff00" fill="none"/><polyline id="Li36" points="280,270 280,170" stroke-width="1.5" stroke="#00ff00" fill="none"/><polyline id="Li37" points="280,170 340,170" stroke-width="1.5" stroke="#00ff00" fill="none"/><path id="Do8" fill="#00ff00" stroke-width="1.5" stroke="#00ff00" d="m277.5,170a2.5,2.5 0 1 1 5,0a2.5,2.5 0 1 1 -5,0"/><polyline id="Li38" points="340,160 300,160 300,160 300,120" stroke-width="1.5" stroke="#0000ff" fill="none"/><polyline id="Li39" points="300,120 110,120" stroke-width="1.5" stroke="#0000ff" fill="none"/><polyline id="Li40" points="110,120 110,130" stroke-width="1.5" stroke="#0000ff" fill="none"/><polyline id="Li41" points="340,150 310,150" stroke-width="1.5" stroke="#7f00ff" fill="none"/><polyline id="Li42" points="310,150 310,110" stroke-width="1.5" stroke="#7f00ff" fill="none"/><polyline id="Li43" points="310,110 100,110" stroke-width="1.5" stroke="#7f00ff" fill="none"/><polyline id="Li44" points="100,110 100,130" stroke-width="1.5" stroke="#7f00ff" fill="none"/><path id="Do9" fill="#00ff00" stroke-width="1.5" stroke="#00ff00" d="m237.5,270a2.5,2.5 0 1 1 5,0a2.5,2.5 0 1 1 -5,0"/><text transform="matrix(1,0,0,1,0,0) " fill="#000000" font-size="12" text-anchor="middle" font-family="serif" stroke="null" id="s_1058" y="31" x="262">1k</text><polyline id="Li45" stroke-width="1.5" stroke="#ff0000" fill="none"/></g></svg>