<svg width="800" height="600" xmlns="http://www.w3.org/2000/svg" xmlns:svg="http://www.w3.org/2000/svg"><g><title>Layer 1</title><g id="s_489"><rect fill="#033d62" x="120" y="330" width="70" height="90" id="s_528"/><g id="s_525"><circle r="6" fill="#a7a7a7" cy="410" cx="140" id="s_527"/><circle r="4" fill="#ffffff" cy="410" cx="140" id="s_526"/></g><g id="s_522"><circle r="6" fill="#a7a7a7" cy="410" cx="170" id="s_524"/><circle r="4" fill="#ffffff" cy="410" cx="170" id="s_523"/></g><g id="s_495"><rect fill="none" x="130" y="330" width="60" height="20" id="s_521"/><rect fill="#404040" height="10" width="40" x="134" y="336" id="s_520"/><g id="s_514"><rect id="s_519" fill="black" height="3.6" width="3.6" x="138" y="338.4"/><polygon id="s_518" fill="#2a2a29" points="136.70001220703125,343.20001220703125 138.20001220703125,341.6999816894531 141.70001220703125,341.6999816894531 143.20001220703125,343.20001220703125 "/><polygon id="s_517" fill="#595959" points="143.20001220703125,336.70001220703125 141.70001220703125,338.20001220703125 138.20001220703125,338.20001220703125 136.70001220703125,336.70001220703125 "/><polygon id="s_516" fill="#373737" points="136.70001220703125,336.70001220703125 138.20001220703125,338.20001220703125 138.20001220703125,341.6999816894531 136.70001220703125,343.20001220703125 "/><polygon id="s_515" fill="#474747" points="143.20001220703125,343.20001220703125 141.70001220703125,341.6999816894531 141.70001220703125,338.20001220703125 143.20001220703125,336.70001220703125 "/></g><g id="s_508"><rect id="s_513" fill="black" height="3.6" width="3.6" x="168" y="338.4"/><polygon id="s_512" fill="#2a2a29" points="166.699951171875,343.20001220703125 168.20001220703125,341.6999816894531 171.70001220703125,341.6999816894531 173.20001220703125,343.20001220703125 "/><polygon id="s_511" fill="#595959" points="173.20001220703125,336.70001220703125 171.70001220703125,338.20001220703125 168.20001220703125,338.20001220703125 166.699951171875,336.70001220703125 "/><polygon id="s_510" fill="#373737" points="166.699951171875,336.70001220703125 168.20001220703125,338.20001220703125 168.20001220703125,341.6999816894531 166.699951171875,343.20001220703125 "/><polygon id="s_509" fill="#474747" points="173.20001220703125,343.20001220703125 171.70001220703125,341.6999816894531 171.70001220703125,338.20001220703125 173.20001220703125,336.70001220703125 "/></g><g id="s_502"><rect id="s_507" fill="black" height="3.6" width="3.6" x="158" y="338.4"/><polygon id="s_506" fill="#2a2a29" points="156.699951171875,343.20001220703125 158.20001220703125,341.6999816894531 161.70001220703125,341.6999816894531 163.20001220703125,343.20001220703125 "/><polygon id="s_505" fill="#595959" points="163.20001220703125,336.70001220703125 161.70001220703125,338.20001220703125 158.20001220703125,338.20001220703125 156.699951171875,336.70001220703125 "/><polygon id="s_504" fill="#373737" points="156.699951171875,336.70001220703125 158.20001220703125,338.20001220703125 158.20001220703125,341.6999816894531 156.699951171875,343.20001220703125 "/><polygon id="s_503" fill="#474747" points="163.20001220703125,343.20001220703125 161.70001220703125,341.6999816894531 161.70001220703125,338.20001220703125 163.20001220703125,336.70001220703125 "/></g><g id="s_496"><rect id="s_501" fill="black" height="3.6" width="3.6" x="148" y="338.4"/><polygon id="s_500" fill="#2a2a29" points="146.699951171875,343.20001220703125 148.20001220703125,341.6999816894531 151.70001220703125,341.6999816894531 153.20001220703125,343.20001220703125 "/><polygon id="s_499" fill="#595959" points="153.20001220703125,336.70001220703125 151.70001220703125,338.20001220703125 148.20001220703125,338.20001220703125 146.699951171875,336.70001220703125 "/><polygon id="s_498" fill="#373737" points="146.699951171875,336.70001220703125 148.20001220703125,338.20001220703125 148.20001220703125,341.6999816894531 146.699951171875,343.20001220703125 "/><polygon id="s_497" fill="#474747" points="153.20001220703125,343.20001220703125 151.70001220703125,341.6999816894531 151.70001220703125,338.20001220703125 153.20001220703125,336.70001220703125 "/></g></g><text fill="#ffffff" font-size="7" text-anchor="middle" font-family="serif" stroke="null" id="s_493" y="352.90625" x="155.625">VCC GND SCL SDA</text><circle cx="155" cy="380" fill="#cccccc" stroke="#000000" r="20" id="s_492"/><circle cx="155" cy="380" fill="none" stroke="#7f7f7f" stroke-width="2" r="15" id="s_491"/><circle cx="155" cy="380" fill="#191919" stroke="#7f7f7f" stroke-width="2" r="10" id="s_490"/></g><g id="s_530"><path fill="#033d62" d="m200,330l0,110l20,0l7,-10l56,0l7,10l20,0l0,-110l-110,0z" id="s_579"/><g id="s_576"><circle cx="300" cy="430" fill="#a7a7a7" r="6" id="s_578"/><circle cx="300" cy="430" fill="#ffffff" r="4" id="s_577"/></g><g id="s_573"><circle id="s_575" cx="210" cy="430" fill="#a7a7a7" r="6"/><circle id="s_574" cx="210" cy="430" fill="#ffffff" r="4"/></g><g id="s_570"><circle id="s_572" cx="300" cy="430" fill="#a7a7a7" r="6"/><circle id="s_571" cx="300" cy="430" fill="#ffffff" r="4"/></g><g id="s_567"><circle id="s_569" cx="210" cy="340" fill="#a7a7a7" r="6"/><circle id="s_568" cx="210" cy="340" fill="#ffffff" r="4"/></g><g id="s_564"><circle id="s_566" cx="300" cy="340" fill="#a7a7a7" r="6"/><circle id="s_565" cx="300" cy="340" fill="#ffffff" r="4"/></g><g id="s_537"><rect id="s_563" height="20" width="60" y="330" x="230" fill="none"/><rect id="s_562" y="334" x="234" width="40" height="10" fill="#404040"/><g id="s_556"><rect y="338" x="238.4" width="3.6" height="3.6" fill="black" id="s_561"/><polygon points="236.70001220703125,336.79998779296875 238.20001220703125,338.3000183105469 241.70001220703125,338.3000183105469 243.20001220703125,336.79998779296875 " fill="#2a2a29" id="s_560"/><polygon points="243.20001220703125,343.29998779296875 241.70001220703125,341.79998779296875 238.20001220703125,341.79998779296875 236.70001220703125,343.29998779296875 " fill="#595959" id="s_559"/><polygon points="236.70001220703125,343.29998779296875 238.20001220703125,341.79998779296875 238.20001220703125,338.3000183105469 236.70001220703125,336.79998779296875 " fill="#373737" id="s_558"/><polygon points="243.20001220703125,336.79998779296875 241.70001220703125,338.3000183105469 241.70001220703125,341.79998779296875 243.20001220703125,343.29998779296875 " fill="#474747" id="s_557"/></g><g id="s_550"><rect y="338" x="268.4" width="3.6" height="3.6" fill="black" id="s_555"/><polygon points="266.699951171875,336.79998779296875 268.20001220703125,338.3000183105469 271.70001220703125,338.3000183105469 273.20001220703125,336.79998779296875 " fill="#2a2a29" id="s_554"/><polygon points="273.20001220703125,343.29998779296875 271.70001220703125,341.79998779296875 268.20001220703125,341.79998779296875 266.699951171875,343.29998779296875 " fill="#595959" id="s_553"/><polygon points="266.699951171875,343.29998779296875 268.20001220703125,341.79998779296875 268.20001220703125,338.3000183105469 266.699951171875,336.79998779296875 " fill="#373737" id="s_552"/><polygon points="273.20001220703125,336.79998779296875 271.70001220703125,338.3000183105469 271.70001220703125,341.79998779296875 273.20001220703125,343.29998779296875 " fill="#474747" id="s_551"/></g><g id="s_544"><rect y="338" x="258.4" width="3.6" height="3.6" fill="black" id="s_549"/><polygon points="256.699951171875,336.79998779296875 258.20001220703125,338.3000183105469 261.70001220703125,338.3000183105469 263.20001220703125,336.79998779296875 " fill="#2a2a29" id="s_548"/><polygon points="263.20001220703125,343.29998779296875 261.70001220703125,341.79998779296875 258.20001220703125,341.79998779296875 256.699951171875,343.29998779296875 " fill="#595959" id="s_547"/><polygon points="256.699951171875,343.29998779296875 258.20001220703125,341.79998779296875 258.20001220703125,338.3000183105469 256.699951171875,336.79998779296875 " fill="#373737" id="s_546"/><polygon points="263.20001220703125,336.79998779296875 261.70001220703125,338.3000183105469 261.70001220703125,341.79998779296875 263.20001220703125,343.29998779296875 " fill="#474747" id="s_545"/></g><g id="s_538"><rect y="338" x="248.4" width="3.6" height="3.6" fill="black" id="s_543"/><polygon points="246.699951171875,336.79998779296875 248.20001220703125,338.3000183105469 251.70001220703125,338.3000183105469 253.20001220703125,336.79998779296875 " fill="#2a2a29" id="s_542"/><polygon points="253.20001220703125,343.29998779296875 251.70001220703125,341.79998779296875 248.20001220703125,341.79998779296875 246.699951171875,343.29998779296875 " fill="#595959" id="s_541"/><polygon points="246.699951171875,343.29998779296875 248.20001220703125,341.79998779296875 248.20001220703125,338.3000183105469 246.699951171875,336.79998779296875 " fill="#373737" id="s_540"/><polygon points="253.20001220703125,336.79998779296875 251.70001220703125,338.3000183105469 251.70001220703125,341.79998779296875 253.20001220703125,343.29998779296875 " fill="#474747" id="s_539"/></g></g><rect id="s_535" height="20" width="50" y="412" x="230" fill="#000000"/><rect id="s_534" height="15.2" width="1.2" y="416" x="229.8" fill="#ffaa56"/><rect id="Re9" height="15.2" width="1.2" y="416" x="279.8" fill="#ffaa56"/><text x="255.625" y="350.75" id="s_533" stroke="null" font-family="serif" text-anchor="middle" font-size="7" fill="#ffffff">VCC GND SCL SDA</text><rect fill="#000000" x="200" y="352" width="110" height="70" id="s_532"/><rect id="s_531" height="65" width="106" y="355" x="202" fill="#010415"/></g><g id="s_963">Layer 1   <g id="s_582"><path d="m280,190m-170,0m8,70a2,1.5 0 0 1 4,0l6,0a2,1.5 0 0 1 4,0l6,0a2,1.5 0 0 1 4,0l6,0a2,1.5 0 0 1 4,0l6,0a2,1.5 0 0 1 4,0l6,0a2,1.5 0 0 1 4,0l6,0a2,1.5 0 0 1 4,0l6,0a2,1.5 0 0 1 4,0l6,0a2,1.5 0 0 1 4,0l6,0a2,1.5 0 0 1 4,0l6,0a2,1.5 0 0 1 4,0l6,0a2,1.5 0 0 1 4,0l6,0a2,1.5 0 0 1 4,0l6,0a2,1.5 0 0 1 4,0l6,0a2,1.5 0 0 1 4,0l8,0l0,-70l-8,0a2,1.5 0 0 1 -4,0l-6,0a2,1.5 0 0 1 -4,0l-6,0a2,1.5 0 0 1 -4,0l-6,0a2,1.5 0 0 1 -4,0l-6,0a2,1.5 0 0 1 -4,0l-6,0a2,1.5 0 0 1 -4,0l-6,0a2,1.5 0 0 1 -4,0l-6,0a2,1.5 0 0 1 -4,0l-6,0a2,1.5 0 0 1 -4,0l-6,0a2,1.5 0 0 1 -4,0l-6,0a2,1.5 0 0 1 -4,0l-6,0a2,1.5 0 0 1 -4,0l-6,0a2,1.5 0 0 1 -4,0l-6,0a2,1.5 0 0 1 -4,0l-6,0a2,1.5 0 0 1 -4,0l-8,0l0,70l8,0zm148,-1.5a3,3 0 1 1 3,-3a3,3 0 0 1 -3,3zm0,-60a3,3 0 1 1 3,-3a3,3 0 0 1 -3,3zm-152,0a3,3 0 1 1 3,-3a3,3 0 0 1 -3,3zm0,60a3,3 0 1 1 3,-3a3,3 0 0 1 -3,3z" fill="#007481" id="s_962" stroke="#004a5e" stroke-width="0.43"/><g id="s_943"><polygon points="128.5269775390625,233.281982421875 110.0419921875,233.281982421875 110.0419921875,213.33099365234375 128.5269775390625,213.33099365234375 128.5269775390625,233.281982421875 " id="s_961" class="cls-26" fill="#b3b3b3"/><rect y="233.0007" x="118" width="3.2845" id="s_960" height="1.9346" class="cls-29" fill="#666"/><rect y="211.0007" x="118" width="3.2845" id="s_959" height="1.9346" class="cls-29" fill="#666"/><rect y="213.9836" x="128" width="0.1382" id="s_958" height="19.9517" class="cls-30" fill="#ccc"/><rect y="217.04" x="110" width="18.1871" id="s_957" height="10.8953" class="cls-31" fill="#333"/><rect x="110" y="212.8723" width="0.6165" id="s_956" height="1.063" class="cls-26" fill="#b3b3b3"/><rect x="110" y="212.255" width="0.6165" id="s_955" height="0.6803" class="cls-30" fill="#ccc"/><rect x="110" y="233.8723" width="0.6165" id="s_954" height="1.063" class="cls-26" fill="#b3b3b3"/><rect x="110" y="233.255" width="0.6165" id="s_953" height="0.6803" class="cls-30" fill="#ccc"/><path id="s_952" d="m127.9107,213.0432l0.6166,0.2444l0,2.6894a12.8041,12.8041 0 0 0 -0.2977,-2.498c-0.1807,-0.085 -0.3082,0.1169 -0.3082,0.1169l-0.0107,-0.5527z" class="cls-30" fill="#ccc"/><path id="s_951" d="m127.9107,233.4833l0.6059,-0.2339l0,-2.6894a12.8657,12.8657 0 0 1 -0.287,2.53a0.2551,0.2551 0 0 1 -0.3082,-0.117l-0.0107,0.5103z" class="cls-30" fill="#ccc"/><path id="s_950" d="m127.9107,229.9016l-1.148,0l0,-1.7007l1.7646,0l0,-0.489l-0.6166,0l0,-8.8546l0.6166,0l0,-0.5l-1.7646,0l0,-1.7l1.148,0l0,-3.6145l-17.7507,0l0,20.4087l17.7507,0l0,-3.5499zm-14.3397,-11.544l-0.8823,0l0,-1.7433l0.9461,0a1.69,1.69 0 0 1 1.4138,-0.7543a1.5733,1.5733 0 0 1 1.4775,0.7547l4.8366,0l0,1.6794l-4.826,0a1.6795,1.6795 0 0 1 -2.9551,0l-0.0106,0.0635zm0,11.5228l-0.8823,0l0,-1.7434l0.9461,0a1.7117,1.7117 0 0 1 1.4138,-0.744a1.5947,1.5947 0 0 1 1.4775,0.744l4.8366,0l0,1.69l-4.826,0a1.6794,1.6794 0 0 1 -1.4775,0.8715a1.6582,1.6582 0 0 1 -1.4882,-0.8715l0,0.0534z" class="cls-32" fill="#e6e6e6"/><polygon points="127.91098022460938,214.70199584960938 110.15899658203125,213.51199340820312 110.15899658203125,213.08700561523438 127.91098022460938,213.08700561523438 127.91098022460938,214.70199584960938 " id="s_949" class="cls-33" fill="#f2f2f2"/><polygon points="127.91098022460938,233.4949951171875 110.15899658203125,233.4949951171875 122.01101684570312,232.88900756835938 127.91098022460938,232.28298950195312 127.91098022460938,233.4949951171875 " id="s_948" class="cls-34" fill="#999"/><rect y="216.2453" x="121" width="0.1382" id="s_947" height="1.69" class="cls-30" fill="#ccc"/><rect y="228.2453" x="121" width="0.1382" id="s_946" height="1.69" class="cls-30" fill="#ccc"/><rect y="214.5249" x="110" width="0.7122" id="s_945" height="18.4104" class="cls-26" fill="#b3b3b3"/><rect y="214.5249" x="110" width="0.3402" id="s_944" height="18.4104" class="cls-30" fill="#ccc"/></g><g id="s_935"><path fill="#c3b9af" id="s_942" d="m238.87389,189.93531l-1.2217,0l0,4.0329a2.3534,2.3534 0 0 0 4.702,0.2125q0.0048,-0.1062 0,-0.2125l0,-4.0329l-0.8619,0a1.4133,1.4133 0 0 1 -1.4857,1.5434c-0.8576,-0.1134 -1.0084,-0.4944 -1.1327,-1.5434zm-0.4024,4.0492a1.5353,1.5353 0 1 1 1.5339,1.6079a1.5722,1.5722 0 0 1 -1.5339,-1.6081l0,0.0002z"/><path fill="#666" id="s_941" d="m237.39399,194.73901a2.6111,2.6111 0 1 1 2.6112,2.611l0,0a2.6109,2.6109 0 0 1 -2.6109,-2.6109l0,0"/><path fill="#8c8663" id="s_940" d="m239.42399,194.12691l1.1651,0l0,1.23l-1.1651,0l0,-1.23z"/><path fill="#b8af82" id="s_939" d="m239.42399,194.12691l1.1629,0l0.548,-0.576l-2.261,0l0.5501,0.576z"/><path fill="#80795b" id="s_938" d="m240.58599,194.12691l0.549,-0.576l0,2.378l-0.549,-0.573l0,-1.229z"/><path fill="#5e5b43" id="s_937" d="m240.58599,195.35691l0.549,0.574l-2.2608,0l0.55,-0.574l1.1618,0z"/><path fill="#9a916c" id="s_936" d="m239.42399,194.12691l0,1.23l-0.55,0.573l0,-2.379l0.55,0.576z"/></g><g id="s_927"><path fill="#c3b9af" d="m121.1363,259.95l1.2217,0l0,-4.0329a2.3534,2.3534 0 0 0 -4.702,-0.2125q-0.0048,0.1062 0,0.2125l0,4.0329l0.8619,0a1.4133,1.4133 0 0 1 1.4857,-1.5434c0.8576,0.1134 1.0084,0.4944 1.1327,1.5434zm0.4024,-4.0492a1.5353,1.5353 0 1 1 -1.5339,-1.6079a1.5722,1.5722 0 0 1 1.5339,1.6081l0,-0.0002z" id="s_934"/><path fill="#666" d="m122.6162,255.1463a2.6111,2.6111 0 1 1 -2.6112,-2.611l0,0a2.6109,2.6109 0 0 1 2.6109,2.6109l0,0" id="s_933"/><path fill="#8c8663" d="m120.5862,255.7584l-1.1651,0l0,-1.23l1.1651,0l0,1.23z" id="s_932"/><path fill="#b8af82" d="m120.5862,255.7584l-1.1629,0l-0.548,0.576l2.261,0l-0.5501,-0.576z" id="s_931"/><path fill="#80795b" d="m119.4242,255.7584l-0.549,0.576l0,-2.378l0.549,0.573l0,1.229z" id="s_930"/><path fill="#5e5b43" d="m119.4242,254.5284l-0.549,-0.574l2.2608,0l-0.55,0.574l-1.1618,0z" id="s_929"/><path fill="#9a916c" d="m120.5862,255.7584l0,-1.23l0.55,-0.573l0,2.379l-0.55,-0.576z" id="s_928"/></g><g id="s_919"><path fill="#c3b9af" d="m131.1363,259.95l1.2217,0l0,-4.0329a2.3534,2.3534 0 0 0 -4.702,-0.2125q-0.0048,0.1062 0,0.2125l0,4.0329l0.8619,0a1.4133,1.4133 0 0 1 1.4857,-1.5434c0.8576,0.1134 1.0084,0.4944 1.1327,1.5434zm0.4024,-4.0492a1.5353,1.5353 0 1 1 -1.5339,-1.6079a1.5722,1.5722 0 0 1 1.5339,1.6081l0,-0.0002z" id="s_926"/><path fill="#666" d="m132.6162,255.1463a2.6111,2.6111 0 1 1 -2.6112,-2.611l0,0a2.6109,2.6109 0 0 1 2.6109,2.6109l0,0" id="s_925"/><path fill="#8c8663" d="m130.5862,255.7584l-1.1651,0l0,-1.23l1.1651,0l0,1.23z" id="s_924"/><path fill="#b8af82" d="m130.5862,255.7584l-1.1629,0l-0.548,0.576l2.261,0l-0.5501,-0.576z" id="s_923"/><path fill="#80795b" d="m129.4242,255.7584l-0.549,0.576l0,-2.378l0.549,0.573l0,1.229z" id="s_922"/><path fill="#5e5b43" d="m129.4242,254.5284l-0.549,-0.574l2.2608,0l-0.55,0.574l-1.1618,0z" id="s_921"/><path fill="#9a916c" d="m130.5862,255.7584l0,-1.23l0.55,-0.573l0,2.379l-0.55,-0.576z" id="s_920"/></g><g id="s_911"><path fill="#c3b9af" d="m141.1363,259.95l1.2217,0l0,-4.0329a2.3534,2.3534 0 0 0 -4.702,-0.2125q-0.0048,0.1062 0,0.2125l0,4.0329l0.8619,0a1.4133,1.4133 0 0 1 1.4857,-1.5434c0.8576,0.1134 1.0084,0.4944 1.1327,1.5434zm0.4024,-4.0492a1.5353,1.5353 0 1 1 -1.5339,-1.6079a1.5722,1.5722 0 0 1 1.5339,1.6081l0,-0.0002z" id="s_918"/><path fill="#666" d="m142.6162,255.1463a2.6111,2.6111 0 1 1 -2.6112,-2.611l0,0a2.6109,2.6109 0 0 1 2.6109,2.6109l0,0" id="s_917"/><path fill="#8c8663" d="m140.5862,255.7584l-1.1651,0l0,-1.23l1.1651,0l0,1.23z" id="s_916"/><path fill="#b8af82" d="m140.5862,255.7584l-1.1629,0l-0.548,0.576l2.261,0l-0.5501,-0.576z" id="s_915"/><path fill="#80795b" d="m139.4242,255.7584l-0.549,0.576l0,-2.378l0.549,0.573l0,1.229z" id="s_914"/><path fill="#5e5b43" d="m139.4242,254.5284l-0.549,-0.574l2.2608,0l-0.55,0.574l-1.1618,0z" id="s_913"/><path fill="#9a916c" d="m140.5862,255.7584l0,-1.23l0.55,-0.573l0,2.379l-0.55,-0.576z" id="s_912"/></g><g id="s_903"><path fill="#c3b9af" d="m151.1363,259.95l1.2217,0l0,-4.0329a2.3534,2.3534 0 0 0 -4.702,-0.2125q-0.0048,0.1062 0,0.2125l0,4.0329l0.8619,0a1.4133,1.4133 0 0 1 1.4857,-1.5434c0.8576,0.1134 1.0084,0.4944 1.1327,1.5434zm0.4024,-4.0492a1.5353,1.5353 0 1 1 -1.5339,-1.6079a1.5722,1.5722 0 0 1 1.5339,1.6081l0,-0.0002z" id="s_910"/><path fill="#666" d="m152.6162,255.1463a2.6111,2.6111 0 1 1 -2.6112,-2.611l0,0a2.6109,2.6109 0 0 1 2.6109,2.6109l0,0" id="s_909"/><path fill="#8c8663" d="m150.5862,255.7584l-1.1651,0l0,-1.23l1.1651,0l0,1.23z" id="s_908"/><path fill="#b8af82" d="m150.5862,255.7584l-1.1629,0l-0.548,0.576l2.261,0l-0.5501,-0.576z" id="s_907"/><path fill="#80795b" d="m149.4242,255.7584l-0.549,0.576l0,-2.378l0.549,0.573l0,1.229z" id="s_906"/><path fill="#5e5b43" d="m149.4242,254.5284l-0.549,-0.574l2.2608,0l-0.55,0.574l-1.1618,0z" id="s_905"/><path fill="#9a916c" d="m150.5862,255.7584l0,-1.23l0.55,-0.573l0,2.379l-0.55,-0.576z" id="s_904"/></g><g id="s_895"><path fill="#c3b9af" d="m161.1363,259.95l1.2217,0l0,-4.0329a2.3534,2.3534 0 0 0 -4.702,-0.2125q-0.0048,0.1062 0,0.2125l0,4.0329l0.8619,0a1.4133,1.4133 0 0 1 1.4857,-1.5434c0.8576,0.1134 1.0084,0.4944 1.1327,1.5434zm0.4024,-4.0492a1.5353,1.5353 0 1 1 -1.5339,-1.6079a1.5722,1.5722 0 0 1 1.5339,1.6081l0,-0.0002z" id="s_902"/><path fill="#666" d="m162.6162,255.1463a2.6111,2.6111 0 1 1 -2.6112,-2.611l0,0a2.6109,2.6109 0 0 1 2.6109,2.6109l0,0" id="s_901"/><path fill="#8c8663" d="m160.5862,255.7584l-1.1651,0l0,-1.23l1.1651,0l0,1.23z" id="s_900"/><path fill="#b8af82" d="m160.5862,255.7584l-1.1629,0l-0.548,0.576l2.261,0l-0.5501,-0.576z" id="s_899"/><path fill="#80795b" d="m159.4242,255.7584l-0.549,0.576l0,-2.378l0.549,0.573l0,1.229z" id="s_898"/><path fill="#5e5b43" d="m159.4242,254.5284l-0.549,-0.574l2.2608,0l-0.55,0.574l-1.1618,0z" id="s_897"/><path fill="#9a916c" d="m160.5862,255.7584l0,-1.23l0.55,-0.573l0,2.379l-0.55,-0.576z" id="s_896"/></g><g id="s_887"><path fill="#c3b9af" d="m171.1363,259.95l1.2217,0l0,-4.0329a2.3534,2.3534 0 0 0 -4.702,-0.2125q-0.0048,0.1062 0,0.2125l0,4.0329l0.8619,0a1.4133,1.4133 0 0 1 1.4857,-1.5434c0.8576,0.1134 1.0084,0.4944 1.1327,1.5434zm0.4024,-4.0492a1.5353,1.5353 0 1 1 -1.5339,-1.6079a1.5722,1.5722 0 0 1 1.5339,1.6081l0,-0.0002z" id="s_894"/><path fill="#666" d="m172.6162,255.1463a2.6111,2.6111 0 1 1 -2.6112,-2.611l0,0a2.6109,2.6109 0 0 1 2.6109,2.6109l0,0" id="s_893"/><path fill="#8c8663" d="m170.5862,255.7584l-1.1651,0l0,-1.23l1.1651,0l0,1.23z" id="s_892"/><path fill="#b8af82" d="m170.5862,255.7584l-1.1629,0l-0.548,0.576l2.261,0l-0.5501,-0.576z" id="s_891"/><path fill="#80795b" d="m169.4242,255.7584l-0.549,0.576l0,-2.378l0.549,0.573l0,1.229z" id="s_890"/><path fill="#5e5b43" d="m169.4242,254.5284l-0.549,-0.574l2.2608,0l-0.55,0.574l-1.1618,0z" id="s_889"/><path fill="#9a916c" d="m170.5862,255.7584l0,-1.23l0.55,-0.573l0,2.379l-0.55,-0.576z" id="s_888"/></g><g id="s_879"><path fill="#c3b9af" d="m181.1363,259.95l1.2217,0l0,-4.0329a2.3534,2.3534 0 0 0 -4.702,-0.2125q-0.0048,0.1062 0,0.2125l0,4.0329l0.8619,0a1.4133,1.4133 0 0 1 1.4857,-1.5434c0.8576,0.1134 1.0084,0.4944 1.1327,1.5434zm0.4024,-4.0492a1.5353,1.5353 0 1 1 -1.5339,-1.6079a1.5722,1.5722 0 0 1 1.5339,1.6081l0,-0.0002z" id="s_886"/><path fill="#666" d="m182.6162,255.1463a2.6111,2.6111 0 1 1 -2.6112,-2.611l0,0a2.6109,2.6109 0 0 1 2.6109,2.6109l0,0" id="s_885"/><path fill="#8c8663" d="m180.5862,255.7584l-1.1651,0l0,-1.23l1.1651,0l0,1.23z" id="s_884"/><path fill="#b8af82" d="m180.5862,255.7584l-1.1629,0l-0.548,0.576l2.261,0l-0.5501,-0.576z" id="s_883"/><path fill="#80795b" d="m179.4242,255.7584l-0.549,0.576l0,-2.378l0.549,0.573l0,1.229z" id="s_882"/><path fill="#5e5b43" d="m179.4242,254.5284l-0.549,-0.574l2.2608,0l-0.55,0.574l-1.1618,0z" id="s_881"/><path fill="#9a916c" d="m180.5862,255.7584l0,-1.23l0.55,-0.573l0,2.379l-0.55,-0.576z" id="s_880"/></g><g id="s_871"><path fill="#c3b9af" d="m191.1363,259.95l1.2217,0l0,-4.0329a2.3534,2.3534 0 0 0 -4.702,-0.2125q-0.0048,0.1062 0,0.2125l0,4.0329l0.8619,0a1.4133,1.4133 0 0 1 1.4857,-1.5434c0.8576,0.1134 1.0084,0.4944 1.1327,1.5434zm0.4024,-4.0492a1.5353,1.5353 0 1 1 -1.5339,-1.6079a1.5722,1.5722 0 0 1 1.5339,1.6081l0,-0.0002z" id="s_878"/><path fill="#666" d="m192.6162,255.1463a2.6111,2.6111 0 1 1 -2.6112,-2.611l0,0a2.6109,2.6109 0 0 1 2.6109,2.6109l0,0" id="s_877"/><path fill="#8c8663" d="m190.5862,255.7584l-1.1651,0l0,-1.23l1.1651,0l0,1.23z" id="s_876"/><path fill="#b8af82" d="m190.5862,255.7584l-1.1629,0l-0.548,0.576l2.261,0l-0.5501,-0.576z" id="s_875"/><path fill="#80795b" d="m189.4242,255.7584l-0.549,0.576l0,-2.378l0.549,0.573l0,1.229z" id="s_874"/><path fill="#5e5b43" d="m189.4242,254.5284l-0.549,-0.574l2.2608,0l-0.55,0.574l-1.1618,0z" id="s_873"/><path fill="#9a916c" d="m190.5862,255.7584l0,-1.23l0.55,-0.573l0,2.379l-0.55,-0.576z" id="s_872"/></g><g id="s_863"><path fill="#c3b9af" d="m201.1363,259.95l1.2217,0l0,-4.0329a2.3534,2.3534 0 0 0 -4.702,-0.2125q-0.0048,0.1062 0,0.2125l0,4.0329l0.8619,0a1.4133,1.4133 0 0 1 1.4857,-1.5434c0.8576,0.1134 1.0084,0.4944 1.1327,1.5434zm0.4024,-4.0492a1.5353,1.5353 0 1 1 -1.5339,-1.6079a1.5722,1.5722 0 0 1 1.5339,1.6081l0,-0.0002z" id="s_870"/><path fill="#666" d="m202.6162,255.1463a2.6111,2.6111 0 1 1 -2.6112,-2.611l0,0a2.6109,2.6109 0 0 1 2.6109,2.6109l0,0" id="s_869"/><path fill="#8c8663" d="m200.5862,255.7584l-1.1651,0l0,-1.23l1.1651,0l0,1.23z" id="s_868"/><path fill="#b8af82" d="m200.5862,255.7584l-1.1629,0l-0.548,0.576l2.261,0l-0.5501,-0.576z" id="s_867"/><path fill="#80795b" d="m199.4242,255.7584l-0.549,0.576l0,-2.378l0.549,0.573l0,1.229z" id="s_866"/><path fill="#5e5b43" d="m199.4242,254.5284l-0.549,-0.574l2.2608,0l-0.55,0.574l-1.1618,0z" id="s_865"/><path fill="#9a916c" d="m200.5862,255.7584l0,-1.23l0.55,-0.573l0,2.379l-0.55,-0.576z" id="s_864"/></g><g id="s_855"><path fill="#c3b9af" d="m211.1363,259.95l1.2217,0l0,-4.0329a2.3534,2.3534 0 0 0 -4.702,-0.2125q-0.0048,0.1062 0,0.2125l0,4.0329l0.8619,0a1.4133,1.4133 0 0 1 1.4857,-1.5434c0.8576,0.1134 1.0084,0.4944 1.1327,1.5434zm0.4024,-4.0492a1.5353,1.5353 0 1 1 -1.5339,-1.6079a1.5722,1.5722 0 0 1 1.5339,1.6081l0,-0.0002z" id="s_862"/><path fill="#666" d="m212.6162,255.1463a2.6111,2.6111 0 1 1 -2.6112,-2.611l0,0a2.6109,2.6109 0 0 1 2.6109,2.6109l0,0" id="s_861"/><path fill="#8c8663" d="m210.5862,255.7584l-1.1651,0l0,-1.23l1.1651,0l0,1.23z" id="s_860"/><path fill="#b8af82" d="m210.5862,255.7584l-1.1629,0l-0.548,0.576l2.261,0l-0.5501,-0.576z" id="s_859"/><path fill="#80795b" d="m209.4242,255.7584l-0.549,0.576l0,-2.378l0.549,0.573l0,1.229z" id="s_858"/><path fill="#5e5b43" d="m209.4242,254.5284l-0.549,-0.574l2.2608,0l-0.55,0.574l-1.1618,0z" id="s_857"/><path fill="#9a916c" d="m210.5862,255.7584l0,-1.23l0.55,-0.573l0,2.379l-0.55,-0.576z" id="s_856"/></g><g id="s_847"><path fill="#c3b9af" d="m221.1363,259.95l1.2217,0l0,-4.0329a2.3534,2.3534 0 0 0 -4.702,-0.2125q-0.0048,0.1062 0,0.2125l0,4.0329l0.8619,0a1.4133,1.4133 0 0 1 1.4857,-1.5434c0.8576,0.1134 1.0084,0.4944 1.1327,1.5434zm0.4024,-4.0492a1.5353,1.5353 0 1 1 -1.5339,-1.6079a1.5722,1.5722 0 0 1 1.5339,1.6081l0,-0.0002z" id="s_854"/><path fill="#666" d="m222.6162,255.1463a2.6111,2.6111 0 1 1 -2.6112,-2.611l0,0a2.6109,2.6109 0 0 1 2.6109,2.6109l0,0" id="s_853"/><path fill="#8c8663" d="m220.5862,255.7584l-1.1651,0l0,-1.23l1.1651,0l0,1.23z" id="s_852"/><path fill="#b8af82" d="m220.5862,255.7584l-1.1629,0l-0.548,0.576l2.261,0l-0.5501,-0.576z" id="s_851"/><path fill="#80795b" d="m219.4242,255.7584l-0.549,0.576l0,-2.378l0.549,0.573l0,1.229z" id="s_850"/><path fill="#5e5b43" d="m219.4242,254.5284l-0.549,-0.574l2.2608,0l-0.55,0.574l-1.1618,0z" id="s_849"/><path fill="#9a916c" d="m220.5862,255.7584l0,-1.23l0.55,-0.573l0,2.379l-0.55,-0.576z" id="s_848"/></g><g id="s_839"><path fill="#c3b9af" d="m231.1363,259.95l1.2217,0l0,-4.0329a2.3534,2.3534 0 0 0 -4.702,-0.2125q-0.0048,0.1062 0,0.2125l0,4.0329l0.8619,0a1.4133,1.4133 0 0 1 1.4857,-1.5434c0.8576,0.1134 1.0084,0.4944 1.1327,1.5434zm0.4024,-4.0492a1.5353,1.5353 0 1 1 -1.5339,-1.6079a1.5722,1.5722 0 0 1 1.5339,1.6081l0,-0.0002z" id="s_846"/><path fill="#666" d="m232.6162,255.1463a2.6111,2.6111 0 1 1 -2.6112,-2.611l0,0a2.6109,2.6109 0 0 1 2.6109,2.6109l0,0" id="s_845"/><path fill="#8c8663" d="m230.5862,255.7584l-1.1651,0l0,-1.23l1.1651,0l0,1.23z" id="s_844"/><path fill="#b8af82" d="m230.5862,255.7584l-1.1629,0l-0.548,0.576l2.261,0l-0.5501,-0.576z" id="s_843"/><path fill="#80795b" d="m229.4242,255.7584l-0.549,0.576l0,-2.378l0.549,0.573l0,1.229z" id="s_842"/><path fill="#5e5b43" d="m229.4242,254.5284l-0.549,-0.574l2.2608,0l-0.55,0.574l-1.1618,0z" id="s_841"/><path fill="#9a916c" d="m230.5862,255.7584l0,-1.23l0.55,-0.573l0,2.379l-0.55,-0.576z" id="s_840"/></g><g id="s_831"><path fill="#c3b9af" d="m241.1363,259.95l1.2217,0l0,-4.0329a2.3534,2.3534 0 0 0 -4.702,-0.2125q-0.0048,0.1062 0,0.2125l0,4.0329l0.8619,0a1.4133,1.4133 0 0 1 1.4857,-1.5434c0.8576,0.1134 1.0084,0.4944 1.1327,1.5434zm0.4024,-4.0492a1.5353,1.5353 0 1 1 -1.5339,-1.6079a1.5722,1.5722 0 0 1 1.5339,1.6081l0,-0.0002z" id="s_838"/><path fill="#666" d="m242.6162,255.1463a2.6111,2.6111 0 1 1 -2.6112,-2.611l0,0a2.6109,2.6109 0 0 1 2.6109,2.6109l0,0" id="s_837"/><path fill="#8c8663" d="m240.5862,255.7584l-1.1651,0l0,-1.23l1.1651,0l0,1.23z" id="s_836"/><path fill="#b8af82" d="m240.5862,255.7584l-1.1629,0l-0.548,0.576l2.261,0l-0.5501,-0.576z" id="s_835"/><path fill="#80795b" d="m239.4242,255.7584l-0.549,0.576l0,-2.378l0.549,0.573l0,1.229z" id="s_834"/><path fill="#5e5b43" d="m239.4242,254.5284l-0.549,-0.574l2.2608,0l-0.55,0.574l-1.1618,0z" id="s_833"/><path fill="#9a916c" d="m240.5862,255.7584l0,-1.23l0.55,-0.573l0,2.379l-0.55,-0.576z" id="s_832"/></g><g id="s_823"><path fill="#c3b9af" d="m251.1363,259.95l1.2217,0l0,-4.0329a2.3534,2.3534 0 0 0 -4.702,-0.2125q-0.0048,0.1062 0,0.2125l0,4.0329l0.8619,0a1.4133,1.4133 0 0 1 1.4857,-1.5434c0.8576,0.1134 1.0084,0.4944 1.1327,1.5434zm0.4024,-4.0492a1.5353,1.5353 0 1 1 -1.5339,-1.6079a1.5722,1.5722 0 0 1 1.5339,1.6081l0,-0.0002z" id="s_830"/><path fill="#666" d="m252.6162,255.1463a2.6111,2.6111 0 1 1 -2.6112,-2.611l0,0a2.6109,2.6109 0 0 1 2.6109,2.6109l0,0" id="s_829"/><path fill="#8c8663" d="m250.5862,255.7584l-1.1651,0l0,-1.23l1.1651,0l0,1.23z" id="s_828"/><path fill="#b8af82" d="m250.5862,255.7584l-1.1629,0l-0.548,0.576l2.261,0l-0.5501,-0.576z" id="s_827"/><path fill="#80795b" d="m249.4242,255.7584l-0.549,0.576l0,-2.378l0.549,0.573l0,1.229z" id="s_826"/><path fill="#5e5b43" d="m249.4242,254.5284l-0.549,-0.574l2.2608,0l-0.55,0.574l-1.1618,0z" id="s_825"/><path fill="#9a916c" d="m250.5862,255.7584l0,-1.23l0.55,-0.573l0,2.379l-0.55,-0.576z" id="s_824"/></g><g id="s_815"><path fill="#c3b9af" d="m261.1363,259.95l1.2217,0l0,-4.0329a2.3534,2.3534 0 0 0 -4.702,-0.2125q-0.0048,0.1062 0,0.2125l0,4.0329l0.8619,0a1.4133,1.4133 0 0 1 1.4857,-1.5434c0.8576,0.1134 1.0084,0.4944 1.1327,1.5434zm0.4024,-4.0492a1.5353,1.5353 0 1 1 -1.5339,-1.6079a1.5722,1.5722 0 0 1 1.5339,1.6081l0,-0.0002z" id="s_822"/><path fill="#666" d="m262.6162,255.1463a2.6111,2.6111 0 1 1 -2.6112,-2.611l0,0a2.6109,2.6109 0 0 1 2.6109,2.6109l0,0" id="s_821"/><path fill="#8c8663" d="m260.5862,255.7584l-1.1651,0l0,-1.23l1.1651,0l0,1.23z" id="s_820"/><path fill="#b8af82" d="m260.5862,255.7584l-1.1629,0l-0.548,0.576l2.261,0l-0.5501,-0.576z" id="s_819"/><path fill="#80795b" d="m259.4242,255.7584l-0.549,0.576l0,-2.378l0.549,0.573l0,1.229z" id="s_818"/><path fill="#5e5b43" d="m259.4242,254.5284l-0.549,-0.574l2.2608,0l-0.55,0.574l-1.1618,0z" id="s_817"/><path fill="#9a916c" d="m260.5862,255.7584l0,-1.23l0.55,-0.573l0,2.379l-0.55,-0.576z" id="s_816"/></g><g id="s_807"><path fill="#c3b9af" d="m258.87389,189.93531l-1.2217,0l0,4.0329a2.3534,2.3534 0 0 0 4.702,0.2125q0.0048,-0.1062 0,-0.2125l0,-4.0329l-0.8619,0a1.4133,1.4133 0 0 1 -1.4857,1.5434c-0.8576,-0.1134 -1.0084,-0.4944 -1.1327,-1.5434zm-0.4024,4.0492a1.5353,1.5353 0 1 1 1.5339,1.6079a1.5722,1.5722 0 0 1 -1.5339,-1.6081l0,0.0002z" id="s_814"/><path fill="#666" d="m257.39399,194.73901a2.6111,2.6111 0 1 1 2.6112,2.611l0,0a2.6109,2.6109 0 0 1 -2.6109,-2.6109l0,0" id="s_813"/><path fill="#8c8663" d="m259.42399,194.12691l1.1651,0l0,1.23l-1.1651,0l0,-1.23z" id="s_812"/><path fill="#b8af82" d="m259.42399,194.12691l1.1629,0l0.548,-0.576l-2.261,0l0.5501,0.576z" id="s_811"/><path fill="#80795b" d="m260.58599,194.12691l0.549,-0.576l0,2.378l-0.549,-0.573l0,-1.229z" id="s_810"/><path fill="#5e5b43" d="m260.58599,195.35691l0.549,0.574l-2.2608,0l0.55,-0.574l1.1618,0z" id="s_809"/><path fill="#9a916c" d="m259.42399,194.12691l0,1.23l-0.55,0.573l0,-2.379l0.55,0.576z" id="s_808"/></g><g id="s_799"><path fill="#c3b9af" d="m248.87389,189.93531l-1.2217,0l0,4.0329a2.3534,2.3534 0 0 0 4.702,0.2125q0.0048,-0.1062 0,-0.2125l0,-4.0329l-0.8619,0a1.4133,1.4133 0 0 1 -1.4857,1.5434c-0.8576,-0.1134 -1.0084,-0.4944 -1.1327,-1.5434zm-0.4024,4.0492a1.5353,1.5353 0 1 1 1.5339,1.6079a1.5722,1.5722 0 0 1 -1.5339,-1.6081l0,0.0002z" id="s_806"/><path fill="#666" d="m247.39399,194.73901a2.6111,2.6111 0 1 1 2.6112,2.611l0,0a2.6109,2.6109 0 0 1 -2.6109,-2.6109l0,0" id="s_805"/><path fill="#8c8663" d="m249.42399,194.12691l1.1651,0l0,1.23l-1.1651,0l0,-1.23z" id="s_804"/><path fill="#b8af82" d="m249.42399,194.12691l1.1629,0l0.548,-0.576l-2.261,0l0.5501,0.576z" id="s_803"/><path fill="#80795b" d="m250.58599,194.12691l0.549,-0.576l0,2.378l-0.549,-0.573l0,-1.229z" id="s_802"/><path fill="#5e5b43" d="m250.58599,195.35691l0.549,0.574l-2.2608,0l0.55,-0.574l1.1618,0z" id="s_801"/><path fill="#9a916c" d="m249.42399,194.12691l0,1.23l-0.55,0.573l0,-2.379l0.55,0.576z" id="s_800"/></g><g id="s_791"><path fill="#c3b9af" d="m118.87389,189.93531l-1.2217,0l0,4.0329a2.3534,2.3534 0 0 0 4.702,0.2125q0.0048,-0.1062 0,-0.2125l0,-4.0329l-0.8619,0a1.4133,1.4133 0 0 1 -1.4857,1.5434c-0.8576,-0.1134 -1.0084,-0.4944 -1.1327,-1.5434zm-0.4024,4.0492a1.5353,1.5353 0 1 1 1.5339,1.6079a1.5722,1.5722 0 0 1 -1.5339,-1.6081l0,0.0002z" id="s_798"/><path fill="#666" d="m117.39399,194.73901a2.6111,2.6111 0 1 1 2.6112,2.611l0,0a2.6109,2.6109 0 0 1 -2.6109,-2.6109l0,0" id="s_797"/><path fill="#8c8663" d="m119.42399,194.12691l1.1651,0l0,1.23l-1.1651,0l0,-1.23z" id="s_796"/><path fill="#b8af82" d="m119.42399,194.12691l1.1629,0l0.548,-0.576l-2.261,0l0.5501,0.576z" id="s_795"/><path fill="#80795b" d="m120.58599,194.12691l0.549,-0.576l0,2.378l-0.549,-0.573l0,-1.229z" id="s_794"/><path fill="#5e5b43" d="m120.58599,195.35691l0.549,0.574l-2.2608,0l0.55,-0.574l1.1618,0z" id="s_793"/><path fill="#9a916c" d="m119.42399,194.12691l0,1.23l-0.55,0.573l0,-2.379l0.55,0.576z" id="s_792"/></g><g id="s_783"><path id="s_790" fill="#c3b9af" d="m238.87389,189.93531l-1.2217,0l0,4.0329a2.3534,2.3534 0 0 0 4.702,0.2125q0.0048,-0.1062 0,-0.2125l0,-4.0329l-0.8619,0a1.4133,1.4133 0 0 1 -1.4857,1.5434c-0.8576,-0.1134 -1.0084,-0.4944 -1.1327,-1.5434zm-0.4024,4.0492a1.5353,1.5353 0 1 1 1.5339,1.6079a1.5722,1.5722 0 0 1 -1.5339,-1.6081l0,0.0002z"/><path id="s_789" fill="#666" d="m237.39399,194.73901a2.6111,2.6111 0 1 1 2.6112,2.611l0,0a2.6109,2.6109 0 0 1 -2.6109,-2.6109l0,0"/><path id="s_788" fill="#8c8663" d="m239.42399,194.12691l1.1651,0l0,1.23l-1.1651,0l0,-1.23z"/><path id="s_787" fill="#b8af82" d="m239.42399,194.12691l1.1629,0l0.548,-0.576l-2.261,0l0.5501,0.576z"/><path id="s_786" fill="#80795b" d="m240.58599,194.12691l0.549,-0.576l0,2.378l-0.549,-0.573l0,-1.229z"/><path id="s_785" fill="#5e5b43" d="m240.58599,195.35691l0.549,0.574l-2.2608,0l0.55,-0.574l1.1618,0z"/><path id="s_784" fill="#9a916c" d="m239.42399,194.12691l0,1.23l-0.55,0.573l0,-2.379l0.55,0.576z"/></g><g id="s_775"><path id="s_782" fill="#c3b9af" d="m228.87389,189.93531l-1.2217,0l0,4.0329a2.3534,2.3534 0 0 0 4.702,0.2125q0.0048,-0.1062 0,-0.2125l0,-4.0329l-0.8619,0a1.4133,1.4133 0 0 1 -1.4857,1.5434c-0.8576,-0.1134 -1.0084,-0.4944 -1.1327,-1.5434zm-0.4024,4.0492a1.5353,1.5353 0 1 1 1.5339,1.6079a1.5722,1.5722 0 0 1 -1.5339,-1.6081l0,0.0002z"/><path id="s_781" fill="#666" d="m227.39399,194.73901a2.6111,2.6111 0 1 1 2.6112,2.611l0,0a2.6109,2.6109 0 0 1 -2.6109,-2.6109l0,0"/><path id="s_780" fill="#8c8663" d="m229.42399,194.12691l1.1651,0l0,1.23l-1.1651,0l0,-1.23z"/><path id="s_779" fill="#b8af82" d="m229.42399,194.12691l1.1629,0l0.548,-0.576l-2.261,0l0.5501,0.576z"/><path id="s_778" fill="#80795b" d="m230.58599,194.12691l0.549,-0.576l0,2.378l-0.549,-0.573l0,-1.229z"/><path id="s_777" fill="#5e5b43" d="m230.58599,195.35691l0.549,0.574l-2.2608,0l0.55,-0.574l1.1618,0z"/><path id="s_776" fill="#9a916c" d="m229.42399,194.12691l0,1.23l-0.55,0.573l0,-2.379l0.55,0.576z"/></g><g id="s_767"><path id="s_774" fill="#c3b9af" d="m218.87389,189.93531l-1.2217,0l0,4.0329a2.3534,2.3534 0 0 0 4.702,0.2125q0.0048,-0.1062 0,-0.2125l0,-4.0329l-0.8619,0a1.4133,1.4133 0 0 1 -1.4857,1.5434c-0.8576,-0.1134 -1.0084,-0.4944 -1.1327,-1.5434zm-0.4024,4.0492a1.5353,1.5353 0 1 1 1.5339,1.6079a1.5722,1.5722 0 0 1 -1.5339,-1.6081l0,0.0002z"/><path id="s_773" fill="#666" d="m217.39399,194.73901a2.6111,2.6111 0 1 1 2.6112,2.611l0,0a2.6109,2.6109 0 0 1 -2.6109,-2.6109l0,0"/><path id="s_772" fill="#8c8663" d="m219.42399,194.12691l1.1651,0l0,1.23l-1.1651,0l0,-1.23z"/><path id="s_771" fill="#b8af82" d="m219.42399,194.12691l1.1629,0l0.548,-0.576l-2.261,0l0.5501,0.576z"/><path id="s_770" fill="#80795b" d="m220.58599,194.12691l0.549,-0.576l0,2.378l-0.549,-0.573l0,-1.229z"/><path id="s_769" fill="#5e5b43" d="m220.58599,195.35691l0.549,0.574l-2.2608,0l0.55,-0.574l1.1618,0z"/><path id="s_768" fill="#9a916c" d="m219.42399,194.12691l0,1.23l-0.55,0.573l0,-2.379l0.55,0.576z"/></g><g id="s_759"><path id="s_766" fill="#c3b9af" d="m208.87389,189.93531l-1.2217,0l0,4.0329a2.3534,2.3534 0 0 0 4.702,0.2125q0.0048,-0.1062 0,-0.2125l0,-4.0329l-0.8619,0a1.4133,1.4133 0 0 1 -1.4857,1.5434c-0.8576,-0.1134 -1.0084,-0.4944 -1.1327,-1.5434zm-0.4024,4.0492a1.5353,1.5353 0 1 1 1.5339,1.6079a1.5722,1.5722 0 0 1 -1.5339,-1.6081l0,0.0002z"/><path id="s_765" fill="#666" d="m207.39399,194.73901a2.6111,2.6111 0 1 1 2.6112,2.611l0,0a2.6109,2.6109 0 0 1 -2.6109,-2.6109l0,0"/><path id="s_764" fill="#8c8663" d="m209.42399,194.12691l1.1651,0l0,1.23l-1.1651,0l0,-1.23z"/><path id="s_763" fill="#b8af82" d="m209.42399,194.12691l1.1629,0l0.548,-0.576l-2.261,0l0.5501,0.576z"/><path id="s_762" fill="#80795b" d="m210.58599,194.12691l0.549,-0.576l0,2.378l-0.549,-0.573l0,-1.229z"/><path id="s_761" fill="#5e5b43" d="m210.58599,195.35691l0.549,0.574l-2.2608,0l0.55,-0.574l1.1618,0z"/><path id="s_760" fill="#9a916c" d="m209.42399,194.12691l0,1.23l-0.55,0.573l0,-2.379l0.55,0.576z"/></g><g id="s_751"><path id="s_758" fill="#c3b9af" d="m198.87389,189.93531l-1.2217,0l0,4.0329a2.3534,2.3534 0 0 0 4.702,0.2125q0.0048,-0.1062 0,-0.2125l0,-4.0329l-0.8619,0a1.4133,1.4133 0 0 1 -1.4857,1.5434c-0.8576,-0.1134 -1.0084,-0.4944 -1.1327,-1.5434zm-0.4024,4.0492a1.5353,1.5353 0 1 1 1.5339,1.6079a1.5722,1.5722 0 0 1 -1.5339,-1.6081l0,0.0002z"/><path id="s_757" fill="#666" d="m197.39399,194.73901a2.6111,2.6111 0 1 1 2.6112,2.611l0,0a2.6109,2.6109 0 0 1 -2.6109,-2.6109l0,0"/><path id="s_756" fill="#8c8663" d="m199.42399,194.12691l1.1651,0l0,1.23l-1.1651,0l0,-1.23z"/><path id="s_755" fill="#b8af82" d="m199.42399,194.12691l1.1629,0l0.548,-0.576l-2.261,0l0.5501,0.576z"/><path id="s_754" fill="#80795b" d="m200.58599,194.12691l0.549,-0.576l0,2.378l-0.549,-0.573l0,-1.229z"/><path id="s_753" fill="#5e5b43" d="m200.58599,195.35691l0.549,0.574l-2.2608,0l0.55,-0.574l1.1618,0z"/><path id="s_752" fill="#9a916c" d="m199.42399,194.12691l0,1.23l-0.55,0.573l0,-2.379l0.55,0.576z"/></g><g id="s_743"><path id="s_750" fill="#c3b9af" d="m188.87389,189.93531l-1.2217,0l0,4.0329a2.3534,2.3534 0 0 0 4.702,0.2125q0.0048,-0.1062 0,-0.2125l0,-4.0329l-0.8619,0a1.4133,1.4133 0 0 1 -1.4857,1.5434c-0.8576,-0.1134 -1.0084,-0.4944 -1.1327,-1.5434zm-0.4024,4.0492a1.5353,1.5353 0 1 1 1.5339,1.6079a1.5722,1.5722 0 0 1 -1.5339,-1.6081l0,0.0002z"/><path id="s_749" fill="#666" d="m187.39399,194.73901a2.6111,2.6111 0 1 1 2.6112,2.611l0,0a2.6109,2.6109 0 0 1 -2.6109,-2.6109l0,0"/><path id="s_748" fill="#8c8663" d="m189.42399,194.12691l1.1651,0l0,1.23l-1.1651,0l0,-1.23z"/><path id="s_747" fill="#b8af82" d="m189.42399,194.12691l1.1629,0l0.548,-0.576l-2.261,0l0.5501,0.576z"/><path id="s_746" fill="#80795b" d="m190.58599,194.12691l0.549,-0.576l0,2.378l-0.549,-0.573l0,-1.229z"/><path id="s_745" fill="#5e5b43" d="m190.58599,195.35691l0.549,0.574l-2.2608,0l0.55,-0.574l1.1618,0z"/><path id="s_744" fill="#9a916c" d="m189.42399,194.12691l0,1.23l-0.55,0.573l0,-2.379l0.55,0.576z"/></g><g id="s_735"><path id="s_742" fill="#c3b9af" d="m178.87389,189.93531l-1.2217,0l0,4.0329a2.3534,2.3534 0 0 0 4.702,0.2125q0.0048,-0.1062 0,-0.2125l0,-4.0329l-0.8619,0a1.4133,1.4133 0 0 1 -1.4857,1.5434c-0.8576,-0.1134 -1.0084,-0.4944 -1.1327,-1.5434zm-0.4024,4.0492a1.5353,1.5353 0 1 1 1.5339,1.6079a1.5722,1.5722 0 0 1 -1.5339,-1.6081l0,0.0002z"/><path id="s_741" fill="#666" d="m177.39399,194.73901a2.6111,2.6111 0 1 1 2.6112,2.611l0,0a2.6109,2.6109 0 0 1 -2.6109,-2.6109l0,0"/><path id="s_740" fill="#8c8663" d="m179.42399,194.12691l1.1651,0l0,1.23l-1.1651,0l0,-1.23z"/><path id="s_739" fill="#b8af82" d="m179.42399,194.12691l1.1629,0l0.548,-0.576l-2.261,0l0.5501,0.576z"/><path id="s_738" fill="#80795b" d="m180.58599,194.12691l0.549,-0.576l0,2.378l-0.549,-0.573l0,-1.229z"/><path id="s_737" fill="#5e5b43" d="m180.58599,195.35691l0.549,0.574l-2.2608,0l0.55,-0.574l1.1618,0z"/><path id="s_736" fill="#9a916c" d="m179.42399,194.12691l0,1.23l-0.55,0.573l0,-2.379l0.55,0.576z"/></g><g id="s_727"><path id="s_734" fill="#c3b9af" d="m168.87389,189.93531l-1.2217,0l0,4.0329a2.3534,2.3534 0 0 0 4.702,0.2125q0.0048,-0.1062 0,-0.2125l0,-4.0329l-0.8619,0a1.4133,1.4133 0 0 1 -1.4857,1.5434c-0.8576,-0.1134 -1.0084,-0.4944 -1.1327,-1.5434zm-0.4024,4.0492a1.5353,1.5353 0 1 1 1.5339,1.6079a1.5722,1.5722 0 0 1 -1.5339,-1.6081l0,0.0002z"/><path id="s_733" fill="#666" d="m167.39399,194.73901a2.6111,2.6111 0 1 1 2.6112,2.611l0,0a2.6109,2.6109 0 0 1 -2.6109,-2.6109l0,0"/><path id="s_732" fill="#8c8663" d="m169.42399,194.12691l1.1651,0l0,1.23l-1.1651,0l0,-1.23z"/><path id="s_731" fill="#b8af82" d="m169.42399,194.12691l1.1629,0l0.548,-0.576l-2.261,0l0.5501,0.576z"/><path id="s_730" fill="#80795b" d="m170.58599,194.12691l0.549,-0.576l0,2.378l-0.549,-0.573l0,-1.229z"/><path id="s_729" fill="#5e5b43" d="m170.58599,195.35691l0.549,0.574l-2.2608,0l0.55,-0.574l1.1618,0z"/><path id="s_728" fill="#9a916c" d="m169.42399,194.12691l0,1.23l-0.55,0.573l0,-2.379l0.55,0.576z"/></g><g id="s_719"><path id="s_726" fill="#c3b9af" d="m158.87389,189.93531l-1.2217,0l0,4.0329a2.3534,2.3534 0 0 0 4.702,0.2125q0.0048,-0.1062 0,-0.2125l0,-4.0329l-0.8619,0a1.4133,1.4133 0 0 1 -1.4857,1.5434c-0.8576,-0.1134 -1.0084,-0.4944 -1.1327,-1.5434zm-0.4024,4.0492a1.5353,1.5353 0 1 1 1.5339,1.6079a1.5722,1.5722 0 0 1 -1.5339,-1.6081l0,0.0002z"/><path id="s_725" fill="#666" d="m157.39399,194.73901a2.6111,2.6111 0 1 1 2.6112,2.611l0,0a2.6109,2.6109 0 0 1 -2.6109,-2.6109l0,0"/><path id="s_724" fill="#8c8663" d="m159.42399,194.12691l1.1651,0l0,1.23l-1.1651,0l0,-1.23z"/><path id="s_723" fill="#b8af82" d="m159.42399,194.12691l1.1629,0l0.548,-0.576l-2.261,0l0.5501,0.576z"/><path id="s_722" fill="#80795b" d="m160.58599,194.12691l0.549,-0.576l0,2.378l-0.549,-0.573l0,-1.229z"/><path id="s_721" fill="#5e5b43" d="m160.58599,195.35691l0.549,0.574l-2.2608,0l0.55,-0.574l1.1618,0z"/><path id="s_720" fill="#9a916c" d="m159.42399,194.12691l0,1.23l-0.55,0.573l0,-2.379l0.55,0.576z"/></g><g id="s_711"><path id="s_718" fill="#c3b9af" d="m148.87389,189.93531l-1.2217,0l0,4.0329a2.3534,2.3534 0 0 0 4.702,0.2125q0.0048,-0.1062 0,-0.2125l0,-4.0329l-0.8619,0a1.4133,1.4133 0 0 1 -1.4857,1.5434c-0.8576,-0.1134 -1.0084,-0.4944 -1.1327,-1.5434zm-0.4024,4.0492a1.5353,1.5353 0 1 1 1.5339,1.6079a1.5722,1.5722 0 0 1 -1.5339,-1.6081l0,0.0002z"/><path id="s_717" fill="#666" d="m147.39399,194.73901a2.6111,2.6111 0 1 1 2.6112,2.611l0,0a2.6109,2.6109 0 0 1 -2.6109,-2.6109l0,0"/><path id="s_716" fill="#8c8663" d="m149.42399,194.12691l1.1651,0l0,1.23l-1.1651,0l0,-1.23z"/><path id="s_715" fill="#b8af82" d="m149.42399,194.12691l1.1629,0l0.548,-0.576l-2.261,0l0.5501,0.576z"/><path id="s_714" fill="#80795b" d="m150.58599,194.12691l0.549,-0.576l0,2.378l-0.549,-0.573l0,-1.229z"/><path id="s_713" fill="#5e5b43" d="m150.58599,195.35691l0.549,0.574l-2.2608,0l0.55,-0.574l1.1618,0z"/><path id="s_712" fill="#9a916c" d="m149.42399,194.12691l0,1.23l-0.55,0.573l0,-2.379l0.55,0.576z"/></g><g id="s_703"><path id="s_710" fill="#c3b9af" d="m138.87389,189.93531l-1.2217,0l0,4.0329a2.3534,2.3534 0 0 0 4.702,0.2125q0.0048,-0.1062 0,-0.2125l0,-4.0329l-0.8619,0a1.4133,1.4133 0 0 1 -1.4857,1.5434c-0.8576,-0.1134 -1.0084,-0.4944 -1.1327,-1.5434zm-0.4024,4.0492a1.5353,1.5353 0 1 1 1.5339,1.6079a1.5722,1.5722 0 0 1 -1.5339,-1.6081l0,0.0002z"/><path id="s_709" fill="#666" d="m137.39399,194.73901a2.6111,2.6111 0 1 1 2.6112,2.611l0,0a2.6109,2.6109 0 0 1 -2.6109,-2.6109l0,0"/><path id="s_708" fill="#8c8663" d="m139.42399,194.12691l1.1651,0l0,1.23l-1.1651,0l0,-1.23z"/><path id="s_707" fill="#b8af82" d="m139.42399,194.12691l1.1629,0l0.548,-0.576l-2.261,0l0.5501,0.576z"/><path id="s_706" fill="#80795b" d="m140.58599,194.12691l0.549,-0.576l0,2.378l-0.549,-0.573l0,-1.229z"/><path id="s_705" fill="#5e5b43" d="m140.58599,195.35691l0.549,0.574l-2.2608,0l0.55,-0.574l1.1618,0z"/><path id="s_704" fill="#9a916c" d="m139.42399,194.12691l0,1.23l-0.55,0.573l0,-2.379l0.55,0.576z"/></g><g id="s_696"><path id="s_702" fill="#c3b9af" d="m128.87389,189.93531l-1.2217,0l0,4.0329a2.3534,2.3534 0 0 0 4.702,0.2125q0.0048,-0.1062 0,-0.2125l0,-4.0329l-0.8619,0a1.4133,1.4133 0 0 1 -1.4857,1.5434c-0.8576,-0.1134 -1.0084,-0.4944 -1.1327,-1.5434zm-0.4024,4.0492a1.5353,1.5353 0 1 1 1.5339,1.6079a1.5722,1.5722 0 0 1 -1.5339,-1.6081l0,0.0002z"/><path id="s_701" fill="#666" d="m127.39399,194.73901a2.6111,2.6111 0 1 1 2.6112,2.611l0,0a2.6109,2.6109 0 0 1 -2.6109,-2.6109l0,0"/><path id="s_700" fill="#8c8663" d="m129.42399,194.12691l1.1651,0l0,1.23l-1.1651,0l0,-1.23z"/><path id="s_699" fill="#b8af82" d="m129.42399,194.12691l1.1629,0l0.548,-0.576l-2.261,0l0.5501,0.576z"/><path id="s_698" fill="#80795b" d="m130.58599,194.12691l0.549,-0.576l0,2.378l-0.549,-0.573l0,-1.229z"/><path id="s_697" fill="#5e5b43" d="m130.58599,195.35691l0.549,0.574l-2.2608,0l0.55,-0.574l1.1618,0z"/><path id="s_648" fill="#9a916c" d="m129.42399,194.12691l0,1.23l-0.55,0.573l0,-2.379l0.55,0.576z"/></g><text fill="#ffffff" font-size="7" text-anchor="middle" font-family="serif" stroke="null" id="s_666" y="251.15088" x="119.89844" writing-mode="tb">13</text><text fill="#ffffff" font-size="7" text-anchor="middle" font-family="serif" stroke="null" id="s_665" y="203.24463" x="120.00781" writing-mode="tb">12</text><text fill="#ffffff" font-size="8" text-anchor="middle" font-family="serif" stroke="null" id="s_695" y="247.26589" x="240.11499" writing-mode="tb">RST</text><text fill="#ffffff" font-size="8" text-anchor="middle" font-family="serif" stroke="null" id="s_694" y="245.48464" x="249.89624" writing-mode="tb">GND</text><text fill="#ffffff" font-size="8" text-anchor="middle" font-family="serif" stroke="null" id="s_693" y="247.0237" x="259.67749" writing-mode="tb">VIN</text><text fill="#ffffff" font-size="8" text-anchor="middle" font-family="serif" stroke="null" id="s_692" y="249.25808" x="229.67749" writing-mode="tb">5V</text><text fill="#ffffff" font-size="8" text-anchor="middle" font-family="serif" stroke="null" id="s_691" y="249.91432" x="190.33374" writing-mode="tb">A4</text><text fill="#ffffff" font-size="8" text-anchor="middle" font-family="serif" stroke="null" id="s_690" y="250.13307" x="200.33374" writing-mode="tb">A5</text><text fill="#ffffff" font-size="8" text-anchor="middle" font-family="serif" stroke="null" id="s_689" y="249.91432" x="210.55249" writing-mode="tb">A6</text><text fill="#ffffff" font-size="8" text-anchor="middle" font-family="serif" stroke="null" id="s_688" y="249.24245" x="220.55249" writing-mode="tb">A7</text><text fill="#ffffff" font-size="8" text-anchor="middle" font-family="serif" stroke="null" id="s_687" y="249.91432" x="150.11499" writing-mode="tb">A0</text><text fill="#ffffff" font-size="8" text-anchor="middle" font-family="serif" stroke="null" id="s_686" y="250.80495" x="160.33374" writing-mode="tb">A1</text><text fill="#ffffff" font-size="8" text-anchor="middle" font-family="serif" stroke="null" id="s_685" y="250.13307" x="170.33374" writing-mode="tb">A2</text><text fill="#ffffff" font-size="8" text-anchor="middle" font-family="serif" stroke="null" id="s_684" y="249.91432" x="180.55249" writing-mode="tb">A3</text><text fill="#ffffff" font-size="8" text-anchor="middle" font-family="serif" stroke="null" id="s_683" y="247.59401" x="140.22437" writing-mode="tb">REF</text><text fill="#ffffff" font-size="8" text-anchor="middle" font-family="serif" stroke="null" id="s_682" y="248.12995" x="129.93374" writing-mode="tb">3V3</text><text fill="#ffffff" font-size="8" text-anchor="middle" font-family="serif" stroke="null" id="s_681" y="206.79714" x="240.33374" writing-mode="tb">RST</text><text fill="#ffffff" font-size="8" text-anchor="middle" font-family="serif" stroke="null" id="s_680" y="207.87526" x="230.11499" writing-mode="tb">GND</text><text fill="#ffffff" font-size="8" text-anchor="middle" font-family="serif" stroke="null" id="s_679" y="203.93213" x="220.00781" writing-mode="tb">2</text><text fill="#ffffff" font-size="8" text-anchor="middle" font-family="serif" stroke="null" id="s_678" y="203.93213" x="210.00781" writing-mode="tb">3</text><text fill="#ffffff" font-size="8" text-anchor="middle" font-family="serif" stroke="null" id="s_677" y="203.93213" x="200.00781" writing-mode="tb">4</text><text fill="#ffffff" font-size="8" text-anchor="middle" font-family="serif" stroke="null" id="s_676" y="203.93213" x="190.00781" writing-mode="tb">5</text><text fill="#ffffff" font-size="8" text-anchor="middle" font-family="serif" stroke="null" id="s_675" y="203.93213" x="180.00781" writing-mode="tb">6</text><text fill="#ffffff" font-size="8" text-anchor="middle" font-family="serif" stroke="null" id="s_674" y="203.93213" x="170.00781" writing-mode="tb">7</text><text fill="#ffffff" font-size="8" text-anchor="middle" font-family="serif" stroke="null" id="s_673" y="203.93213" x="160.00781" writing-mode="tb">8</text><text fill="#ffffff" font-size="8" text-anchor="middle" font-family="serif" stroke="null" id="s_672" y="203.93213" x="150.00781" writing-mode="tb">9</text><text fill="#ffffff" font-size="8" text-anchor="middle" font-family="serif" stroke="null" id="s_671" y="203.93213" x="140.00781" writing-mode="tb">10</text><text fill="#ffffff" font-size="8" text-anchor="middle" font-family="serif" stroke="null" id="s_670" y="203.92432" x="130.00781" writing-mode="tb">11</text><text x="260" y="210.23682" id="s_664" stroke="null" font-family="serif" text-anchor="middle" font-size="8" fill="#ffffff" writing-mode="tb">1(TX)</text><text x="250.75" y="210.98682" id="s_663" stroke="null" font-family="serif" text-anchor="middle" font-size="8" fill="#ffffff" writing-mode="tb">0(RX)</text><g id="s_668"><path fill="#231f20" id="s_649" d="m198.263,226.5881l0,-7.0649a0.2947,0.2947 0 0 1 0.5893,-0.0109l0,7.0758a0.2947,0.2947 0 1 1 -0.5893,0.011l0,-0.011"/><path fill="#231f20" id="s_650" d="m189.4312,226.5881l0,-7.0649a0.2946,0.2946 0 1 1 0.5892,0l0,7.0649a0.2946,0.2946 0 1 1 -0.5892,0.0011l0,-0.0011"/><path fill="#d0d1d0" id="s_651" d="m190.64,229.8028l0,1.2463c0,0.3523 1.5467,0.6407 3.4371,0.6407s3.4377,-0.2884 3.4377,-0.6407l0,-1.2463l-6.8748,0z"/><path fill="#393536" id="s_652" d="m197.466,229.8061l-6.777,0l0,1.2439c0,0.3512 1.52,0.6371 3.3888,0.6371s3.3882,-0.2859 3.3882,-0.6371l0,-1.2439zm-6.8748,-0.0061l6.9726,0l0,1.25c0,0.3547 -1.5642,0.6436 -3.486,0.6436s-3.4866,-0.2889 -3.4866,-0.6436l0,-1.25z"/><path fill="#b8b9ba" id="s_653" d="m197.5148,229.8026l0,0.7549l-6.8748,0l0,-0.7549l6.8748,0z"/><path fill="#d0d1d0" id="s_654" d="m197.5151,216.2566l0,-1.4424c0,-0.4081 -1.5466,-0.7414 -3.4371,-0.7414s-3.4376,0.3333 -3.4376,0.7414l0,1.4424l6.8747,0z"/><path fill="#393536" id="s_655" d="m190.6891,216.2528l6.777,0l0,-1.4389c0,-0.4067 -1.52,-0.7374 -3.3887,-0.7374s-3.3883,0.3307 -3.3883,0.7374l0,1.4389zm6.8748,0.0075l-6.9726,0l0,-1.4464c0,-0.4106 1.5642,-0.7449 3.4861,-0.7449s3.4865,0.3343 3.4865,0.7449l0,1.4464z"/><path fill="#b8b9ba" id="s_656" d="m190.6406,216.2566l0,-0.8736l6.8747,0l0,0.8736l-6.8747,0z"/><path fill="#e9e8e8" id="s_657" d="m189.971,229.8475l0,-13.59l8.199,0l0,13.59l-8.199,0z"/><path fill="#4f4c4d" id="s_658" d="m198.0482,229.7258l0,-13.3469l-7.9555,0l0,13.3469l7.9555,0zm-8.199,0.2434l0,-13.8338l8.4425,0l0,13.8338l-8.4425,0z"/><path fill="#e9e8e8" id="s_659" d="m192.053,216.8518l0,-0.5912l4.0349,0l0,0.5912l-4.0349,0z"/><path fill="#918f90" id="s_660" d="m196.0275,216.791l0,-0.4705l-3.9141,0l0,0.4705l3.9141,0zm-4.0353,0.1214l0,-0.7124l4.1561,0l0,0.7125l-4.1561,-0.0001z"/><path fill="#e9e8e8" id="s_661" d="m192.053,229.8475l0,-0.5912l4.0349,0l0,0.5912l-4.0349,0z"/><path fill="#918f90" id="s_662" d="m196.0275,229.7871l0,-0.47l-3.9141,0l0,0.47l3.9141,0zm-4.0353,0.1207l0,-0.7125l4.1561,0l0,0.7125l-4.1561,0z"/><path fill="#f7d4a7" id="s_667" d="m194.07,226.077a3.0251,3.0251 0 1 1 3.0835,-3.0245a3.025,3.025 0 0 1 -3.0835,3.0245"/></g><g id="s_267"><rect y="234.99766" x="209" width="9.79324" height="4.93764" fill="#f2f2f2" id="s_268"/><path fill-opacity="0.7" fill="#22b573" d="m213.14233,235.14025c0,0 -0.85964,0.60159 -1.15552,0.54877c-0.29188,-0.05282 -0.72103,0.19065 -0.90096,0l0.02399,-0.54619l2.03248,-0.00258l0.00001,0z" id="s_269"/><rect y="235.83518" x="214" width="1.2808" height="1.10012" fill="#ffffff" id="s_270"/><rect y="235.83518" x="215" width="0.06531" height="1.10012" fill="#b3b3b3" id="s_271"/><polygon points="212.36932373046875,235.68902587890625 211.08590698242188,235.5550537109375 211.08590698242188,236.4967041015625 212.36932373046875,236.36273193359375 " fill="#d1c690" id="s_272"/><path fill="#d1c690" d="m212.28802,235.94279c0.00267,0 0.00533,0 0.01066,0c0.35452,0.04509 0.59575,0.13397 0.797,0.20869c0.27855,0.10306 0.74502,1.00737 1.10354,0.89658c0.03598,-0.01546 0.07997,0.01417 0.08796,0.05539c0.01066,0.04509 -0.01333,0.0876 -0.05198,0.10048c-0.4065,0.12238 -0.89829,-0.79481 -1.19017,-0.90302c-0.19725,-0.07729 -0.42382,-0.15845 -0.76235,-0.19967c-0.03865,-0.00515 -0.0733,-0.04251 -0.06531,-0.0876c0.004,-0.03736 0.03465,-0.07085 0.07064,-0.07085l0.00001,0z" id="s_273"/><polygon points="216.92742919921875,239.40673828125 218.21487426757812,239.5394287109375 218.21487426757812,238.59902954101562 216.92742919921875,238.73171997070312 " fill="#d1c690" id="s_274"/><path fill="#d1c690" d="m214.72433,237.4474c0.03332,0 0.06531,0.02576 0.0733,0.06054c0.08396,0.37615 1.45006,1.484 2.51228,1.484c0.04398,0 0.07597,0.03349 0.07597,0.08116c-0.00267,0.0438 -0.03332,0.08116 -0.07597,0.08116l-0.00267,0c-0.99825,0 -2.52028,-0.99191 -2.65622,-1.6038c-0.01066,-0.04509 0.01599,-0.0876 0.05464,-0.10048c0.00666,-0.00258 0.01199,-0.00258 0.01866,-0.00258l0.00001,0z" id="s_275"/><path fill="#d1c690" d="m214.09793,237.42937c0,0 0.47447,0.00258 0.51045,-0.40063c-0.09329,0 -0.51045,0 -0.51045,0l0,0.40063z" id="s_276"/><path fill="#d1c690" d="m214.67769,237.8403c0,0 -0.21058,-0.39419 -0.07064,-0.45216c0.14261,-0.06183 0.23723,-0.06699 0.31987,0.03607c0.0813,0.10563 -0.24923,0.41609 -0.24923,0.41609z" id="s_277"/><path fill="#9d956c" d="m214.19922,236.97979c-0.35985,0.10821 -0.82499,-0.7961 -1.10354,-0.89916c-0.19325,-0.07729 -0.43982,-0.1636 -0.797,-0.20869l0,0.076c0.35452,0.04509 0.59575,0.13397 0.797,0.20869c0.27855,0.10306 0.74502,1.00737 1.10354,0.89658l0,-0.07343l0,0.00001z" id="s_278"/><polygon points="216.92742919921875,238.6634521484375 218.21487426757812,238.52947998046875 218.21487426757812,238.59902954101562 216.92742919921875,238.73171997070312 " fill="#9d956c" id="s_279"/><path fill="#9d956c" d="m214.8003,237.4371c0.08263,0.37486 1.42607,1.56129 2.51228,1.48013l0,0.07729c-1.16885,0.07729 -2.43365,-1.10784 -2.51495,-1.484l0.00267,-0.07343l0,0.00001z" id="s_280"/><path fill="#9d956c" d="m214.60838,236.9566c-0.09329,0 -0.50779,0 -0.50779,0l0,0.07343c0,0 0.41449,0 0.50779,0l0,-0.07343z" id="s_281"/><path fill="#9d956c" d="m214.92825,237.35723c-0.08396,-0.10306 -0.17459,-0.0979 -0.3172,-0.03993l-0.00267,0.07729c0.14261,-0.06312 0.23857,-0.06699 0.31987,0.03607l0,-0.07343z" id="s_282"/><rect y="237.8696" x="212" width="5.62832" opacity="0.5" height="0.0657" fill="#ffffff" id="s_283"/><path opacity="0.55" fill="#ffffff" d="m218.12425,237.95108l0,0.3491c-0.02399,0.19452 0.01599,0.3491 -0.13061,0.3491c-0.81433,0 -6.26805,0 -6.4693,0c-0.22391,0 -0.23457,-0.08373 0.01599,-0.08373c0.17459,0 5.1885,0 5.79225,0c0.60908,0 0.69038,-0.13526 0.69038,-0.25377l-0.00267,-0.35039c0.00133,-0.23316 0.10396,-0.23316 0.10396,-0.01031z" id="s_284"/><path opacity="0.03" d="m211.2911,235.42881c0,-0.0876 -0.01599,-0.17777 0.13061,-0.17777c0.81433,0 6.22007,0 6.41999,0c0.22391,0 0.23457,0.08373 -0.01066,0.08373c-0.17992,0 -4.18225,0.00258 -4.78334,0.00258c-0.793,0.00129 -1.7566,0.09146 -1.7566,0.09146z" id="s_285"/><path fill="#d1c690" d="m219.46902,234.62497l-1.02757,0l0,0.67115c0,0.16102 -0.10662,0.27438 -0.25056,0.34524l0,3.92512l1.3461,0l0,-4.87452l0,-0.06441" id="s_286"/><path fill="#d1c690" d="m209.67711,234.62497l0,0.06312l0,4.87452l1.42874,0l0,-4.4623c-0.13994,-0.07214 -0.25456,-0.18808 -0.25456,-0.3491l0,-0.12882l-1.1062,0" id="s_287"/></g><g id="s_627"><rect y="207.99766" x="209" width="9.79324" height="4.93764" fill="#f2f2f2" id="s_647"/><path fill-opacity="0.7" fill="#22b573" d="m212.77869,208.32206c0,0 -0.85964,0.60159 -1.15552,0.54877c-0.29188,-0.05282 -0.72103,0.19065 -0.90096,0l0.02399,-0.54619l2.03248,-0.00258l0.00001,0z" id="s_646"/><rect y="209.83518" x="213" width="1.2808" height="1.10012" fill="#ffffff" id="s_645"/><rect y="209.83518" x="214" width="0.06531" height="1.10012" fill="#b3b3b3" id="s_644"/><polygon points="212.00570678710938,208.870849609375 210.72222900390625,208.73687744140625 210.72222900390625,209.67852783203125 212.00570678710938,209.5445556640625 " fill="#d1c690" id="s_643"/><path fill="#d1c690" d="m211.92438,209.1246c0.00267,0 0.00533,0 0.01066,0c0.35452,0.04509 0.59575,0.13397 0.797,0.20869c0.27855,0.10306 0.74502,1.00737 1.10354,0.89658c0.03598,-0.01546 0.07997,0.01417 0.08796,0.05539c0.01066,0.04509 -0.01333,0.0876 -0.05198,0.10048c-0.4065,0.12238 -0.89829,-0.79481 -1.19017,-0.90302c-0.19725,-0.07729 -0.42382,-0.15845 -0.76235,-0.19967c-0.03865,-0.00515 -0.0733,-0.04251 -0.06531,-0.0876c0.004,-0.03736 0.03465,-0.07085 0.07064,-0.07085l0.00001,0z" id="s_642"/><polygon points="216.56381225585938,212.58856201171875 217.85125732421875,212.72125244140625 217.85125732421875,211.78085327148438 216.56381225585938,211.91354370117188 " fill="#d1c690" id="s_641"/><path fill="#d1c690" d="m214.36069,210.62921c0.03332,0 0.06531,0.02576 0.0733,0.06054c0.08396,0.37615 1.45006,1.484 2.51228,1.484c0.04398,0 0.07597,0.03349 0.07597,0.08116c-0.00267,0.0438 -0.03332,0.08116 -0.07597,0.08116l-0.00267,0c-0.99825,0 -2.52028,-0.99191 -2.65622,-1.6038c-0.01066,-0.04509 0.01599,-0.0876 0.05464,-0.10048c0.00666,-0.00258 0.01199,-0.00258 0.01866,-0.00258l0.00001,0z" id="s_640"/><path fill="#d1c690" d="m213.73429,210.61118c0,0 0.47447,0.00258 0.51045,-0.40063c-0.09329,0 -0.51045,0 -0.51045,0l0,0.40063z" id="s_639"/><path fill="#d1c690" d="m214.31405,211.02211c0,0 -0.21058,-0.39419 -0.07064,-0.45216c0.14261,-0.06183 0.23723,-0.06699 0.31987,0.03607c0.0813,0.10563 -0.24923,0.41609 -0.24923,0.41609z" id="s_638"/><path fill="#9d956c" d="m213.83558,210.1616c-0.35985,0.10821 -0.82499,-0.7961 -1.10354,-0.89916c-0.19325,-0.07729 -0.43982,-0.1636 -0.797,-0.20869l0,0.076c0.35452,0.04509 0.59575,0.13397 0.797,0.20869c0.27855,0.10306 0.74502,1.00737 1.10354,0.89658l0,-0.07343l0,0.00001z" id="s_637"/><polygon points="216.56381225585938,211.84527587890625 217.85125732421875,211.7113037109375 217.85125732421875,211.78085327148438 216.56381225585938,211.91354370117188 " fill="#9d956c" id="s_636"/><path fill="#9d956c" d="m214.43666,210.61891c0.08263,0.37486 1.42607,1.56129 2.51228,1.48013l0,0.07729c-1.16885,0.07729 -2.43365,-1.10784 -2.51495,-1.484l0.00267,-0.07343l0,0.00001z" id="s_635"/><path fill="#9d956c" d="m214.24474,210.13841c-0.09329,0 -0.50779,0 -0.50779,0l0,0.07343c0,0 0.41449,0 0.50779,0l0,-0.07343z" id="s_634"/><path fill="#9d956c" d="m214.56461,210.53904c-0.08396,-0.10306 -0.17459,-0.0979 -0.3172,-0.03993l-0.00267,0.07729c0.14261,-0.06312 0.23857,-0.06699 0.31987,0.03607l0,-0.07343z" id="s_633"/><rect y="210.8696" x="212" width="5.62832" opacity="0.5" height="0.0657" fill="#ffffff" id="s_632"/><path opacity="0.55" fill="#ffffff" d="m217.76061,211.13289l0,0.3491c-0.02399,0.19452 0.01599,0.3491 -0.13061,0.3491c-0.81433,0 -6.26805,0 -6.4693,0c-0.22391,0 -0.23457,-0.08373 0.01599,-0.08373c0.17459,0 5.1885,0 5.79225,0c0.60908,0 0.69038,-0.13526 0.69038,-0.25377l-0.00267,-0.35039c0.00133,-0.23316 0.10396,-0.23316 0.10396,-0.01031z" id="s_631"/><path opacity="0.03" d="m210.92746,208.61062c0,-0.0876 -0.01599,-0.17777 0.13061,-0.17777c0.81433,0 6.22007,0 6.41999,0c0.22391,0 0.23457,0.08373 -0.01066,0.08373c-0.17992,0 -4.18225,0.00258 -4.78334,0.00258c-0.793,0.00129 -1.7566,0.09146 -1.7566,0.09146z" id="s_630"/><path fill="#d1c690" d="m219.10538,207.80678l-1.02757,0l0,0.67115c0,0.16102 -0.10662,0.27438 -0.25056,0.34524l0,3.92512l1.3461,0l0,-4.87452l0,-0.06441" id="s_629"/><path fill="#d1c690" d="m209.31347,207.80678l0,0.06312l0,4.87452l1.42874,0l0,-4.4623c-0.13994,-0.07214 -0.25456,-0.18808 -0.25456,-0.3491l0,-0.12882l-1.1062,0" id="s_628"/></g><g id="s_606"><rect y="216.99766" x="209" width="9.79324" height="4.93764" fill="#f2f2f2" id="s_626"/><path fill-opacity="0.7" fill="#22b573" d="m212.96051,217.32206c0,0 -0.85964,0.60159 -1.15552,0.54877c-0.29188,-0.05282 -0.72103,0.19065 -0.90096,0l0.02399,-0.54619l2.03248,-0.00258l0.00001,0z" id="s_625"/><rect y="218.83518" x="213" width="1.2808" height="1.10012" fill="#ffffff" id="s_624"/><rect y="218.83518" x="215" width="0.06531" height="1.10012" fill="#b3b3b3" id="s_623"/><polygon points="212.1875,217.870849609375 210.90408325195312,217.73687744140625 210.90408325195312,218.67852783203125 212.1875,218.5445556640625 " fill="#d1c690" id="s_622"/><path fill="#d1c690" d="m212.1062,218.1246c0.00267,0 0.00533,0 0.01066,0c0.35452,0.04509 0.59575,0.13397 0.797,0.20869c0.27855,0.10306 0.74502,1.00737 1.10354,0.89658c0.03598,-0.01546 0.07997,0.01417 0.08796,0.05539c0.01066,0.04509 -0.01333,0.0876 -0.05198,0.10048c-0.4065,0.12238 -0.89829,-0.79481 -1.19017,-0.90302c-0.19725,-0.07729 -0.42382,-0.15845 -0.76235,-0.19967c-0.03865,-0.00515 -0.0733,-0.04251 -0.06531,-0.0876c0.004,-0.03736 0.03465,-0.07085 0.07064,-0.07085l0.00001,0z" id="s_621"/><polygon points="216.74560546875,221.58856201171875 218.03305053710938,221.72125244140625 218.03305053710938,220.78085327148438 216.74560546875,220.91354370117188 " fill="#d1c690" id="s_620"/><path fill="#d1c690" d="m214.54251,219.62921c0.03332,0 0.06531,0.02576 0.0733,0.06054c0.08396,0.37615 1.45006,1.484 2.51228,1.484c0.04398,0 0.07597,0.03349 0.07597,0.08116c-0.00267,0.0438 -0.03332,0.08116 -0.07597,0.08116l-0.00267,0c-0.99825,0 -2.52028,-0.99191 -2.65622,-1.6038c-0.01066,-0.04509 0.01599,-0.0876 0.05464,-0.10048c0.00666,-0.00258 0.01199,-0.00258 0.01866,-0.00258l0.00001,0z" id="s_619"/><path fill="#d1c690" d="m213.91611,219.61118c0,0 0.47447,0.00258 0.51045,-0.40063c-0.09329,0 -0.51045,0 -0.51045,0l0,0.40063z" id="s_618"/><path fill="#d1c690" d="m214.49587,220.02211c0,0 -0.21058,-0.39419 -0.07064,-0.45216c0.14261,-0.06183 0.23723,-0.06699 0.31987,0.03607c0.0813,0.10563 -0.24923,0.41609 -0.24923,0.41609z" id="s_617"/><path fill="#9d956c" d="m214.0174,219.1616c-0.35985,0.10821 -0.82499,-0.7961 -1.10354,-0.89916c-0.19325,-0.07729 -0.43982,-0.1636 -0.797,-0.20869l0,0.076c0.35452,0.04509 0.59575,0.13397 0.797,0.20869c0.27855,0.10306 0.74502,1.00737 1.10354,0.89658l0,-0.07343l0,0.00001z" id="s_616"/><polygon points="216.74560546875,220.84527587890625 218.03305053710938,220.7113037109375 218.03305053710938,220.78085327148438 216.74560546875,220.91354370117188 " fill="#9d956c" id="s_615"/><path fill="#9d956c" d="m214.61848,219.61891c0.08263,0.37486 1.42607,1.56129 2.51228,1.48013l0,0.07729c-1.16885,0.07729 -2.43365,-1.10784 -2.51495,-1.484l0.00267,-0.07343l0,0.00001z" id="s_614"/><path fill="#9d956c" d="m214.42656,219.13841c-0.09329,0 -0.50779,0 -0.50779,0l0,0.07343c0,0 0.41449,0 0.50779,0l0,-0.07343z" id="s_613"/><path fill="#9d956c" d="m214.74643,219.53904c-0.08396,-0.10306 -0.17459,-0.0979 -0.3172,-0.03993l-0.00267,0.07729c0.14261,-0.06312 0.23857,-0.06699 0.31987,0.03607l0,-0.07343z" id="s_612"/><rect y="219.8696" x="212" width="5.62832" opacity="0.5" height="0.0657" fill="#ffffff" id="s_611"/><path opacity="0.55" fill="#ffffff" d="m217.94243,220.13289l0,0.3491c-0.02399,0.19452 0.01599,0.3491 -0.13061,0.3491c-0.81433,0 -6.26805,0 -6.4693,0c-0.22391,0 -0.23457,-0.08373 0.01599,-0.08373c0.17459,0 5.1885,0 5.79225,0c0.60908,0 0.69038,-0.13526 0.69038,-0.25377l-0.00267,-0.35039c0.00133,-0.23316 0.10396,-0.23316 0.10396,-0.01031z" id="s_610"/><path opacity="0.03" d="m211.10928,217.61062c0,-0.0876 -0.01599,-0.17777 0.13061,-0.17777c0.81433,0 6.22007,0 6.41999,0c0.22391,0 0.23457,0.08373 -0.01066,0.08373c-0.17992,0 -4.18225,0.00258 -4.78334,0.00258c-0.793,0.00129 -1.7566,0.09146 -1.7566,0.09146z" id="s_609"/><path fill="#d1c690" d="m219.2872,216.80678l-1.02757,0l0,0.67115c0,0.16102 -0.10662,0.27438 -0.25056,0.34524l0,3.92512l1.3461,0l0,-4.87452l0,-0.06441" id="s_608"/><path fill="#d1c690" d="m209.49529,216.80678l0,0.06312l0,4.87452l1.42874,0l0,-4.4623c-0.13994,-0.07214 -0.25456,-0.18808 -0.25456,-0.3491l0,-0.12882l-1.1062,0" id="s_607"/></g><g id="s_585"><rect y="225.99766" x="209" width="9.79324" height="4.93764" fill="#f2f2f2" id="s_605"/><path fill-opacity="0.7" fill="#22b573" d="m212.77869,226.41297c0,0 -0.85964,0.60159 -1.15552,0.54877c-0.29188,-0.05282 -0.72103,0.19065 -0.90096,0l0.02399,-0.54619l2.03248,-0.00258l0.00001,0z" id="s_604"/><rect y="227.83518" x="213" width="1.2808" height="1.10012" fill="#ffffff" id="s_603"/><rect y="227.83518" x="214" width="0.06531" height="1.10012" fill="#b3b3b3" id="s_602"/><polygon points="212.00570678710938,226.96176147460938 210.72222900390625,226.82778930664062 210.72222900390625,227.76943969726562 212.00570678710938,227.63546752929688 " fill="#d1c690" id="s_601"/><path fill="#d1c690" d="m211.92438,227.21551c0.00267,0 0.00533,0 0.01066,0c0.35452,0.04509 0.59575,0.13397 0.797,0.20869c0.27855,0.10306 0.74502,1.00737 1.10354,0.89658c0.03598,-0.01546 0.07997,0.01417 0.08796,0.05539c0.01066,0.04509 -0.01333,0.0876 -0.05198,0.10048c-0.4065,0.12238 -0.89829,-0.79481 -1.19017,-0.90302c-0.19725,-0.07729 -0.42382,-0.15845 -0.76235,-0.19967c-0.03865,-0.00515 -0.0733,-0.04251 -0.06531,-0.0876c0.004,-0.03736 0.03465,-0.07085 0.07064,-0.07085l0.00001,0z" id="s_600"/><polygon points="216.56381225585938,230.67947387695312 217.85125732421875,230.81216430664062 217.85125732421875,229.87176513671875 216.56381225585938,230.00445556640625 " fill="#d1c690" id="s_599"/><path fill="#d1c690" d="m214.36069,228.72012c0.03332,0 0.06531,0.02576 0.0733,0.06054c0.08396,0.37615 1.45006,1.484 2.51228,1.484c0.04398,0 0.07597,0.03349 0.07597,0.08116c-0.00267,0.0438 -0.03332,0.08116 -0.07597,0.08116l-0.00267,0c-0.99825,0 -2.52028,-0.99191 -2.65622,-1.6038c-0.01066,-0.04509 0.01599,-0.0876 0.05464,-0.10048c0.00666,-0.00258 0.01199,-0.00258 0.01866,-0.00258l0.00001,0z" id="s_598"/><path fill="#d1c690" d="m213.73429,228.70209c0,0 0.47447,0.00258 0.51045,-0.40063c-0.09329,0 -0.51045,0 -0.51045,0l0,0.40063z" id="s_597"/><path fill="#d1c690" d="m214.31405,229.11302c0,0 -0.21058,-0.39419 -0.07064,-0.45216c0.14261,-0.06183 0.23723,-0.06699 0.31987,0.03607c0.0813,0.10563 -0.24923,0.41609 -0.24923,0.41609z" id="s_596"/><path fill="#9d956c" d="m213.83558,228.25251c-0.35985,0.10821 -0.82499,-0.7961 -1.10354,-0.89916c-0.19325,-0.07729 -0.43982,-0.1636 -0.797,-0.20869l0,0.076c0.35452,0.04509 0.59575,0.13397 0.797,0.20869c0.27855,0.10306 0.74502,1.00737 1.10354,0.89658l0,-0.07343l0,0.00001z" id="s_595"/><polygon points="216.56381225585938,229.93618774414062 217.85125732421875,229.80221557617188 217.85125732421875,229.87176513671875 216.56381225585938,230.00445556640625 " fill="#9d956c" id="s_594"/><path fill="#9d956c" d="m214.43666,228.70982c0.08263,0.37486 1.42607,1.56129 2.51228,1.48013l0,0.07729c-1.16885,0.07729 -2.43365,-1.10784 -2.51495,-1.484l0.00267,-0.07343l0,0.00001z" id="s_593"/><path fill="#9d956c" d="m214.24474,228.22932c-0.09329,0 -0.50779,0 -0.50779,0l0,0.07343c0,0 0.41449,0 0.50779,0l0,-0.07343z" id="s_592"/><path fill="#9d956c" d="m214.56461,228.62995c-0.08396,-0.10306 -0.17459,-0.0979 -0.3172,-0.03993l-0.00267,0.07729c0.14261,-0.06312 0.23857,-0.06699 0.31987,0.03607l0,-0.07343z" id="s_591"/><rect y="228.8696" x="212" width="5.62832" opacity="0.5" height="0.0657" fill="#ffffff" id="s_590"/><path opacity="0.55" fill="#ffffff" d="m217.76061,229.2238l0,0.3491c-0.02399,0.19452 0.01599,0.3491 -0.13061,0.3491c-0.81433,0 -6.26805,0 -6.4693,0c-0.22391,0 -0.23457,-0.08373 0.01599,-0.08373c0.17459,0 5.1885,0 5.79225,0c0.60908,0 0.69038,-0.13526 0.69038,-0.25377l-0.00267,-0.35039c0.00133,-0.23316 0.10396,-0.23316 0.10396,-0.01031z" id="s_589"/><path opacity="0.03" d="m210.92746,226.70153c0,-0.0876 -0.01599,-0.17777 0.13061,-0.17777c0.81433,0 6.22007,0 6.41999,0c0.22391,0 0.23457,0.08373 -0.01066,0.08373c-0.17992,0 -4.18225,0.00258 -4.78334,0.00258c-0.793,0.00129 -1.7566,0.09146 -1.7566,0.09146z" id="s_588"/><path fill="#d1c690" d="m219.10538,225.89769l-1.02757,0l0,0.67115c0,0.16102 -0.10662,0.27438 -0.25056,0.34524l0,3.92512l1.3461,0l0,-4.87452l0,-0.06441" id="s_587"/><path fill="#d1c690" d="m209.31347,225.89769l0,0.06312l0,4.87452l1.42874,0l0,-4.4623c-0.13994,-0.07214 -0.25456,-0.18808 -0.25456,-0.3491l0,-0.12882l-1.1062,0" id="s_586"/></g><polygon fill="#191919" id="s_584" points="174.74452209472656,223.8348388671875 160.94778442382812,237.84075927734375 147.15106201171875,223.8348388671875 160.94778442382812,209.82891845703125 174.74452209472656,223.8348388671875 " stroke="#000000"/><text x="240" y="229.00244" id="s_583" stroke="null" font-family="serif" text-anchor="middle" font-size="10" fill="#ffffff">Nano</text></g></g><g id="s_964"><path id="s_1075" fill="#033d62" d="m479.68615,258.66882l-139.63989,0l0,-67.13773l139.63989,0l0,67.13773z"/><g id="s_1059"><path id="s_1074" fill="#231f20" d="m389.90959,201.11331l7.0649,0a0.2947,0.2947 0 0 1 0.0109,0.5893l-7.0758,0a0.2947,0.2947 0 1 1 -0.011,-0.5893l0.011,0"/><path id="s_1073" fill="#231f20" d="m389.90959,192.28151l7.0649,0a0.2946,0.2946 0 1 1 0,0.5892l-7.0649,0a0.2946,0.2946 0 1 1 -0.0011,-0.5892l0.0011,0"/><path id="s_1072" fill="#d0d1d0" d="m386.69489,193.49031l-1.2463,0c-0.3523,0 -0.6407,1.5467 -0.6407,3.4371s0.2884,3.4377 0.6407,3.4377l1.2463,0l0,-6.8748z"/><path id="s_1071" fill="#393536" d="m386.69159,200.31631l0,-6.777l-1.2439,0c-0.3512,0 -0.6371,1.52 -0.6371,3.3888s0.2859,3.3882 0.6371,3.3882l1.2439,0zm0.0061,-6.8748l0,6.9726l-1.25,0c-0.3547,0 -0.6436,-1.5642 -0.6436,-3.486s0.2889,-3.4866 0.6436,-3.4866l1.25,0z"/><path id="s_1070" fill="#b8b9ba" d="m386.69509,200.36511l-0.7549,0l0,-6.8748l0.7549,0l0,6.8748z"/><path id="s_1069" fill="#d0d1d0" d="m400.24109,200.36541l1.4424,0c0.4081,0 0.7414,-1.5466 0.7414,-3.4371s-0.3333,-3.4376 -0.7414,-3.4376l-1.4424,0l0,6.8747z"/><path id="s_1068" fill="#393536" d="m400.24489,193.53941l0,6.777l1.4389,0c0.4067,0 0.7374,-1.52 0.7374,-3.3887s-0.3307,-3.3883 -0.7374,-3.3883l-1.4389,0zm-0.0075,6.8748l0,-6.9726l1.4464,0c0.4106,0 0.7449,1.5642 0.7449,3.4861s-0.3343,3.4865 -0.7449,3.4865l-1.4464,0z"/><path id="s_1067" fill="#b8b9ba" d="m400.24109,193.49091l0.8736,0l0,6.8747l-0.8736,0l0,-6.8747z"/><path id="s_1066" fill="#e9e8e8" d="m386.65019,192.82131l13.59,0l0,8.199l-13.59,0l0,-8.199z"/><path id="s_1065" fill="#4f4c4d" d="m386.77189,200.89851l13.3469,0l0,-7.9555l-13.3469,0l0,7.9555zm-0.2434,-8.199l13.8338,0l0,8.4425l-13.8338,0l0,-8.4425z"/><path id="s_1064" fill="#e9e8e8" d="m399.64589,194.90331l0.5912,0l0,4.0349l-0.5912,0l0,-4.0349z"/><path id="s_1063" fill="#918f90" d="m399.70669,198.87781l0.4705,0l0,-3.9141l-0.4705,0l0,3.9141zm-0.1214,-4.0353l0.7124,0l0,4.1561l-0.7125,0l0.0001,-4.1561z"/><path id="s_1062" fill="#e9e8e8" d="m386.65019,194.90331l0.5912,0l0,4.0349l-0.5912,0l0,-4.0349z"/><path id="s_1061" fill="#918f90" d="m386.71059,198.87781l0.47,0l0,-3.9141l-0.47,0l0,3.9141zm-0.1207,-4.0353l0.7125,0l0,4.1561l-0.7125,0l0,-4.1561z"/><path id="s_1060" fill="#000" d="m390.42069,196.92031a3.0251,3.0251 0 1 1 3.0245,3.0835a3.025,3.025 0 0 1 -3.0245,-3.0835"/></g><g id="s_1037"><rect y="247.40668" x="368" width="4.93764" id="s_1057" height="9.79324" fill="#f2f2f2"/><path id="s_1056" fill-opacity="0.7" fill="#22b573" d="m372.37051,250.10553c0,0 -0.60159,-0.85964 -0.54877,-1.15552c0.05282,-0.29188 -0.19065,-0.72103 0,-0.90096l0.54619,0.02399l0.00258,2.03248l0,0.00001z"/><rect y="251.91912" x="370" width="1.10012" id="s_1055" height="1.2808" fill="#ffffff"/><rect y="253.13461" x="370" width="1.10012" id="s_1054" height="0.06531" fill="#b3b3b3"/><polygon points="371.82177734375,249.33255004882812 371.95574951171875,248.04910278320312 371.01409912109375,248.04910278320312 371.1480712890625,249.33255004882812 " id="s_1053" fill="#d1c690"/><path id="s_1052" fill="#d1c690" d="m371.56797,249.25122c0,0.00267 0,0.00533 0,0.01066c-0.04509,0.35452 -0.13397,0.59575 -0.20869,0.797c-0.10306,0.27855 -1.00737,0.74502 -0.89658,1.10354c0.01546,0.03598 -0.01417,0.07997 -0.05539,0.08796c-0.04509,0.01066 -0.0876,-0.01333 -0.10048,-0.05198c-0.12238,-0.4065 0.79481,-0.89829 0.90302,-1.19017c0.07729,-0.19725 0.15845,-0.42382 0.19967,-0.76235c0.00515,-0.03865 0.04251,-0.0733 0.0876,-0.06531c0.03736,0.004 0.07085,0.03465 0.07085,0.07064l0,0.00001z"/><polygon points="368.10400390625,253.89065551757812 367.97137451171875,255.1781005859375 368.9117431640625,255.1781005859375 368.779052734375,253.89065551757812 " id="s_1051" fill="#d1c690"/><path id="s_1050" fill="#d1c690" d="m370.06336,251.68753c0,0.03332 -0.02576,0.06531 -0.06054,0.0733c-0.37615,0.08396 -1.484,1.45006 -1.484,2.51228c0,0.04398 -0.03349,0.07597 -0.08116,0.07597c-0.0438,-0.00267 -0.08116,-0.03332 -0.08116,-0.07597l0,-0.00267c0,-0.99825 0.99191,-2.52028 1.6038,-2.65622c0.04509,-0.01066 0.0876,0.01599 0.10048,0.05464c0.00258,0.00666 0.00258,0.01199 0.00258,0.01866l0,0.00001z"/><path id="s_1049" fill="#d1c690" d="m370.08139,251.06113c0,0 -0.00258,0.47447 0.40063,0.51045c0,-0.09329 0,-0.51045 0,-0.51045l-0.40063,0z"/><path id="s_1048" fill="#d1c690" d="m369.67046,251.64089c0,0 0.39419,-0.21058 0.45216,-0.07064c0.06183,0.14261 0.06699,0.23723 -0.03607,0.31987c-0.10563,0.0813 -0.41609,-0.24923 -0.41609,-0.24923z"/><path id="s_1047" fill="#9d956c" d="m370.53097,251.16242c-0.10821,-0.35985 0.7961,-0.82499 0.89916,-1.10354c0.07729,-0.19325 0.1636,-0.43982 0.20869,-0.797l-0.076,0c-0.04509,0.35452 -0.13397,0.59575 -0.20869,0.797c-0.10306,0.27855 -1.00737,0.74502 -0.89658,1.10354l0.07343,0l-0.00001,0z"/><polygon points="368.84735107421875,253.89065551757812 368.98126220703125,255.1781005859375 368.9117431640625,255.1781005859375 368.779052734375,253.89065551757812 " id="s_1046" fill="#9d956c"/><path id="s_1045" fill="#9d956c" d="m370.07366,251.7635c-0.37486,0.08263 -1.56129,1.42607 -1.48013,2.51228l-0.07729,0c-0.07729,-1.16885 1.10784,-2.43365 1.484,-2.51495l0.07343,0.00267l-0.00001,0z"/><path id="s_1044" fill="#9d956c" d="m370.55416,251.57158c0,-0.09329 0,-0.50779 0,-0.50779l-0.07343,0c0,0 0,0.41449 0,0.50779l0.07343,0z"/><path id="s_1043" fill="#9d956c" d="m370.15353,251.89145c0.10306,-0.08396 0.0979,-0.17459 0.03993,-0.3172l-0.07729,-0.00267c0.06312,0.14261 0.06699,0.23857 -0.03607,0.31987l0.07343,0z"/><rect y="249.5716" x="370" width="0.0657" opacity="0.5" id="s_1042" height="5.62832" fill="#ffffff"/><path opacity="0.55" id="s_1041" fill="#ffffff" d="m369.55968,255.08745l-0.3491,0c-0.19452,-0.02399 -0.3491,0.01599 -0.3491,-0.13061c0,-0.81433 0,-6.26805 0,-6.4693c0,-0.22391 0.08373,-0.23457 0.08373,0.01599c0,0.17459 0,5.1885 0,5.79225c0,0.60908 0.13526,0.69038 0.25377,0.69038l0.35039,-0.00267c0.23316,0.00133 0.23316,0.10396 0.01031,0.10396z"/><path opacity="0.03" id="s_1040" d="m372.08195,248.2543c0.0876,0 0.17777,-0.01599 0.17777,0.13061c0,0.81433 0,6.22007 0,6.41999c0,0.22391 -0.08373,0.23457 -0.08373,-0.01066c0,-0.17992 -0.00258,-4.18225 -0.00258,-4.78334c-0.00129,-0.793 -0.09146,-1.7566 -0.09146,-1.7566z"/><path id="s_1039" fill="#d1c690" d="m372.88579,256.43222l0,-1.02757l-0.67115,0c-0.16102,0 -0.27438,-0.10662 -0.34524,-0.25056l-3.92512,0l0,1.3461l4.87452,0l0.06441,0"/><path id="s_1038" fill="#d1c690" d="m372.88579,246.64031l-0.06312,0l-4.87452,0l0,1.42874l4.4623,0c0.07214,-0.13994 0.18808,-0.25456 0.3491,-0.25456l0.12882,0l0,-1.1062"/></g><g id="s_1034"><path stroke-width="1.802" stroke-opacity="0.0129" id="s_1036" fill="#666666" d="m350.58434,202.81236l-1.5,1.5l-5.5,0l-1.5,-1.5l0,-5.5l1.5,-1.5l5.5,0l1.5,1.5l0,5.5z"/><path stroke-width="1.2355" stroke-opacity="0.0129" id="s_1035" fill="#ccbb00" d="m346.15743,201.68759l-16,0l0,-3l16,0l0,3z"/></g><g id="s_986"><path stroke-width="0.1" stroke="#014201" id="s_1033" fill="#007f00" d="m477.8611,252.8297l-97.76456,0l0,-45.15213l97.76456,0l0,45.15213z"/><path id="s_1032" fill="#333333" d="m444.18468,247.5802l-26.75399,0l0,-26.05854l26.75399,0l0,26.05854z"/><path id="s_1031" fill="#d4aa00" d="m475.11069,249.66445l-19.25287,0l0,-37.947l19.25287,0l0,37.947z"/><path id="s_1030" fill="#007f00" d="m459.50214,247.62299l-3.87558,0l0,-37.46666l3.87558,0l0,37.46666z"/><path id="s_1029" fill="#007f00" d="m472.73533,247.62299l-13.62703,0l0,-2.40171l13.62703,0l0,2.40171z"/><path id="s_1028" fill="#007f00" d="m475.42323,243.17983l-13.62703,0l0,-2.40171l13.62703,0l0,2.40171z"/><path id="s_1027" fill="#007f00" d="m472.79784,238.85676l-13.62703,0l0,-2.40171l13.62703,0l0,2.40171z"/><path id="s_1026" fill="#007f00" d="m475.23571,234.53368l-13.62703,0l0,-2.40171l13.62703,0l0,2.40171z"/><path id="s_1025" fill="#007f00" d="m472.61031,230.21061l-13.62703,0l0,-2.40171l13.62703,0l0,2.40171z"/><path id="s_1024" fill="#007f00" d="m475.36072,225.52727l-13.62703,0l0,-2.40171l13.62703,0l0,2.40171z"/><path id="s_1023" fill="#007f00" d="m472.73533,221.24683l-13.62703,0l0,-2.40171l13.62703,0l0,2.40171z"/><path id="s_1022" fill="#ccbb00" d="m453.10741,256.50932l-3.5,0l0,-5.6l3.5,0l0,5.6z"/><path id="s_1021" fill="#ccbb00" d="m447.73161,256.56936l-3.5,0l0,-5.6l3.5,0l0,5.6z"/><path id="s_1020" fill="#ccbb00" d="m442.04326,256.65942l-3.5,0l0,-5.6l3.5,0l0,5.6z"/><path id="s_1019" fill="#ccbb00" d="m436.66746,256.71946l-3.5,0l0,-5.6l3.5,0l0,5.6z"/><path id="s_1018" fill="#ccbb00" d="m431.1979,256.70445l-3.5,0l0,-5.6l3.5,0l0,5.6z"/><path id="s_1017" fill="#ccbb00" d="m425.82209,256.7645l-3.5,0l0,-5.6l3.5,0l0,5.6z"/><path id="s_1016" fill="#ccbb00" d="m420.13375,256.85456l-3.5,0l0,-5.6l3.5,0l0,5.6z"/><path id="s_1015" fill="#ccbb00" d="m414.75794,256.9146l-3.5,0l0,-5.6l3.5,0l0,5.6z"/><path id="s_1014" fill="#ccbb00" d="m409.69469,256.70445l-3.5,0l0,-5.6l3.5,0l0,5.6z"/><path id="s_1013" fill="#ccbb00" d="m404.31889,256.7645l-3.5,0l0,-5.6l3.5,0l0,5.6z"/><path id="s_1012" fill="#ccbb00" d="m398.63054,256.85456l-3.5,0l0,-5.6l3.5,0l0,5.6z"/><path id="s_1011" fill="#ccbb00" d="m393.25474,256.9146l-3.5,0l0,-5.6l3.5,0l0,5.6z"/><path id="s_1010" fill="#ccbb00" d="m387.84768,256.80953l-3.5,0l0,-5.6l3.5,0l0,5.6z"/><path id="s_1009" fill="#ccbb00" d="m453.10741,209.04762l-3.5,0l0,-5.6l3.5,0l0,5.6z"/><path id="s_1008" fill="#ccbb00" d="m447.73161,209.10766l-3.5,0l0,-5.6l3.5,0l0,5.6z"/><path id="s_1007" fill="#ccbb00" d="m442.04326,208.96299l-3.5,0l0,-5.6l3.5,0l0,5.6z"/><path id="s_1006" fill="#ccbb00" d="m436.66746,209.02303l-3.5,0l0,-5.6l3.5,0l0,5.6z"/><path id="s_1005" fill="#ccbb00" d="m431.35688,209.00802l-3.5,0l0,-5.6l3.5,0l0,5.6z"/><path id="s_1004" fill="#ccbb00" d="m425.82209,209.06806l-3.5,0l0,-5.6l3.5,0l0,5.6z"/><path id="s_1003" fill="#ccbb00" d="m419.97477,209.15813l-3.5,0l0,-5.6l3.5,0l0,5.6z"/><path id="s_1002" fill="#ccbb00" d="m414.75794,209.21817l-3.5,0l0,-5.6l3.5,0l0,5.6z"/><path id="s_1001" fill="#ccbb00" d="m409.69469,209.00802l-3.5,0l0,-5.6l3.5,0l0,5.6z"/><path id="s_1000" fill="#ccbb00" d="m404.31889,209.06806l-3.5,0l0,-5.6l3.5,0l0,5.6z"/><path id="s_999" fill="#ccbb00" d="m398.78952,209.15813l-3.5,0l0,-5.6l3.5,0l0,5.6z"/><path id="s_998" fill="#ccbb00" d="m393.25474,209.21817l-3.5,0l0,-5.6l3.5,0l0,5.6z"/><path id="s_997" fill="#ccbb00" d="m387.84768,209.10896l-3.5,0l0,-5.6l3.5,0l0,5.6z"/><path id="s_996" fill="#ccbb00" d="m381.55511,210.04371l0.00966,3.36238l-5.87586,0.01557l-0.00966,-3.36238l5.87586,-0.01557z"/><path id="s_995" fill="#ccbb00" d="m381.66457,215.50732l0.00966,3.36238l-5.87586,0.01557l-0.00966,-3.36238l5.87586,-0.01557z"/><path id="s_994" fill="#ccbb00" d="m381.74191,220.67081l0.00966,3.36238l-5.87586,0.01557l-0.00966,-3.36238l5.87586,-0.01557z"/><path id="s_993" fill="#ccbb00" d="m381.5371,225.53483l0.00966,3.36238l-5.87586,0.01557l-0.00966,-3.36238l5.87586,-0.01557z"/><path id="s_992" fill="#ccbb00" d="m381.61444,230.69832l0.00966,3.36238l-5.87586,0.01557l-0.00966,-3.36238l5.87586,-0.01557z"/><path id="s_991" fill="#ccbb00" d="m381.72389,236.16194l0.00966,3.36238l-5.87586,0.01557l-0.00966,-3.36238l5.87586,-0.01557z"/><path id="s_990" fill="#ccbb00" d="m381.80123,241.32543l0.00966,3.36238l-5.87586,0.01557l-0.00966,-3.36238l5.87586,-0.01557z"/><path id="s_989" fill="#ccbb00" d="m381.70676,246.51935l0.00966,3.36238l-5.87586,0.01557l-0.00966,-3.36238l5.87586,-0.01557z"/><path id="s_988" fill="#333333" d="m408.47712,247.26274l-20.00298,0l0,-25.93845l20.00298,0l0,25.93845z"/><path id="s_987" fill="#007f00" d="m475.1732,216.26337l-13.62703,0l0,-2.40171l13.62703,0l0,2.40171z"/></g><g id="s_983"><path id="s_985" stroke-width="1.802" stroke-opacity="0.0129" fill="#666666" d="m350.58434,252.81236l-1.5,1.5l-5.5,0l-1.5,-1.5l0,-5.5l1.5,-1.5l5.5,0l1.5,1.5l0,5.5z"/><path id="s_984" stroke-width="1.2355" stroke-opacity="0.0129" fill="#ccbb00" d="m346.15743,251.68759l-16,0l0,-3l16,0l0,3z"/></g><g id="s_980"><path id="s_982" stroke-width="1.802" stroke-opacity="0.0129" fill="#666666" d="m350.58434,242.81236l-1.5,1.5l-5.5,0l-1.5,-1.5l0,-5.5l1.5,-1.5l5.5,0l1.5,1.5l0,5.5z"/><path id="s_981" stroke-width="1.2355" stroke-opacity="0.0129" fill="#ccbb00" d="m346.15743,241.68759l-16,0l0,-3l16,0l0,3z"/></g><g id="s_977"><path id="s_979" stroke-width="1.802" stroke-opacity="0.0129" fill="#666666" d="m350.58434,232.81236l-1.5,1.5l-5.5,0l-1.5,-1.5l0,-5.5l1.5,-1.5l5.5,0l1.5,1.5l0,5.5z"/><path id="s_978" stroke-width="1.2355" stroke-opacity="0.0129" fill="#ccbb00" d="m346.15743,231.68759l-16,0l0,-3l16,0l0,3z"/></g><g id="s_974"><path id="s_976" stroke-width="1.802" stroke-opacity="0.0129" fill="#666666" d="m350.58434,222.81236l-1.5,1.5l-5.5,0l-1.5,-1.5l0,-5.5l1.5,-1.5l5.5,0l1.5,1.5l0,5.5z"/><path id="s_975" stroke-width="1.2355" stroke-opacity="0.0129" fill="#ccbb00" d="m346.15743,221.68759l-16,0l0,-3l16,0l0,3z"/></g><g id="s_971"><path id="s_973" stroke-width="1.802" stroke-opacity="0.0129" fill="#666666" d="m350.58434,212.81236l-1.5,1.5l-5.5,0l-1.5,-1.5l0,-5.5l1.5,-1.5l5.5,0l1.5,1.5l0,5.5z"/><path id="s_972" stroke-width="1.2355" stroke-opacity="0.0129" fill="#ccbb00" d="m346.15743,211.68759l-16,0l0,-3l16,0l0,3z"/></g><text fill="#ffffff" font-size="10" text-anchor="middle" font-family="serif" stroke="null" id="s_970" y="243.95609" x="363.50443">VCC</text><text fill="#ffffff" font-size="10" text-anchor="middle" font-family="serif" stroke="null" id="s_969" y="233.70609" x="362.45756">GND</text><text fill="#ffffff" font-size="10" text-anchor="middle" font-family="serif" stroke="null" id="s_968" y="213.97172" x="362.88725">RXD</text><text fill="#ffffff" font-size="10" text-anchor="middle" font-family="serif" stroke="null" id="s_967" y="223.45609" x="362.73881">TXD</text><text fill="#ffffff" font-size="10" text-anchor="middle" font-family="serif" stroke="null" id="s_966" y="253.45609" x="359.13725">EN</text><text fill="#ffffff" font-size="10" text-anchor="middle" font-family="serif" stroke="null" id="s_965" y="203.72172" x="366.28568">STATE</text></g><g id="s_1077"><path stroke-width="0" opacity="0.6" id="s_1097" fill="#ffffff" d="m292.36049,132.80084c-0.157,0.39069 -0.26964,0.80256 -0.32174,1.23833c-0.12391,1.08532 0.1232,2.12285 0.6301,3.0101l0.29639,0.10997c-0.54562,-0.99039 -0.79977,-2.14471 -0.66037,-3.34547c0.0444,-0.3702 0.12954,-0.72947 0.24218,-1.0703l-0.18656,0.0574l0,-0.00003z"/><path stroke-width="0" opacity="0.5" id="s_1096" fill="#ffffff" d="m304.50983,142.22714c-0.0866,-0.0348 -0.14995,-0.0977 -0.16615,-0.1892l-1.13699,0.17349c0.0162,0.0669 0.003,0.13592 0.0232,0.20149l-0.006,0.002c0.12672,0.40777 0.44142,0.71171 0.84272,0.86881l0.44282,-1.05664l0.0004,0.00005z"/><path stroke-width="0" opacity="0.5" id="s_1095" fill="#ffffff" d="m304.54152,127.8631c-0.088,-0.0348 -0.15278,-0.0963 -0.16756,-0.18783l-1.1356,0.17212c0.0127,0.0669 0.003,0.13592 0.0232,0.20081l-0.01,0.003c0.12954,0.40641 0.44283,0.7124 0.84412,0.86677l0.44566,-1.0546l0.00018,-0.00027z"/><path stroke-width="0" opacity="0.5" id="s_1094" fill="#ffffff" d="m289.73729,127.83373c-0.0866,-0.0342 -0.15207,-0.097 -0.16685,-0.18783l-1.1363,0.17007c0.0127,0.0697 0.002,0.13593 0.0218,0.20355l-0.006,0.003c0.12884,0.40367 0.44213,0.70966 0.84272,0.86607l0.44495,-1.05459l-0.00032,-0.00027z"/><path stroke-width="0" opacity="0.5" id="s_1093" fill="#ffffff" d="m289.70561,142.19572c-0.0838,-0.0355 -0.14996,-0.0977 -0.16474,-0.18852l-1.13771,0.17349c0.0113,0.0663 0.002,0.13592 0.0239,0.20081l-0.006,0.001c0.12883,0.40845 0.44283,0.7124 0.84271,0.87018l0.44143,-1.05733l0.00041,0.00037z"/><polygon stroke-width="0" points="285.0408935546875,123.60769653320312 282.9400634765625,125.64651489257812 282.9400634765625,144.803466796875 285.0408935546875,146.84161376953125 304.78668212890625,146.84161376953125 306.88818359375,144.803466796875 306.88818359375,125.64581298828125 304.78668212890625,123.60769653320312 " id="s_1092" fill="black"/><path id="s_1091" fill="#333333" d="m288.18429,121.50957c0,-0.76073 1.35616,-1.4 2.97,-1.4l-2.58095,0c1.61384,0 2.97,0.63927 2.97,1.4l0,5.08438c0,0.76073 -1.35616,1.4 -2.97,1.4l2.58095,0c-1.61384,0 -2.97,-0.63927 -2.97,-1.4l0,-5.08438z"/><path id="s_1090" fill="#333333" d="m298.52801,121.62581c0,-0.76073 1.35616,-1.4 2.97,-1.4l-2.58095,0c1.61384,0 2.97,0.63927 2.97,1.4l0,5.08438c0,0.76073 -1.35616,1.4 -2.97,1.4l2.58095,0c-1.61384,0 -2.97,-0.63927 -2.97,-1.4l0,-5.08438z"/><path id="s_1089" fill="#333333" d="m288.18429,143.62734c0,-0.76073 1.35616,-1.4 2.97,-1.4l-2.58095,0c1.61384,0 2.97,0.63927 2.97,1.4l0,5.08438c0,0.76073 -1.35616,1.4 -2.97,1.4l2.58095,0c-1.61384,0 -2.97,-0.63927 -2.97,-1.4l0,-5.08438z"/><path id="s_1088" fill="#333333" d="m298.72527,143.62734c0,-0.76073 1.35616,-1.4 2.97,-1.4l-2.58095,0c1.61384,0 2.97,0.63927 2.97,1.4l0,5.08438c0,0.76073 -1.35616,1.4 -2.97,1.4l2.58095,0c-1.61384,0 -2.97,-0.63927 -2.97,-1.4l0,-5.08438z"/><path stroke-width="0" id="s_1087" fill="#999999" d="m303.5749,125.06613c0.93495,0 1.69811,0.73767 1.69811,1.64678l0.00002,16.90355c0,0.9057 -0.76317,1.64542 -1.69811,1.64542l-17.42676,0c-0.93354,0 -1.696,-0.73972 -1.696,-1.64542l0,-16.90631c0,-0.90638 0.76246,-1.64404 1.696,-1.64404l17.42674,0.00002l0,0z"/><g id="s_1082"><circle stroke-width="0" r="6.34165" id="s_1086" fill="#2d2d2d" cy="135.26549" cx="295.10157"/><circle stroke-width="0" r="6.34165" id="s_1085" fill="#3f3f3f" cy="135.29652" cx="294.75503"/><circle stroke-width="0" r="5.43787" id="s_1084" fill="#313131" cy="135.26101" cx="295.34793"/><circle stroke-width="0" r="5.57982" opacity="0.6" id="s_1083" fill="black" cy="135.32039" cx="294.70624"/></g><circle stroke-width="0" r="1.44209" id="s_1081" fill="black" cy="127.54699" cx="286.90473"/><circle stroke-width="0" r="1.44209" id="s_1080" fill="black" cy="142.85726" cx="286.74123"/><circle stroke-width="0" r="1.44209" id="s_1079" fill="black" cy="142.85726" cx="302.74202"/><circle stroke-width="0" r="1.44209" id="s_1078" fill="black" cy="127.57874" cx="302.77377"/></g><polyline id="Li24" points="170,340 170,320" stroke-width="3" stroke="#7f3f00" fill="none"/><polyline id="Li25" points="170,320 270,320" stroke-width="3" stroke="#7f3f00" fill="none"/><polyline id="Li26" points="270,320 270,340" stroke-width="3" stroke="#7f3f00" fill="none"/><polyline id="Li27" points="160,340 160,310" stroke-width="3" stroke="#5f00bf" fill="none"/><polyline id="Li28" points="160,310 260,310" stroke-width="3" stroke="#5f00bf" fill="none"/><polyline id="Li29" points="260,310 260,340" stroke-width="3" stroke="#5f00bf" fill="none"/><polyline id="Li30" points="150,340 150,300" stroke-width="3" stroke="#00ff00" fill="none"/><polyline id="Li31" points="150,300 300,300" stroke-width="3" stroke="#00ff00" fill="none"/><polyline id="Li32" points="250,300 250,340" stroke-width="3" stroke="#00ff00" fill="none"/><polyline id="Li33" points="240,340 240,290" stroke-width="3" stroke="#ff0000" fill="none"/><polyline id="Li34" points="240,290 140,290" stroke-width="3" stroke="#ff0000" fill="none"/><polyline id="Li35" points="140,290 140,340" stroke-width="3" stroke="#ff0000" fill="none"/><polyline id="Li36" points="230,260 230,290" stroke-width="3" stroke="#ff0000" fill="none"/><polyline id="Li37" points="240,290 300,290" stroke-width="3" stroke="#ff0000" fill="none"/><polyline id="Li38" points="250,260 250,300" stroke-width="3" stroke="#00ff00" fill="none"/><polyline id="Li40" points="190,260 190,310" stroke-width="3" stroke="#5f00bf" fill="none"/><polyline id="Li41" points="200,250 200,320" stroke-width="3" stroke="#7f3f00" fill="none"/><polyline id="Li42" points="340,240 300,240" stroke-width="3" stroke="#ff0000" fill="none"/><polyline id="Li43" points="300,240 300,290" stroke-width="3" stroke="#ff0000" fill="none"/><polyline id="Li44" points="340,230 310,230" stroke-width="3" stroke="#00ff00" fill="none"/><polyline id="Li45" points="310,230 310,300" stroke-width="3" stroke="#00ff00" fill="none"/><polyline id="Li46" points="310,300 300,300" stroke-width="3" stroke="#00ff00" fill="none"/><polyline id="Li48" points="320,130 320,190" stroke-width="3" stroke="#00ff00" fill="none"/><polyline id="Li49" points="320,190 310,190" stroke-width="3" stroke="#00ff00" fill="none"/><polyline id="Li50" points="310,190 310,230" stroke-width="3" stroke="#00ff00" fill="none"/><polyline id="Li51" points="300,170 300,240" stroke-width="3" stroke="#ff0000" fill="none"/><polyline id="Li56" points="340,210 290,210" stroke-width="3" stroke="#bfbf00" fill="none"/><polyline id="Li57" points="290,210 290,180" stroke-width="3" stroke="#bfbf00" fill="none"/><polyline id="Li58" points="290,180 130,180" stroke-width="3" stroke="#bfbf00" fill="none"/><polyline id="Li59" points="130,180 130,190" stroke-width="3" stroke="#bfbf00" fill="none"/><polyline id="Li60" points="140,190 140,170" stroke-width="3" stroke="#ff00ff" fill="none"/><polyline id="Li61" points="140,170 280,170 280,170 280,220" stroke-width="3" stroke="#ff00ff" fill="none"/><polyline id="Li62" points="280,220 330,220" stroke-width="3" stroke="#ff00ff" fill="none"/><polyline id="Li63" points="330,220 340,220" stroke-width="3" stroke="#ff00ff" fill="none"/><polyline id="Li64" points="200,190 200,160" stroke-width="3" stroke="#007fff" fill="none"/><polyline id="Li65" points="200,160 290,160" stroke-width="3" stroke="#007fff" fill="none"/><polyline id="Li66" points="290,160 290,150" stroke-width="3" stroke="#007fff" fill="none"/><polyline id="Li67" points="300,150 300,170" stroke-width="3" stroke="#ff0000" fill="none"/><polyline id="Li68" points="320,110 320,130" stroke-width="3" stroke="#00ff00" fill="none"/><polyline id="Li69" points="290,110 290,120" stroke-width="3" stroke="#00ff00" fill="none"/><g id="s_1104"><polyline stroke-width="3" stroke-linejoin="round" stroke-linecap="round" stroke="#b2b2b2" points="290,110 320,110 " id="s_1107" fill="none"/><path id="s_1106" fill="#D9B477" d="m320,130m-30,-30m21.2246,13.99988c0.45907,0.21658 1.24867,0.38607 1.75365,0.38607l2.53407,0c0.50498,0 0.91814,-0.42374 0.91814,-0.94164l0,-7.00487c0,-0.51884 -0.41316,-0.94164 -0.91814,-0.94164l-2.53407,0c-0.50498,0 -1.29458,0.17797 -1.75365,0.38607l-0.09181,0.04614c-0.45907,0.21658 -1.24867,0.38607 -1.75365,0.38607l-9.16306,0c-0.5059,0 -1.29369,-0.17797 -1.75276,-0.38607l-0.09273,-0.04614c-0.45907,-0.21658 -1.24684,-0.38607 -1.75365,-0.38607l-2.53407,0c-0.50681,0 -0.91814,0.4228 -0.91814,0.94164l0,7.00487c0,0.5179 0.41133,0.94164 0.91814,0.94164l2.53407,0c0.50681,0 1.29458,-0.17891 1.75365,-0.38607l0.09273,-0.04708c0.45907,-0.21658 1.24684,-0.38607 1.75276,-0.38607l9.16306,0c0.50498,0 1.29458,0.17891 1.75365,0.38607l0.09181,0.04708z"/><path opacity="0.3" id="s_1105" fill="black" d="m294.3553,110.80914c0,0.49624 0.16618,0.91433 0.37644,0.91433l2.45144,0c0.48478,0 1.24684,-0.07345 1.69946,-0.16008l0.09268,-0.02072c0.43979,-0.08475 1.21011,-0.16008 1.70035,-0.16008l8.85828,0c0.48662,0 1.24867,0.07533 1.69856,0.16008l0.09181,0.01977c0.44071,0.08569 1.20277,0.16008 1.69856,0.16008l0.40398,0l1.27622,0l0.3948,0c0.48662,0 0.8906,0.38419 0.8906,0.84371l0,0.32298l0,0.2081l0,0.22599c0,0.47082 -0.40398,0.84371 -0.8906,0.84371l-2.06582,0c-0.48662,0 -1.24867,-0.16008 -1.69856,-0.34935l-0.09181,-0.03672c-0.44071,-0.18456 -1.21195,-0.34652 -1.69856,-0.34652l-8.85828,0c-0.48386,0 -1.24592,0.16196 -1.70137,0.34746l-0.09457,0.03672c-0.43979,0.18927 -1.2046,0.34935 -1.70035,0.34935l-2.83706,0c-0.4857,0 -0.89152,-0.38607 -0.89152,-0.84371l0.00005,-0.70717l0,-1.27215l0,-2.41151c0.35348,0.14125 0.89519,0.53673 0.89519,1.87569l0.00008,0.00003l0,0.00001z"/></g></g></svg>